<svg xmlns="http://www.w3.org/2000/svg" xmlns:xlink="http://www.w3.org/1999/xlink" width="287" zoomAndPan="magnify"
    viewBox="0 0 215.25 237" height="316" preserveAspectRatio="xMidYMid meet" version="1.0">
    <defs>
        <g />
        <clipPath id="31e7345112">
            <path
                d="M 10.414062 0.53125 L 213.707031 0.53125 L 213.707031 140.292969 L 10.414062 140.292969 Z M 10.414062 0.53125 "
                clip-rule="nonzero" />
        </clipPath>
        <clipPath id="b308a3bb60">
            <path
                d="M 97.035156 111.292969 L 200.386719 111.292969 C 202.585938 108.261719 204.550781 105.050781 206.25 101.683594 C 206.285156 101.621094 206.316406 101.554688 206.347656 101.492188 C 207.058594 100.070312 207.722656 98.617188 208.339844 97.144531 C 209.636719 94.042969 210.710938 90.835938 211.550781 87.535156 L 83.3125 87.535156 L 79.878906 93.476562 L 77.761719 97.144531 L 70.078125 97.144531 L 67.957031 93.476562 L 64.523438 87.535156 L 50.800781 87.535156 L 47.367188 93.476562 L 43.9375 99.414062 L 47.367188 105.351562 L 50.800781 111.292969 L 64.523438 111.292969 L 67.957031 105.351562 L 70.078125 101.683594 L 77.761719 101.683594 L 79.878906 105.351562 L 83.3125 111.292969 Z M 81.320312 43.683594 L 83.441406 47.351562 L 86.871094 53.292969 L 211.550781 53.292969 C 210.710938 49.992188 209.636719 46.78125 208.339844 43.683594 C 207.726562 42.207031 207.058594 40.753906 206.347656 39.332031 C 206.3125 39.269531 206.285156 39.207031 206.25 39.144531 C 204.550781 35.777344 202.585938 32.5625 200.386719 29.53125 L 86.871094 29.53125 L 83.441406 35.472656 L 81.320312 39.144531 L 73.632812 39.144531 L 71.511719 35.472656 L 68.085938 29.53125 L 54.359375 29.53125 L 50.925781 35.472656 L 47.496094 41.410156 L 50.925781 47.351562 L 54.359375 53.292969 L 68.085938 53.292969 L 71.511719 47.351562 L 73.632812 43.683594 Z M 179.042969 10.140625 C 168.671875 4.039062 156.609375 0.53125 143.769531 0.53125 L 117.773438 0.53125 L 114.339844 6.46875 L 112.21875 10.140625 L 104.535156 10.140625 L 98.984375 0.53125 L 85.261719 0.53125 L 81.828125 6.46875 L 79.710938 10.140625 L 78.398438 12.410156 L 79.710938 14.679688 L 81.828125 18.347656 L 85.261719 24.289062 L 98.984375 24.289062 L 102.417969 18.347656 L 104.535156 14.679688 L 112.21875 14.679688 L 114.339844 18.347656 L 117.773438 24.289062 L 196.1875 24.289062 C 193.066406 20.753906 189.59375 17.53125 185.828125 14.679688 C 183.660156 13.039062 181.394531 11.523438 179.046875 10.140625 Z M 37.882812 70.414062 L 34.449219 64.472656 L 31.019531 58.53125 L 17.296875 58.53125 L 13.863281 64.472656 L 10.433594 70.414062 L 13.863281 76.351562 L 17.296875 82.292969 L 31.019531 82.292969 L 34.449219 76.351562 Z M 53.402344 116.535156 L 18.351562 116.535156 L 14.921875 122.472656 L 11.488281 128.414062 L 14.921875 134.355469 L 18.351562 140.292969 L 53.402344 140.292969 L 56.835938 134.355469 L 58.953125 130.6875 L 66.636719 130.6875 L 68.757812 134.355469 L 72.1875 140.292969 L 143.769531 140.292969 C 156.609375 140.292969 168.671875 136.789062 179.042969 130.6875 C 181.394531 129.304688 183.65625 127.785156 185.824219 126.144531 C 189.59375 123.292969 193.0625 120.074219 196.1875 116.535156 L 72.1875 116.535156 L 68.757812 122.472656 L 66.636719 126.144531 L 58.953125 126.144531 L 56.835938 122.472656 Z M 101.296875 58.53125 L 68.167969 58.53125 L 64.738281 64.472656 L 62.617188 68.144531 L 61.304688 70.414062 L 62.617188 72.683594 L 64.738281 76.351562 L 68.167969 82.292969 L 101.296875 82.292969 L 104.726562 76.351562 L 106.847656 72.683594 L 114.53125 72.683594 L 113.222656 70.414062 L 116.652344 76.351562 L 120.082031 82.292969 L 212.671875 82.292969 C 213.210938 79.152344 213.546875 75.949219 213.652344 72.683594 C 213.675781 71.929688 213.6875 71.171875 213.6875 70.414062 C 213.6875 69.65625 213.675781 68.898438 213.652344 68.144531 C 213.546875 64.878906 213.214844 61.671875 212.671875 58.53125 L 120.082031 58.53125 L 113.222656 70.414062 L 114.535156 68.144531 L 106.847656 68.144531 L 104.726562 64.472656 Z M 101.296875 58.53125 "
                clip-rule="evenodd" />
        </clipPath>
        <linearGradient x1="2685.782219" gradientTransform="matrix(0.0735104, 0, 0, 0.0734709, 10.434369, 0.531181)"
            y1="-54.272031" x2="914.653873" gradientUnits="userSpaceOnUse" y2="2529.313897" id="1fc4becdd7">
            <stop stop-opacity="1" stop-color="rgb(22.399902%, 3.898621%, 57.998657%)" offset="0" />
            <stop stop-opacity="1" stop-color="rgb(22.399902%, 3.898621%, 57.998657%)" offset="0.0625" />
            <stop stop-opacity="1" stop-color="rgb(22.561646%, 4.039001%, 58.021545%)" offset="0.078125" />
            <stop stop-opacity="1" stop-color="rgb(23.05603%, 4.463196%, 58.093262%)" offset="0.0820312" />
            <stop stop-opacity="1" stop-color="rgb(23.388672%, 4.748535%, 58.140564%)" offset="0.0859375" />
            <stop stop-opacity="1" stop-color="rgb(23.721313%, 5.032349%, 58.187866%)" offset="0.0898437" />
            <stop stop-opacity="1" stop-color="rgb(24.053955%, 5.317688%, 58.235168%)" offset="0.09375" />
            <stop stop-opacity="1" stop-color="rgb(24.385071%, 5.603027%, 58.282471%)" offset="0.0976562" />
            <stop stop-opacity="1" stop-color="rgb(24.717712%, 5.888367%, 58.329773%)" offset="0.101562" />
            <stop stop-opacity="1" stop-color="rgb(25.048828%, 6.17218%, 58.377075%)" offset="0.105469" />
            <stop stop-opacity="1" stop-color="rgb(25.38147%, 6.45752%, 58.424377%)" offset="0.109375" />
            <stop stop-opacity="1" stop-color="rgb(25.714111%, 6.741333%, 58.470154%)" offset="0.113281" />
            <stop stop-opacity="1" stop-color="rgb(26.046753%, 7.026672%, 58.517456%)" offset="0.117188" />
            <stop stop-opacity="1" stop-color="rgb(26.377869%, 7.312012%, 58.564758%)" offset="0.121094" />
            <stop stop-opacity="1" stop-color="rgb(26.71051%, 7.597351%, 58.612061%)" offset="0.125" />
            <stop stop-opacity="1" stop-color="rgb(27.041626%, 7.881165%, 58.659363%)" offset="0.128906" />
            <stop stop-opacity="1" stop-color="rgb(27.374268%, 8.166504%, 58.706665%)" offset="0.132812" />
            <stop stop-opacity="1" stop-color="rgb(27.706909%, 8.451843%, 58.753967%)" offset="0.136719" />
            <stop stop-opacity="1" stop-color="rgb(28.039551%, 8.737183%, 58.80127%)" offset="0.140625" />
            <stop stop-opacity="1" stop-color="rgb(28.370667%, 9.020996%, 58.848572%)" offset="0.144531" />
            <stop stop-opacity="1" stop-color="rgb(28.703308%, 9.306335%, 58.895874%)" offset="0.148438" />
            <stop stop-opacity="1" stop-color="rgb(29.034424%, 9.590149%, 58.943176%)" offset="0.152344" />
            <stop stop-opacity="1" stop-color="rgb(29.367065%, 9.875488%, 58.990479%)" offset="0.15625" />
            <stop stop-opacity="1" stop-color="rgb(29.698181%, 10.160828%, 59.037781%)" offset="0.160156" />
            <stop stop-opacity="1" stop-color="rgb(30.030823%, 10.446167%, 59.085083%)" offset="0.164062" />
            <stop stop-opacity="1" stop-color="rgb(30.363464%, 10.72998%, 59.132385%)" offset="0.167969" />
            <stop stop-opacity="1" stop-color="rgb(30.696106%, 11.01532%, 59.179688%)" offset="0.171875" />
            <stop stop-opacity="1" stop-color="rgb(31.027222%, 11.299133%, 59.22699%)" offset="0.175781" />
            <stop stop-opacity="1" stop-color="rgb(31.359863%, 11.584473%, 59.274292%)" offset="0.179687" />
            <stop stop-opacity="1" stop-color="rgb(31.690979%, 11.869812%, 59.321594%)" offset="0.183594" />
            <stop stop-opacity="1" stop-color="rgb(32.023621%, 12.155151%, 59.368896%)" offset="0.1875" />
            <stop stop-opacity="1" stop-color="rgb(32.356262%, 12.438965%, 59.416199%)" offset="0.191406" />
            <stop stop-opacity="1" stop-color="rgb(32.688904%, 12.724304%, 59.463501%)" offset="0.195312" />
            <stop stop-opacity="1" stop-color="rgb(33.02002%, 13.008118%, 59.510803%)" offset="0.199219" />
            <stop stop-opacity="1" stop-color="rgb(33.352661%, 13.293457%, 59.558105%)" offset="0.203125" />
            <stop stop-opacity="1" stop-color="rgb(33.683777%, 13.578796%, 59.605408%)" offset="0.207031" />
            <stop stop-opacity="1" stop-color="rgb(34.016418%, 13.864136%, 59.65271%)" offset="0.210937" />
            <stop stop-opacity="1" stop-color="rgb(34.34906%, 14.147949%, 59.700012%)" offset="0.214844" />
            <stop stop-opacity="1" stop-color="rgb(34.681702%, 14.433289%, 59.747314%)" offset="0.21875" />
            <stop stop-opacity="1" stop-color="rgb(35.012817%, 14.718628%, 59.794617%)" offset="0.222656" />
            <stop stop-opacity="1" stop-color="rgb(35.345459%, 15.003967%, 59.841919%)" offset="0.226562" />
            <stop stop-opacity="1" stop-color="rgb(35.676575%, 15.287781%, 59.887695%)" offset="0.230469" />
            <stop stop-opacity="1" stop-color="rgb(36.009216%, 15.57312%, 59.934998%)" offset="0.234375" />
            <stop stop-opacity="1" stop-color="rgb(36.341858%, 15.856934%, 59.9823%)" offset="0.238281" />
            <stop stop-opacity="1" stop-color="rgb(36.6745%, 16.142273%, 60.029602%)" offset="0.242188" />
            <stop stop-opacity="1" stop-color="rgb(37.005615%, 16.427612%, 60.076904%)" offset="0.246094" />
            <stop stop-opacity="1" stop-color="rgb(37.338257%, 16.712952%, 60.124207%)" offset="0.25" />
            <stop stop-opacity="1" stop-color="rgb(37.669373%, 16.996765%, 60.171509%)" offset="0.253906" />
            <stop stop-opacity="1" stop-color="rgb(38.002014%, 17.282104%, 60.218811%)" offset="0.257812" />
            <stop stop-opacity="1" stop-color="rgb(38.33313%, 17.565918%, 60.266113%)" offset="0.261719" />
            <stop stop-opacity="1" stop-color="rgb(38.665771%, 17.851257%, 60.313416%)" offset="0.265625" />
            <stop stop-opacity="1" stop-color="rgb(38.998413%, 18.136597%, 60.360718%)" offset="0.269531" />
            <stop stop-opacity="1" stop-color="rgb(39.331055%, 18.421936%, 60.40802%)" offset="0.273437" />
            <stop stop-opacity="1" stop-color="rgb(39.66217%, 18.70575%, 60.455322%)" offset="0.277344" />
            <stop stop-opacity="1" stop-color="rgb(39.994812%, 18.991089%, 60.502625%)" offset="0.28125" />
            <stop stop-opacity="1" stop-color="rgb(40.325928%, 19.276428%, 60.549927%)" offset="0.285156" />
            <stop stop-opacity="1" stop-color="rgb(40.658569%, 19.561768%, 60.597229%)" offset="0.289062" />
            <stop stop-opacity="1" stop-color="rgb(40.991211%, 19.845581%, 60.644531%)" offset="0.292969" />
            <stop stop-opacity="1" stop-color="rgb(41.323853%, 20.13092%, 60.691833%)" offset="0.296875" />
            <stop stop-opacity="1" stop-color="rgb(41.654968%, 20.414734%, 60.739136%)" offset="0.300781" />
            <stop stop-opacity="1" stop-color="rgb(41.98761%, 20.700073%, 60.786438%)" offset="0.304688" />
            <stop stop-opacity="1" stop-color="rgb(42.318726%, 20.985413%, 60.83374%)" offset="0.308594" />
            <stop stop-opacity="1" stop-color="rgb(42.651367%, 21.270752%, 60.881042%)" offset="0.3125" />
            <stop stop-opacity="1" stop-color="rgb(42.984009%, 21.554565%, 60.928345%)" offset="0.316406" />
            <stop stop-opacity="1" stop-color="rgb(43.31665%, 21.839905%, 60.975647%)" offset="0.320312" />
            <stop stop-opacity="1" stop-color="rgb(43.647766%, 22.123718%, 61.022949%)" offset="0.324219" />
            <stop stop-opacity="1" stop-color="rgb(43.980408%, 22.409058%, 61.070251%)" offset="0.328125" />
            <stop stop-opacity="1" stop-color="rgb(44.311523%, 22.694397%, 61.117554%)" offset="0.332031" />
            <stop stop-opacity="1" stop-color="rgb(44.644165%, 22.979736%, 61.164856%)" offset="0.335937" />
            <stop stop-opacity="1" stop-color="rgb(44.976807%, 23.26355%, 61.212158%)" offset="0.339844" />
            <stop stop-opacity="1" stop-color="rgb(45.309448%, 23.548889%, 61.25946%)" offset="0.34375" />
            <stop stop-opacity="1" stop-color="rgb(45.640564%, 23.834229%, 61.306763%)" offset="0.347656" />
            <stop stop-opacity="1" stop-color="rgb(45.973206%, 24.119568%, 61.354065%)" offset="0.351562" />
            <stop stop-opacity="1" stop-color="rgb(46.304321%, 24.403381%, 61.399841%)" offset="0.355469" />
            <stop stop-opacity="1" stop-color="rgb(46.636963%, 24.688721%, 61.447144%)" offset="0.359375" />
            <stop stop-opacity="1" stop-color="rgb(46.968079%, 24.972534%, 61.494446%)" offset="0.363281" />
            <stop stop-opacity="1" stop-color="rgb(47.30072%, 25.257874%, 61.541748%)" offset="0.367187" />
            <stop stop-opacity="1" stop-color="rgb(47.633362%, 25.543213%, 61.58905%)" offset="0.371094" />
            <stop stop-opacity="1" stop-color="rgb(47.966003%, 25.828552%, 61.636353%)" offset="0.375" />
            <stop stop-opacity="1" stop-color="rgb(48.297119%, 26.112366%, 61.683655%)" offset="0.378906" />
            <stop stop-opacity="1" stop-color="rgb(48.629761%, 26.397705%, 61.730957%)" offset="0.382812" />
            <stop stop-opacity="1" stop-color="rgb(48.960876%, 26.681519%, 61.778259%)" offset="0.386719" />
            <stop stop-opacity="1" stop-color="rgb(49.293518%, 26.966858%, 61.825562%)" offset="0.390625" />
            <stop stop-opacity="1" stop-color="rgb(49.62616%, 27.252197%, 61.872864%)" offset="0.394531" />
            <stop stop-opacity="1" stop-color="rgb(49.958801%, 27.537537%, 61.920166%)" offset="0.398438" />
            <stop stop-opacity="1" stop-color="rgb(50.289917%, 27.82135%, 61.967468%)" offset="0.402344" />
            <stop stop-opacity="1" stop-color="rgb(50.622559%, 28.106689%, 62.014771%)" offset="0.40625" />
            <stop stop-opacity="1" stop-color="rgb(50.953674%, 28.390503%, 62.062073%)" offset="0.410156" />
            <stop stop-opacity="1" stop-color="rgb(51.286316%, 28.675842%, 62.109375%)" offset="0.414062" />
            <stop stop-opacity="1" stop-color="rgb(51.618958%, 28.961182%, 62.156677%)" offset="0.417969" />
            <stop stop-opacity="1" stop-color="rgb(51.951599%, 29.246521%, 62.203979%)" offset="0.421875" />
            <stop stop-opacity="1" stop-color="rgb(52.282715%, 29.530334%, 62.251282%)" offset="0.425781" />
            <stop stop-opacity="1" stop-color="rgb(52.615356%, 29.815674%, 62.298584%)" offset="0.429688" />
            <stop stop-opacity="1" stop-color="rgb(52.946472%, 30.101013%, 62.345886%)" offset="0.433594" />
            <stop stop-opacity="1" stop-color="rgb(53.279114%, 30.386353%, 62.393188%)" offset="0.4375" />
            <stop stop-opacity="1" stop-color="rgb(53.611755%, 30.670166%, 62.440491%)" offset="0.441406" />
            <stop stop-opacity="1" stop-color="rgb(53.944397%, 30.955505%, 62.487793%)" offset="0.445312" />
            <stop stop-opacity="1" stop-color="rgb(54.275513%, 31.239319%, 62.535095%)" offset="0.449219" />
            <stop stop-opacity="1" stop-color="rgb(54.608154%, 31.524658%, 62.582397%)" offset="0.453125" />
            <stop stop-opacity="1" stop-color="rgb(54.93927%, 31.809998%, 62.6297%)" offset="0.457031" />
            <stop stop-opacity="1" stop-color="rgb(55.271912%, 32.095337%, 62.677002%)" offset="0.460938" />
            <stop stop-opacity="1" stop-color="rgb(55.603027%, 32.37915%, 62.724304%)" offset="0.464844" />
            <stop stop-opacity="1" stop-color="rgb(55.935669%, 32.66449%, 62.771606%)" offset="0.46875" />
            <stop stop-opacity="1" stop-color="rgb(56.268311%, 32.948303%, 62.818909%)" offset="0.472656" />
            <stop stop-opacity="1" stop-color="rgb(56.600952%, 33.233643%, 62.866211%)" offset="0.476562" />
            <stop stop-opacity="1" stop-color="rgb(56.932068%, 33.518982%, 62.911987%)" offset="0.480469" />
            <stop stop-opacity="1" stop-color="rgb(57.264709%, 33.804321%, 62.95929%)" offset="0.484375" />
            <stop stop-opacity="1" stop-color="rgb(57.595825%, 34.088135%, 63.006592%)" offset="0.488281" />
            <stop stop-opacity="1" stop-color="rgb(57.928467%, 34.373474%, 63.053894%)" offset="0.492188" />
            <stop stop-opacity="1" stop-color="rgb(58.261108%, 34.658813%, 63.101196%)" offset="0.496094" />
            <stop stop-opacity="1" stop-color="rgb(58.59375%, 34.944153%, 63.148499%)" offset="0.5" />
            <stop stop-opacity="1" stop-color="rgb(58.924866%, 35.227966%, 63.195801%)" offset="0.503906" />
            <stop stop-opacity="1" stop-color="rgb(59.257507%, 35.513306%, 63.243103%)" offset="0.507812" />
            <stop stop-opacity="1" stop-color="rgb(59.588623%, 35.797119%, 63.290405%)" offset="0.511719" />
            <stop stop-opacity="1" stop-color="rgb(59.921265%, 36.082458%, 63.337708%)" offset="0.515625" />
            <stop stop-opacity="1" stop-color="rgb(60.253906%, 36.367798%, 63.38501%)" offset="0.519531" />
            <stop stop-opacity="1" stop-color="rgb(60.586548%, 36.653137%, 63.432312%)" offset="0.523437" />
            <stop stop-opacity="1" stop-color="rgb(60.917664%, 36.936951%, 63.479614%)" offset="0.527344" />
            <stop stop-opacity="1" stop-color="rgb(61.250305%, 37.22229%, 63.526917%)" offset="0.53125" />
            <stop stop-opacity="1" stop-color="rgb(61.581421%, 37.506104%, 63.574219%)" offset="0.535156" />
            <stop stop-opacity="1" stop-color="rgb(61.914062%, 37.791443%, 63.621521%)" offset="0.539062" />
            <stop stop-opacity="1" stop-color="rgb(62.246704%, 38.076782%, 63.668823%)" offset="0.542969" />
            <stop stop-opacity="1" stop-color="rgb(62.579346%, 38.362122%, 63.716125%)" offset="0.546875" />
            <stop stop-opacity="1" stop-color="rgb(62.910461%, 38.645935%, 63.763428%)" offset="0.550781" />
            <stop stop-opacity="1" stop-color="rgb(63.243103%, 38.931274%, 63.81073%)" offset="0.554687" />
            <stop stop-opacity="1" stop-color="rgb(63.574219%, 39.216614%, 63.858032%)" offset="0.558594" />
            <stop stop-opacity="1" stop-color="rgb(63.90686%, 39.501953%, 63.905334%)" offset="0.5625" />
            <stop stop-opacity="1" stop-color="rgb(64.237976%, 39.785767%, 63.952637%)" offset="0.566406" />
            <stop stop-opacity="1" stop-color="rgb(64.570618%, 40.071106%, 63.999939%)" offset="0.570312" />
            <stop stop-opacity="1" stop-color="rgb(64.903259%, 40.354919%, 64.047241%)" offset="0.574219" />
            <stop stop-opacity="1" stop-color="rgb(65.235901%, 40.640259%, 64.094543%)" offset="0.578125" />
            <stop stop-opacity="1" stop-color="rgb(65.567017%, 40.925598%, 64.141846%)" offset="0.582031" />
            <stop stop-opacity="1" stop-color="rgb(65.899658%, 41.210938%, 64.189148%)" offset="0.585937" />
            <stop stop-opacity="1" stop-color="rgb(66.230774%, 41.494751%, 64.23645%)" offset="0.589844" />
            <stop stop-opacity="1" stop-color="rgb(66.563416%, 41.78009%, 64.283752%)" offset="0.59375" />
            <stop stop-opacity="1" stop-color="rgb(66.896057%, 42.063904%, 64.329529%)" offset="0.597656" />
            <stop stop-opacity="1" stop-color="rgb(67.228699%, 42.349243%, 64.376831%)" offset="0.601562" />
            <stop stop-opacity="1" stop-color="rgb(67.559814%, 42.634583%, 64.424133%)" offset="0.605469" />
            <stop stop-opacity="1" stop-color="rgb(67.892456%, 42.919922%, 64.471436%)" offset="0.609375" />
            <stop stop-opacity="1" stop-color="rgb(68.223572%, 43.203735%, 64.518738%)" offset="0.613281" />
            <stop stop-opacity="1" stop-color="rgb(68.556213%, 43.489075%, 64.56604%)" offset="0.617187" />
            <stop stop-opacity="1" stop-color="rgb(68.888855%, 43.774414%, 64.613342%)" offset="0.621094" />
            <stop stop-opacity="1" stop-color="rgb(69.221497%, 44.059753%, 64.660645%)" offset="0.625" />
            <stop stop-opacity="1" stop-color="rgb(69.552612%, 44.343567%, 64.707947%)" offset="0.628906" />
            <stop stop-opacity="1" stop-color="rgb(69.885254%, 44.628906%, 64.755249%)" offset="0.632812" />
            <stop stop-opacity="1" stop-color="rgb(70.21637%, 44.91272%, 64.802551%)" offset="0.636719" />
            <stop stop-opacity="1" stop-color="rgb(70.549011%, 45.198059%, 64.849854%)" offset="0.640625" />
            <stop stop-opacity="1" stop-color="rgb(70.881653%, 45.483398%, 64.897156%)" offset="0.644531" />
            <stop stop-opacity="1" stop-color="rgb(71.214294%, 45.768738%, 64.944458%)" offset="0.648437" />
            <stop stop-opacity="1" stop-color="rgb(71.54541%, 46.052551%, 64.99176%)" offset="0.652344" />
            <stop stop-opacity="1" stop-color="rgb(71.878052%, 46.337891%, 65.039062%)" offset="0.65625" />
            <stop stop-opacity="1" stop-color="rgb(72.209167%, 46.621704%, 65.086365%)" offset="0.660156" />
            <stop stop-opacity="1" stop-color="rgb(72.541809%, 46.907043%, 65.133667%)" offset="0.664062" />
            <stop stop-opacity="1" stop-color="rgb(72.872925%, 47.192383%, 65.180969%)" offset="0.667969" />
            <stop stop-opacity="1" stop-color="rgb(73.205566%, 47.477722%, 65.228271%)" offset="0.671875" />
            <stop stop-opacity="1" stop-color="rgb(73.538208%, 47.761536%, 65.275574%)" offset="0.675781" />
            <stop stop-opacity="1" stop-color="rgb(73.87085%, 48.046875%, 65.322876%)" offset="0.679687" />
            <stop stop-opacity="1" stop-color="rgb(74.201965%, 48.330688%, 65.370178%)" offset="0.683594" />
            <stop stop-opacity="1" stop-color="rgb(74.534607%, 48.616028%, 65.41748%)" offset="0.6875" />
            <stop stop-opacity="1" stop-color="rgb(74.865723%, 48.901367%, 65.464783%)" offset="0.691406" />
            <stop stop-opacity="1" stop-color="rgb(75.198364%, 49.186707%, 65.512085%)" offset="0.695312" />
            <stop stop-opacity="1" stop-color="rgb(75.531006%, 49.47052%, 65.559387%)" offset="0.699219" />
            <stop stop-opacity="1" stop-color="rgb(75.863647%, 49.755859%, 65.606689%)" offset="0.703125" />
            <stop stop-opacity="1" stop-color="rgb(76.194763%, 50.041199%, 65.653992%)" offset="0.707031" />
            <stop stop-opacity="1" stop-color="rgb(76.527405%, 50.326538%, 65.701294%)" offset="0.710937" />
            <stop stop-opacity="1" stop-color="rgb(76.858521%, 50.610352%, 65.748596%)" offset="0.714844" />
            <stop stop-opacity="1" stop-color="rgb(77.191162%, 50.895691%, 65.795898%)" offset="0.71875" />
            <stop stop-opacity="1" stop-color="rgb(77.523804%, 51.179504%, 65.841675%)" offset="0.722656" />
            <stop stop-opacity="1" stop-color="rgb(77.856445%, 51.464844%, 65.888977%)" offset="0.726562" />
            <stop stop-opacity="1" stop-color="rgb(78.187561%, 51.750183%, 65.936279%)" offset="0.730469" />
            <stop stop-opacity="1" stop-color="rgb(78.520203%, 52.035522%, 65.983582%)" offset="0.734375" />
            <stop stop-opacity="1" stop-color="rgb(78.851318%, 52.319336%, 66.030884%)" offset="0.738281" />
            <stop stop-opacity="1" stop-color="rgb(79.18396%, 52.604675%, 66.078186%)" offset="0.742188" />
            <stop stop-opacity="1" stop-color="rgb(79.515076%, 52.888489%, 66.125488%)" offset="0.746094" />
            <stop stop-opacity="1" stop-color="rgb(79.847717%, 53.173828%, 66.172791%)" offset="0.75" />
            <stop stop-opacity="1" stop-color="rgb(80.180359%, 53.459167%, 66.220093%)" offset="0.753906" />
            <stop stop-opacity="1" stop-color="rgb(80.513%, 53.744507%, 66.267395%)" offset="0.757812" />
            <stop stop-opacity="1" stop-color="rgb(80.844116%, 54.02832%, 66.314697%)" offset="0.761719" />
            <stop stop-opacity="1" stop-color="rgb(81.176758%, 54.31366%, 66.362%)" offset="0.765625" />
            <stop stop-opacity="1" stop-color="rgb(81.507874%, 54.598999%, 66.409302%)" offset="0.769531" />
            <stop stop-opacity="1" stop-color="rgb(81.840515%, 54.884338%, 66.456604%)" offset="0.773438" />
            <stop stop-opacity="1" stop-color="rgb(82.173157%, 55.168152%, 66.503906%)" offset="0.777344" />
            <stop stop-opacity="1" stop-color="rgb(82.505798%, 55.453491%, 66.551208%)" offset="0.78125" />
            <stop stop-opacity="1" stop-color="rgb(82.836914%, 55.737305%, 66.598511%)" offset="0.785156" />
            <stop stop-opacity="1" stop-color="rgb(83.169556%, 56.022644%, 66.645813%)" offset="0.789062" />
            <stop stop-opacity="1" stop-color="rgb(83.500671%, 56.307983%, 66.693115%)" offset="0.792969" />
            <stop stop-opacity="1" stop-color="rgb(83.833313%, 56.593323%, 66.740417%)" offset="0.796875" />
            <stop stop-opacity="1" stop-color="rgb(84.165955%, 56.877136%, 66.78772%)" offset="0.800781" />
            <stop stop-opacity="1" stop-color="rgb(84.498596%, 57.162476%, 66.835022%)" offset="0.804688" />
            <stop stop-opacity="1" stop-color="rgb(84.829712%, 57.446289%, 66.882324%)" offset="0.808594" />
            <stop stop-opacity="1" stop-color="rgb(85.162354%, 57.731628%, 66.929626%)" offset="0.8125" />
            <stop stop-opacity="1" stop-color="rgb(85.493469%, 58.016968%, 66.976929%)" offset="0.816406" />
            <stop stop-opacity="1" stop-color="rgb(85.826111%, 58.302307%, 67.024231%)" offset="0.820312" />
            <stop stop-opacity="1" stop-color="rgb(86.158752%, 58.586121%, 67.071533%)" offset="0.824219" />
            <stop stop-opacity="1" stop-color="rgb(86.491394%, 58.87146%, 67.118835%)" offset="0.828125" />
            <stop stop-opacity="1" stop-color="rgb(86.82251%, 59.156799%, 67.166138%)" offset="0.832031" />
            <stop stop-opacity="1" stop-color="rgb(87.155151%, 59.442139%, 67.21344%)" offset="0.835938" />
            <stop stop-opacity="1" stop-color="rgb(87.486267%, 59.725952%, 67.260742%)" offset="0.839844" />
            <stop stop-opacity="1" stop-color="rgb(87.818909%, 60.011292%, 67.308044%)" offset="0.84375" />
            <stop stop-opacity="1" stop-color="rgb(88.150024%, 60.295105%, 67.353821%)" offset="0.847656" />
            <stop stop-opacity="1" stop-color="rgb(88.482666%, 60.580444%, 67.401123%)" offset="0.851562" />
            <stop stop-opacity="1" stop-color="rgb(88.815308%, 60.865784%, 67.448425%)" offset="0.855469" />
            <stop stop-opacity="1" stop-color="rgb(89.147949%, 61.151123%, 67.495728%)" offset="0.859375" />
            <stop stop-opacity="1" stop-color="rgb(89.479065%, 61.434937%, 67.54303%)" offset="0.863281" />
            <stop stop-opacity="1" stop-color="rgb(89.811707%, 61.720276%, 67.590332%)" offset="0.867188" />
            <stop stop-opacity="1" stop-color="rgb(90.142822%, 62.004089%, 67.637634%)" offset="0.871094" />
            <stop stop-opacity="1" stop-color="rgb(90.475464%, 62.289429%, 67.684937%)" offset="0.875" />
            <stop stop-opacity="1" stop-color="rgb(90.808105%, 62.574768%, 67.732239%)" offset="0.878906" />
            <stop stop-opacity="1" stop-color="rgb(91.140747%, 62.860107%, 67.779541%)" offset="0.882812" />
            <stop stop-opacity="1" stop-color="rgb(91.471863%, 63.143921%, 67.826843%)" offset="0.886719" />
            <stop stop-opacity="1" stop-color="rgb(91.804504%, 63.42926%, 67.874146%)" offset="0.890625" />
            <stop stop-opacity="1" stop-color="rgb(92.13562%, 63.713074%, 67.921448%)" offset="0.894531" />
            <stop stop-opacity="1" stop-color="rgb(92.468262%, 63.998413%, 67.96875%)" offset="0.898437" />
            <stop stop-opacity="1" stop-color="rgb(92.800903%, 64.283752%, 68.016052%)" offset="0.902344" />
            <stop stop-opacity="1" stop-color="rgb(93.133545%, 64.569092%, 68.063354%)" offset="0.90625" />
            <stop stop-opacity="1" stop-color="rgb(93.464661%, 64.852905%, 68.110657%)" offset="0.910156" />
            <stop stop-opacity="1" stop-color="rgb(93.797302%, 65.138245%, 68.157959%)" offset="0.914062" />
            <stop stop-opacity="1" stop-color="rgb(94.128418%, 65.423584%, 68.205261%)" offset="0.917969" />
            <stop stop-opacity="1" stop-color="rgb(94.46106%, 65.708923%, 68.252563%)" offset="0.921875" />
            <stop stop-opacity="1" stop-color="rgb(94.793701%, 65.992737%, 68.299866%)" offset="0.925781" />
            <stop stop-opacity="1" stop-color="rgb(95.126343%, 66.278076%, 68.347168%)" offset="0.929687" />
            <stop stop-opacity="1" stop-color="rgb(95.457458%, 66.56189%, 68.39447%)" offset="0.933594" />
            <stop stop-opacity="1" stop-color="rgb(95.7901%, 66.847229%, 68.441772%)" offset="0.9375" />
            <stop stop-opacity="1" stop-color="rgb(96.121216%, 67.132568%, 68.489075%)" offset="0.941406" />
            <stop stop-opacity="1" stop-color="rgb(96.453857%, 67.417908%, 68.536377%)" offset="0.945312" />
            <stop stop-opacity="1" stop-color="rgb(96.676636%, 67.608643%, 68.566895%)" offset="0.949219" />
            <stop stop-opacity="1" stop-color="rgb(96.899414%, 67.799377%, 68.598938%)" offset="0.953125" />
            <stop stop-opacity="1" stop-color="rgb(96.899414%, 67.799377%, 68.598938%)" offset="0.96875" />
            <stop stop-opacity="1" stop-color="rgb(96.899414%, 67.799377%, 68.598938%)" offset="1" />
        </linearGradient>
    </defs>
    <g clip-path="url(#31e7345112)">
        <g clip-path="url(#b308a3bb60)">
            <path fill="url(#1fc4becdd7)"
                d="M 10.433594 0.53125 L 10.433594 140.292969 L 213.6875 140.292969 L 213.6875 0.53125 Z M 10.433594 0.53125 "
                fill-rule="nonzero" />
        </g>
    </g>
    <g fill="#545454" fill-opacity="1">
        <g transform="translate(10.89366, 184.088804)">
            <g>
                <path
                    d="M 22.375 -28.09375 L 22.375 0 L 18.890625 0 L 18.890625 -3.1875 C 18.085938 -2.070312 17.066406 -1.222656 15.828125 -0.640625 C 14.585938 -0.0546875 13.222656 0.234375 11.734375 0.234375 C 9.796875 0.234375 8.054688 -0.191406 6.515625 -1.046875 C 4.972656 -1.910156 3.765625 -3.117188 2.890625 -4.671875 C 2.023438 -6.222656 1.59375 -8.007812 1.59375 -10.03125 C 1.59375 -12.050781 2.023438 -13.832031 2.890625 -15.375 C 3.765625 -16.914062 4.972656 -18.113281 6.515625 -18.96875 C 8.054688 -19.820312 9.796875 -20.25 11.734375 -20.25 C 13.171875 -20.25 14.492188 -19.976562 15.703125 -19.4375 C 16.921875 -18.894531 17.929688 -18.09375 18.734375 -17.03125 L 18.734375 -28.09375 Z M 12.046875 -2.953125 C 13.304688 -2.953125 14.453125 -3.25 15.484375 -3.84375 C 16.515625 -4.4375 17.320312 -5.269531 17.90625 -6.34375 C 18.488281 -7.414062 18.78125 -8.644531 18.78125 -10.03125 C 18.78125 -11.414062 18.488281 -12.644531 17.90625 -13.71875 C 17.320312 -14.789062 16.515625 -15.617188 15.484375 -16.203125 C 14.453125 -16.785156 13.304688 -17.078125 12.046875 -17.078125 C 10.753906 -17.078125 9.597656 -16.785156 8.578125 -16.203125 C 7.554688 -15.617188 6.75 -14.789062 6.15625 -13.71875 C 5.5625 -12.644531 5.265625 -11.414062 5.265625 -10.03125 C 5.265625 -8.644531 5.5625 -7.414062 6.15625 -6.34375 C 6.75 -5.269531 7.554688 -4.4375 8.578125 -3.84375 C 9.597656 -3.25 10.753906 -2.953125 12.046875 -2.953125 Z M 12.046875 -2.953125 " />
            </g>
        </g>
    </g>
    <g fill="#545454" fill-opacity="1">
        <g transform="translate(36.714397, 184.088804)">
            <g>
                <path
                    d="M 21.578125 -9.921875 C 21.578125 -9.640625 21.550781 -9.273438 21.5 -8.828125 L 5.21875 -8.828125 C 5.445312 -7.054688 6.222656 -5.632812 7.546875 -4.5625 C 8.878906 -3.488281 10.53125 -2.953125 12.5 -2.953125 C 14.894531 -2.953125 16.820312 -3.757812 18.28125 -5.375 L 20.296875 -3.03125 C 19.390625 -1.96875 18.257812 -1.15625 16.90625 -0.59375 C 15.550781 -0.0390625 14.039062 0.234375 12.375 0.234375 C 10.257812 0.234375 8.378906 -0.203125 6.734375 -1.078125 C 5.097656 -1.953125 3.832031 -3.171875 2.9375 -4.734375 C 2.039062 -6.296875 1.59375 -8.0625 1.59375 -10.03125 C 1.59375 -11.976562 2.023438 -13.734375 2.890625 -15.296875 C 3.765625 -16.859375 4.960938 -18.070312 6.484375 -18.9375 C 8.015625 -19.8125 9.738281 -20.25 11.65625 -20.25 C 13.570312 -20.25 15.28125 -19.8125 16.78125 -18.9375 C 18.289062 -18.070312 19.46875 -16.859375 20.3125 -15.296875 C 21.15625 -13.734375 21.578125 -11.941406 21.578125 -9.921875 Z M 11.65625 -17.1875 C 9.914062 -17.1875 8.457031 -16.65625 7.28125 -15.59375 C 6.113281 -14.539062 5.425781 -13.15625 5.21875 -11.4375 L 18.09375 -11.4375 C 17.894531 -13.125 17.207031 -14.503906 16.03125 -15.578125 C 14.851562 -16.648438 13.394531 -17.1875 11.65625 -17.1875 Z M 11.65625 -17.1875 " />
            </g>
        </g>
    </g>
    <g fill="#545454" fill-opacity="1">
        <g transform="translate(59.88491, 184.088804)">
            <g>
                <path
                    d="M 11.703125 0.296875 C 9.703125 0.296875 7.773438 -0.0078125 5.921875 -0.625 C 4.066406 -1.238281 2.609375 -2.039062 1.546875 -3.03125 L 2.953125 -5.984375 C 3.960938 -5.078125 5.253906 -4.335938 6.828125 -3.765625 C 8.410156 -3.203125 10.035156 -2.921875 11.703125 -2.921875 C 13.898438 -2.921875 15.539062 -3.289062 16.625 -4.03125 C 17.707031 -4.78125 18.25 -5.769531 18.25 -7 C 18.25 -7.90625 17.953125 -8.644531 17.359375 -9.21875 C 16.765625 -9.789062 16.03125 -10.226562 15.15625 -10.53125 C 14.289062 -10.832031 13.0625 -11.171875 11.46875 -11.546875 C 9.476562 -12.023438 7.867188 -12.503906 6.640625 -12.984375 C 5.421875 -13.460938 4.375 -14.203125 3.5 -15.203125 C 2.632812 -16.203125 2.203125 -17.546875 2.203125 -19.234375 C 2.203125 -20.648438 2.570312 -21.925781 3.3125 -23.0625 C 4.050781 -24.195312 5.175781 -25.101562 6.6875 -25.78125 C 8.207031 -26.457031 10.09375 -26.796875 12.34375 -26.796875 C 13.90625 -26.796875 15.441406 -26.59375 16.953125 -26.1875 C 18.472656 -25.789062 19.773438 -25.210938 20.859375 -24.453125 L 19.609375 -21.421875 C 18.503906 -22.128906 17.316406 -22.664062 16.046875 -23.03125 C 14.785156 -23.40625 13.550781 -23.59375 12.34375 -23.59375 C 10.195312 -23.59375 8.585938 -23.195312 7.515625 -22.40625 C 6.441406 -21.625 5.90625 -20.617188 5.90625 -19.390625 C 5.90625 -18.472656 6.207031 -17.726562 6.8125 -17.15625 C 7.414062 -16.59375 8.164062 -16.15625 9.0625 -15.84375 C 9.957031 -15.53125 11.175781 -15.195312 12.71875 -14.84375 C 14.71875 -14.363281 16.320312 -13.882812 17.53125 -13.40625 C 18.738281 -12.925781 19.773438 -12.191406 20.640625 -11.203125 C 21.515625 -10.222656 21.953125 -8.898438 21.953125 -7.234375 C 21.953125 -5.847656 21.570312 -4.578125 20.8125 -3.421875 C 20.0625 -2.273438 18.914062 -1.367188 17.375 -0.703125 C 15.832031 -0.0351562 13.941406 0.296875 11.703125 0.296875 Z M 11.703125 0.296875 " />
            </g>
        </g>
    </g>
    <g fill="#545454" fill-opacity="1">
        <g transform="translate(83.396174, 184.088804)">
            <g>
                <path
                    d="M 12.1875 0.234375 C 10.144531 0.234375 8.320312 -0.207031 6.71875 -1.09375 C 5.113281 -1.976562 3.859375 -3.195312 2.953125 -4.75 C 2.046875 -6.300781 1.59375 -8.0625 1.59375 -10.03125 C 1.59375 -12 2.046875 -13.757812 2.953125 -15.3125 C 3.859375 -16.863281 5.113281 -18.070312 6.71875 -18.9375 C 8.320312 -19.8125 10.144531 -20.25 12.1875 -20.25 C 14.007812 -20.25 15.628906 -19.882812 17.046875 -19.15625 C 18.472656 -18.425781 19.582031 -17.367188 20.375 -15.984375 L 17.609375 -14.203125 C 16.972656 -15.160156 16.1875 -15.878906 15.25 -16.359375 C 14.320312 -16.835938 13.289062 -17.078125 12.15625 -17.078125 C 10.84375 -17.078125 9.660156 -16.785156 8.609375 -16.203125 C 7.566406 -15.617188 6.75 -14.789062 6.15625 -13.71875 C 5.5625 -12.644531 5.265625 -11.414062 5.265625 -10.03125 C 5.265625 -8.613281 5.5625 -7.367188 6.15625 -6.296875 C 6.75 -5.222656 7.566406 -4.394531 8.609375 -3.8125 C 9.660156 -3.238281 10.84375 -2.953125 12.15625 -2.953125 C 13.289062 -2.953125 14.320312 -3.191406 15.25 -3.671875 C 16.1875 -4.148438 16.972656 -4.867188 17.609375 -5.828125 L 20.375 -4.09375 C 19.582031 -2.695312 18.472656 -1.625 17.046875 -0.875 C 15.628906 -0.132812 14.007812 0.234375 12.1875 0.234375 Z M 12.1875 0.234375 " />
            </g>
        </g>
    </g>
    <g fill="#545454" fill-opacity="1">
        <g transform="translate(105.014417, 184.088804)">
            <g>
                <path
                    d="M 3.4375 -20.0625 L 7.078125 -20.0625 L 7.078125 0 L 3.4375 0 Z M 5.265625 -23.921875 C 4.554688 -23.921875 3.96875 -24.148438 3.5 -24.609375 C 3.039062 -25.066406 2.8125 -25.625 2.8125 -26.28125 C 2.8125 -26.9375 3.039062 -27.492188 3.5 -27.953125 C 3.96875 -28.421875 4.554688 -28.65625 5.265625 -28.65625 C 5.972656 -28.65625 6.5625 -28.429688 7.03125 -27.984375 C 7.5 -27.546875 7.734375 -27 7.734375 -26.34375 C 7.734375 -25.664062 7.5 -25.09375 7.03125 -24.625 C 6.5625 -24.15625 5.972656 -23.921875 5.265625 -23.921875 Z M 5.265625 -23.921875 " />
            </g>
        </g>
    </g>
    <g fill="#545454" fill-opacity="1">
        <g transform="translate(115.57745, 184.088804)">
            <g>
                <path
                    d="M 21.578125 -9.921875 C 21.578125 -9.640625 21.550781 -9.273438 21.5 -8.828125 L 5.21875 -8.828125 C 5.445312 -7.054688 6.222656 -5.632812 7.546875 -4.5625 C 8.878906 -3.488281 10.53125 -2.953125 12.5 -2.953125 C 14.894531 -2.953125 16.820312 -3.757812 18.28125 -5.375 L 20.296875 -3.03125 C 19.390625 -1.96875 18.257812 -1.15625 16.90625 -0.59375 C 15.550781 -0.0390625 14.039062 0.234375 12.375 0.234375 C 10.257812 0.234375 8.378906 -0.203125 6.734375 -1.078125 C 5.097656 -1.953125 3.832031 -3.171875 2.9375 -4.734375 C 2.039062 -6.296875 1.59375 -8.0625 1.59375 -10.03125 C 1.59375 -11.976562 2.023438 -13.734375 2.890625 -15.296875 C 3.765625 -16.859375 4.960938 -18.070312 6.484375 -18.9375 C 8.015625 -19.8125 9.738281 -20.25 11.65625 -20.25 C 13.570312 -20.25 15.28125 -19.8125 16.78125 -18.9375 C 18.289062 -18.070312 19.46875 -16.859375 20.3125 -15.296875 C 21.15625 -13.734375 21.578125 -11.941406 21.578125 -9.921875 Z M 11.65625 -17.1875 C 9.914062 -17.1875 8.457031 -16.65625 7.28125 -15.59375 C 6.113281 -14.539062 5.425781 -13.15625 5.21875 -11.4375 L 18.09375 -11.4375 C 17.894531 -13.125 17.207031 -14.503906 16.03125 -15.578125 C 14.851562 -16.648438 13.394531 -17.1875 11.65625 -17.1875 Z M 11.65625 -17.1875 " />
            </g>
        </g>
    </g>
    <g fill="#545454" fill-opacity="1">
        <g transform="translate(138.747963, 184.088804)">
            <g>
                <path
                    d="M 6.921875 -16.703125 C 7.554688 -17.859375 8.488281 -18.738281 9.71875 -19.34375 C 10.957031 -19.945312 12.460938 -20.25 14.234375 -20.25 L 14.234375 -16.734375 C 14.035156 -16.753906 13.757812 -16.765625 13.40625 -16.765625 C 11.4375 -16.765625 9.890625 -16.175781 8.765625 -15 C 7.640625 -13.832031 7.078125 -12.164062 7.078125 -10 L 7.078125 0 L 3.4375 0 L 3.4375 -20.0625 L 6.921875 -20.0625 Z M 6.921875 -16.703125 " />
            </g>
        </g>
    </g>
    <g fill="#545454" fill-opacity="1">
        <g transform="translate(10.41486, 208.732954)">
            <g>
                <path
                    d="M 10.390625 -13.3125 L 10.390625 0 L 9.171875 0 L 9.171875 -1.859375 C 8.785156 -1.234375 8.273438 -0.75 7.640625 -0.40625 C 7.015625 -0.0703125 6.3125 0.09375 5.53125 0.09375 C 4.644531 0.09375 3.84375 -0.109375 3.125 -0.515625 C 2.40625 -0.921875 1.84375 -1.488281 1.4375 -2.21875 C 1.03125 -2.945312 0.828125 -3.78125 0.828125 -4.71875 C 0.828125 -5.644531 1.03125 -6.472656 1.4375 -7.203125 C 1.84375 -7.941406 2.40625 -8.507812 3.125 -8.90625 C 3.84375 -9.300781 4.644531 -9.5 5.53125 -9.5 C 6.289062 -9.5 6.976562 -9.34375 7.59375 -9.03125 C 8.207031 -8.71875 8.710938 -8.253906 9.109375 -7.640625 L 9.109375 -13.3125 Z M 5.625 -1.046875 C 6.289062 -1.046875 6.890625 -1.195312 7.421875 -1.5 C 7.953125 -1.800781 8.367188 -2.234375 8.671875 -2.796875 C 8.972656 -3.359375 9.125 -4 9.125 -4.71875 C 9.125 -5.4375 8.972656 -6.078125 8.671875 -6.640625 C 8.367188 -7.203125 7.953125 -7.632812 7.421875 -7.9375 C 6.890625 -8.238281 6.289062 -8.390625 5.625 -8.390625 C 4.957031 -8.390625 4.359375 -8.238281 3.828125 -7.9375 C 3.296875 -7.632812 2.875 -7.203125 2.5625 -6.640625 C 2.257812 -6.078125 2.109375 -5.4375 2.109375 -4.71875 C 2.109375 -4 2.257812 -3.359375 2.5625 -2.796875 C 2.875 -2.234375 3.296875 -1.800781 3.828125 -1.5 C 4.359375 -1.195312 4.957031 -1.046875 5.625 -1.046875 Z M 5.625 -1.046875 " />
            </g>
        </g>
    </g>
    <g fill="#545454" fill-opacity="1">
        <g transform="translate(22.576453, 208.732954)">
            <g>
                <path
                    d="M 9.984375 -4.328125 L 2.09375 -4.328125 C 2.164062 -3.347656 2.539062 -2.554688 3.21875 -1.953125 C 3.90625 -1.347656 4.769531 -1.046875 5.8125 -1.046875 C 6.394531 -1.046875 6.929688 -1.148438 7.421875 -1.359375 C 7.910156 -1.566406 8.335938 -1.875 8.703125 -2.28125 L 9.421875 -1.453125 C 9.003906 -0.953125 8.476562 -0.566406 7.84375 -0.296875 C 7.21875 -0.0351562 6.53125 0.09375 5.78125 0.09375 C 4.8125 0.09375 3.953125 -0.109375 3.203125 -0.515625 C 2.453125 -0.929688 1.867188 -1.503906 1.453125 -2.234375 C 1.035156 -2.972656 0.828125 -3.800781 0.828125 -4.71875 C 0.828125 -5.632812 1.023438 -6.457031 1.421875 -7.1875 C 1.828125 -7.914062 2.378906 -8.484375 3.078125 -8.890625 C 3.773438 -9.296875 4.5625 -9.5 5.4375 -9.5 C 6.3125 -9.5 7.09375 -9.296875 7.78125 -8.890625 C 8.476562 -8.484375 9.023438 -7.914062 9.421875 -7.1875 C 9.816406 -6.46875 10.015625 -5.644531 10.015625 -4.71875 Z M 5.4375 -8.40625 C 4.53125 -8.40625 3.765625 -8.113281 3.140625 -7.53125 C 2.523438 -6.957031 2.175781 -6.207031 2.09375 -5.28125 L 8.796875 -5.28125 C 8.703125 -6.207031 8.347656 -6.957031 7.734375 -7.53125 C 7.117188 -8.113281 6.351562 -8.40625 5.4375 -8.40625 Z M 5.4375 -8.40625 " />
            </g>
        </g>
    </g>
    <g fill="#545454" fill-opacity="1">
        <g transform="translate(33.41067, 208.732954)">
            <g>
                <path
                    d="M 5.6875 0.09375 C 4.75 0.09375 3.910156 -0.109375 3.171875 -0.515625 C 2.441406 -0.921875 1.867188 -1.492188 1.453125 -2.234375 C 1.035156 -2.972656 0.828125 -3.800781 0.828125 -4.71875 C 0.828125 -5.632812 1.035156 -6.457031 1.453125 -7.1875 C 1.867188 -7.914062 2.441406 -8.484375 3.171875 -8.890625 C 3.910156 -9.296875 4.75 -9.5 5.6875 -9.5 C 6.5 -9.5 7.222656 -9.34375 7.859375 -9.03125 C 8.503906 -8.71875 9.007812 -8.253906 9.375 -7.640625 L 8.4375 -7 C 8.125 -7.457031 7.726562 -7.800781 7.25 -8.03125 C 6.769531 -8.269531 6.25 -8.390625 5.6875 -8.390625 C 5 -8.390625 4.382812 -8.238281 3.84375 -7.9375 C 3.300781 -7.632812 2.875 -7.203125 2.5625 -6.640625 C 2.257812 -6.078125 2.109375 -5.4375 2.109375 -4.71875 C 2.109375 -3.988281 2.257812 -3.34375 2.5625 -2.78125 C 2.875 -2.226562 3.300781 -1.800781 3.84375 -1.5 C 4.382812 -1.195312 5 -1.046875 5.6875 -1.046875 C 6.25 -1.046875 6.769531 -1.15625 7.25 -1.375 C 7.726562 -1.601562 8.125 -1.953125 8.4375 -2.421875 L 9.375 -1.78125 C 9.007812 -1.164062 8.503906 -0.695312 7.859375 -0.375 C 7.210938 -0.0625 6.488281 0.09375 5.6875 0.09375 Z M 5.6875 0.09375 " />
            </g>
        </g>
    </g>
    <g fill="#545454" fill-opacity="1">
        <g transform="translate(43.509454, 208.732954)">
            <g>
                <path
                    d="M 9.984375 -4.328125 L 2.09375 -4.328125 C 2.164062 -3.347656 2.539062 -2.554688 3.21875 -1.953125 C 3.90625 -1.347656 4.769531 -1.046875 5.8125 -1.046875 C 6.394531 -1.046875 6.929688 -1.148438 7.421875 -1.359375 C 7.910156 -1.566406 8.335938 -1.875 8.703125 -2.28125 L 9.421875 -1.453125 C 9.003906 -0.953125 8.476562 -0.566406 7.84375 -0.296875 C 7.21875 -0.0351562 6.53125 0.09375 5.78125 0.09375 C 4.8125 0.09375 3.953125 -0.109375 3.203125 -0.515625 C 2.453125 -0.929688 1.867188 -1.503906 1.453125 -2.234375 C 1.035156 -2.972656 0.828125 -3.800781 0.828125 -4.71875 C 0.828125 -5.632812 1.023438 -6.457031 1.421875 -7.1875 C 1.828125 -7.914062 2.378906 -8.484375 3.078125 -8.890625 C 3.773438 -9.296875 4.5625 -9.5 5.4375 -9.5 C 6.3125 -9.5 7.09375 -9.296875 7.78125 -8.890625 C 8.476562 -8.484375 9.023438 -7.914062 9.421875 -7.1875 C 9.816406 -6.46875 10.015625 -5.644531 10.015625 -4.71875 Z M 5.4375 -8.40625 C 4.53125 -8.40625 3.765625 -8.113281 3.140625 -7.53125 C 2.523438 -6.957031 2.175781 -6.207031 2.09375 -5.28125 L 8.796875 -5.28125 C 8.703125 -6.207031 8.347656 -6.957031 7.734375 -7.53125 C 7.117188 -8.113281 6.351562 -8.40625 5.4375 -8.40625 Z M 5.4375 -8.40625 " />
            </g>
        </g>
    </g>
    <g fill="#545454" fill-opacity="1">
        <g transform="translate(54.343671, 208.732954)">
            <g>
                <path
                    d="M 6.578125 -9.5 C 7.765625 -9.5 8.707031 -9.15625 9.40625 -8.46875 C 10.101562 -7.78125 10.453125 -6.78125 10.453125 -5.46875 L 10.453125 0 L 9.1875 0 L 9.1875 -5.34375 C 9.1875 -6.320312 8.941406 -7.066406 8.453125 -7.578125 C 7.960938 -8.097656 7.257812 -8.359375 6.34375 -8.359375 C 5.332031 -8.359375 4.53125 -8.054688 3.9375 -7.453125 C 3.34375 -6.847656 3.046875 -6.015625 3.046875 -4.953125 L 3.046875 0 L 1.78125 0 L 1.78125 -9.4375 L 3 -9.4375 L 3 -7.6875 C 3.34375 -8.269531 3.820312 -8.71875 4.4375 -9.03125 C 5.050781 -9.34375 5.765625 -9.5 6.578125 -9.5 Z M 6.578125 -9.5 " />
            </g>
        </g>
    </g>
    <g fill="#545454" fill-opacity="1">
        <g transform="translate(66.487325, 208.732954)">
            <g>
                <path
                    d="M 6.75 -0.578125 C 6.507812 -0.359375 6.210938 -0.191406 5.859375 -0.078125 C 5.503906 0.0351562 5.132812 0.09375 4.75 0.09375 C 3.863281 0.09375 3.179688 -0.144531 2.703125 -0.625 C 2.222656 -1.101562 1.984375 -1.78125 1.984375 -2.65625 L 1.984375 -8.359375 L 0.3125 -8.359375 L 0.3125 -9.4375 L 1.984375 -9.4375 L 1.984375 -11.5 L 3.265625 -11.5 L 3.265625 -9.4375 L 6.140625 -9.4375 L 6.140625 -8.359375 L 3.265625 -8.359375 L 3.265625 -2.71875 C 3.265625 -2.164062 3.40625 -1.738281 3.6875 -1.4375 C 3.96875 -1.144531 4.367188 -1 4.890625 -1 C 5.160156 -1 5.414062 -1.039062 5.65625 -1.125 C 5.90625 -1.207031 6.117188 -1.328125 6.296875 -1.484375 Z M 6.75 -0.578125 " />
            </g>
        </g>
    </g>
    <g fill="#545454" fill-opacity="1">
        <g transform="translate(73.769929, 208.732954)">
            <g>
                <path
                    d="M 3 -7.59375 C 3.289062 -8.21875 3.734375 -8.691406 4.328125 -9.015625 C 4.921875 -9.335938 5.65625 -9.5 6.53125 -9.5 L 6.53125 -8.265625 L 6.21875 -8.28125 C 5.226562 -8.28125 4.453125 -7.972656 3.890625 -7.359375 C 3.328125 -6.753906 3.046875 -5.90625 3.046875 -4.8125 L 3.046875 0 L 1.78125 0 L 1.78125 -9.4375 L 3 -9.4375 Z M 3 -7.59375 " />
            </g>
        </g>
    </g>
    <g fill="#545454" fill-opacity="1">
        <g transform="translate(80.962849, 208.732954)">
            <g>
                <path
                    d="M 5.078125 -9.5 C 6.304688 -9.5 7.25 -9.191406 7.90625 -8.578125 C 8.5625 -7.960938 8.890625 -7.050781 8.890625 -5.84375 L 8.890625 0 L 7.671875 0 L 7.671875 -1.46875 C 7.390625 -0.976562 6.96875 -0.59375 6.40625 -0.3125 C 5.851562 -0.0390625 5.195312 0.09375 4.4375 0.09375 C 3.382812 0.09375 2.546875 -0.15625 1.921875 -0.65625 C 1.296875 -1.164062 0.984375 -1.832031 0.984375 -2.65625 C 0.984375 -3.457031 1.269531 -4.101562 1.84375 -4.59375 C 2.425781 -5.082031 3.351562 -5.328125 4.625 -5.328125 L 7.625 -5.328125 L 7.625 -5.90625 C 7.625 -6.71875 7.394531 -7.332031 6.9375 -7.75 C 6.488281 -8.175781 5.828125 -8.390625 4.953125 -8.390625 C 4.347656 -8.390625 3.769531 -8.289062 3.21875 -8.09375 C 2.675781 -7.894531 2.207031 -7.625 1.8125 -7.28125 L 1.234375 -8.234375 C 1.710938 -8.640625 2.285156 -8.953125 2.953125 -9.171875 C 3.628906 -9.390625 4.335938 -9.5 5.078125 -9.5 Z M 4.625 -0.921875 C 5.34375 -0.921875 5.957031 -1.082031 6.46875 -1.40625 C 6.988281 -1.738281 7.375 -2.210938 7.625 -2.828125 L 7.625 -4.375 L 4.65625 -4.375 C 3.039062 -4.375 2.234375 -3.8125 2.234375 -2.6875 C 2.234375 -2.132812 2.441406 -1.703125 2.859375 -1.390625 C 3.285156 -1.078125 3.875 -0.921875 4.625 -0.921875 Z M 4.625 -0.921875 " />
            </g>
        </g>
    </g>
    <g fill="#545454" fill-opacity="1">
        <g transform="translate(91.545943, 208.732954)">
            <g>
                <path d="M 1.78125 -13.3125 L 3.046875 -13.3125 L 3.046875 0 L 1.78125 0 Z M 1.78125 -13.3125 " />
            </g>
        </g>
    </g>
    <g fill="#545454" fill-opacity="1">
        <g transform="translate(96.371114, 208.732954)">
            <g>
                <path
                    d="M 1.78125 -9.4375 L 3.046875 -9.4375 L 3.046875 0 L 1.78125 0 Z M 2.421875 -11.5 C 2.148438 -11.5 1.925781 -11.585938 1.75 -11.765625 C 1.570312 -11.941406 1.484375 -12.15625 1.484375 -12.40625 C 1.484375 -12.644531 1.570312 -12.851562 1.75 -13.03125 C 1.925781 -13.21875 2.148438 -13.3125 2.421875 -13.3125 C 2.679688 -13.3125 2.898438 -13.222656 3.078125 -13.046875 C 3.253906 -12.878906 3.34375 -12.675781 3.34375 -12.4375 C 3.34375 -12.164062 3.253906 -11.941406 3.078125 -11.765625 C 2.898438 -11.585938 2.679688 -11.5 2.421875 -11.5 Z M 2.421875 -11.5 " />
            </g>
        </g>
    </g>
    <g fill="#545454" fill-opacity="1">
        <g transform="translate(101.196285, 208.732954)">
            <g>
                <path
                    d="M 8.4375 -1.0625 L 8.4375 0 L 0.75 0 L 0.75 -0.84375 L 6.6875 -8.359375 L 0.859375 -8.359375 L 0.859375 -9.4375 L 8.328125 -9.4375 L 8.328125 -8.59375 L 2.390625 -1.0625 Z M 8.4375 -1.0625 " />
            </g>
        </g>
    </g>
    <g fill="#545454" fill-opacity="1">
        <g transform="translate(110.362318, 208.732954)">
            <g>
                <path
                    d="M 9.984375 -4.328125 L 2.09375 -4.328125 C 2.164062 -3.347656 2.539062 -2.554688 3.21875 -1.953125 C 3.90625 -1.347656 4.769531 -1.046875 5.8125 -1.046875 C 6.394531 -1.046875 6.929688 -1.148438 7.421875 -1.359375 C 7.910156 -1.566406 8.335938 -1.875 8.703125 -2.28125 L 9.421875 -1.453125 C 9.003906 -0.953125 8.476562 -0.566406 7.84375 -0.296875 C 7.21875 -0.0351562 6.53125 0.09375 5.78125 0.09375 C 4.8125 0.09375 3.953125 -0.109375 3.203125 -0.515625 C 2.453125 -0.929688 1.867188 -1.503906 1.453125 -2.234375 C 1.035156 -2.972656 0.828125 -3.800781 0.828125 -4.71875 C 0.828125 -5.632812 1.023438 -6.457031 1.421875 -7.1875 C 1.828125 -7.914062 2.378906 -8.484375 3.078125 -8.890625 C 3.773438 -9.296875 4.5625 -9.5 5.4375 -9.5 C 6.3125 -9.5 7.09375 -9.296875 7.78125 -8.890625 C 8.476562 -8.484375 9.023438 -7.914062 9.421875 -7.1875 C 9.816406 -6.46875 10.015625 -5.644531 10.015625 -4.71875 Z M 5.4375 -8.40625 C 4.53125 -8.40625 3.765625 -8.113281 3.140625 -7.53125 C 2.523438 -6.957031 2.175781 -6.207031 2.09375 -5.28125 L 8.796875 -5.28125 C 8.703125 -6.207031 8.347656 -6.957031 7.734375 -7.53125 C 7.117188 -8.113281 6.351562 -8.40625 5.4375 -8.40625 Z M 5.4375 -8.40625 " />
            </g>
        </g>
    </g>
    <g fill="#545454" fill-opacity="1">
        <g transform="translate(121.196535, 208.732954)">
            <g>
                <path
                    d="M 10.390625 -13.3125 L 10.390625 0 L 9.171875 0 L 9.171875 -1.859375 C 8.785156 -1.234375 8.273438 -0.75 7.640625 -0.40625 C 7.015625 -0.0703125 6.3125 0.09375 5.53125 0.09375 C 4.644531 0.09375 3.84375 -0.109375 3.125 -0.515625 C 2.40625 -0.921875 1.84375 -1.488281 1.4375 -2.21875 C 1.03125 -2.945312 0.828125 -3.78125 0.828125 -4.71875 C 0.828125 -5.644531 1.03125 -6.472656 1.4375 -7.203125 C 1.84375 -7.941406 2.40625 -8.507812 3.125 -8.90625 C 3.84375 -9.300781 4.644531 -9.5 5.53125 -9.5 C 6.289062 -9.5 6.976562 -9.34375 7.59375 -9.03125 C 8.207031 -8.71875 8.710938 -8.253906 9.109375 -7.640625 L 9.109375 -13.3125 Z M 5.625 -1.046875 C 6.289062 -1.046875 6.890625 -1.195312 7.421875 -1.5 C 7.953125 -1.800781 8.367188 -2.234375 8.671875 -2.796875 C 8.972656 -3.359375 9.125 -4 9.125 -4.71875 C 9.125 -5.4375 8.972656 -6.078125 8.671875 -6.640625 C 8.367188 -7.203125 7.953125 -7.632812 7.421875 -7.9375 C 6.890625 -8.238281 6.289062 -8.390625 5.625 -8.390625 C 4.957031 -8.390625 4.359375 -8.238281 3.828125 -7.9375 C 3.296875 -7.632812 2.875 -7.203125 2.5625 -6.640625 C 2.257812 -6.078125 2.109375 -5.4375 2.109375 -4.71875 C 2.109375 -4 2.257812 -3.359375 2.5625 -2.796875 C 2.875 -2.234375 3.296875 -1.800781 3.828125 -1.5 C 4.359375 -1.195312 4.957031 -1.046875 5.625 -1.046875 Z M 5.625 -1.046875 " />
            </g>
        </g>
    </g>
    <g fill="#545454" fill-opacity="1">
        <g transform="translate(133.36147, 208.732954)">
            <g />
        </g>
    </g>
    <g fill="#545454" fill-opacity="1">
        <g transform="translate(10.41486, 226.670454)">
            <g>
                <path
                    d="M 4.3125 0.09375 C 3.539062 0.09375 2.804688 -0.015625 2.109375 -0.234375 C 1.410156 -0.460938 0.863281 -0.742188 0.46875 -1.078125 L 1.046875 -2.078125 C 1.429688 -1.765625 1.921875 -1.507812 2.515625 -1.3125 C 3.117188 -1.113281 3.742188 -1.015625 4.390625 -1.015625 C 5.253906 -1.015625 5.890625 -1.148438 6.296875 -1.421875 C 6.710938 -1.691406 6.921875 -2.070312 6.921875 -2.5625 C 6.921875 -2.90625 6.804688 -3.175781 6.578125 -3.375 C 6.359375 -3.570312 6.070312 -3.722656 5.71875 -3.828125 C 5.375 -3.929688 4.914062 -4.03125 4.34375 -4.125 C 3.570312 -4.269531 2.953125 -4.414062 2.484375 -4.5625 C 2.023438 -4.71875 1.628906 -4.972656 1.296875 -5.328125 C 0.972656 -5.679688 0.8125 -6.175781 0.8125 -6.8125 C 0.8125 -7.601562 1.140625 -8.25 1.796875 -8.75 C 2.453125 -9.25 3.363281 -9.5 4.53125 -9.5 C 5.144531 -9.5 5.753906 -9.414062 6.359375 -9.25 C 6.972656 -9.09375 7.476562 -8.882812 7.875 -8.625 L 7.3125 -7.609375 C 6.539062 -8.140625 5.613281 -8.40625 4.53125 -8.40625 C 3.71875 -8.40625 3.101562 -8.257812 2.6875 -7.96875 C 2.28125 -7.6875 2.078125 -7.316406 2.078125 -6.859375 C 2.078125 -6.492188 2.191406 -6.203125 2.421875 -5.984375 C 2.660156 -5.773438 2.953125 -5.617188 3.296875 -5.515625 C 3.648438 -5.410156 4.128906 -5.304688 4.734375 -5.203125 C 5.484375 -5.054688 6.085938 -4.910156 6.546875 -4.765625 C 7.003906 -4.628906 7.394531 -4.382812 7.71875 -4.03125 C 8.039062 -3.6875 8.203125 -3.207031 8.203125 -2.59375 C 8.203125 -1.769531 7.859375 -1.113281 7.171875 -0.625 C 6.484375 -0.144531 5.53125 0.09375 4.3125 0.09375 Z M 4.3125 0.09375 " />
            </g>
        </g>
    </g>
    <g fill="#545454" fill-opacity="1">
        <g transform="translate(19.186269, 226.670454)">
            <g>
                <path
                    d="M 5.6875 0.09375 C 4.75 0.09375 3.910156 -0.109375 3.171875 -0.515625 C 2.441406 -0.921875 1.867188 -1.492188 1.453125 -2.234375 C 1.035156 -2.972656 0.828125 -3.800781 0.828125 -4.71875 C 0.828125 -5.632812 1.035156 -6.457031 1.453125 -7.1875 C 1.867188 -7.914062 2.441406 -8.484375 3.171875 -8.890625 C 3.910156 -9.296875 4.75 -9.5 5.6875 -9.5 C 6.5 -9.5 7.222656 -9.34375 7.859375 -9.03125 C 8.503906 -8.71875 9.007812 -8.253906 9.375 -7.640625 L 8.4375 -7 C 8.125 -7.457031 7.726562 -7.800781 7.25 -8.03125 C 6.769531 -8.269531 6.25 -8.390625 5.6875 -8.390625 C 5 -8.390625 4.382812 -8.238281 3.84375 -7.9375 C 3.300781 -7.632812 2.875 -7.203125 2.5625 -6.640625 C 2.257812 -6.078125 2.109375 -5.4375 2.109375 -4.71875 C 2.109375 -3.988281 2.257812 -3.34375 2.5625 -2.78125 C 2.875 -2.226562 3.300781 -1.800781 3.84375 -1.5 C 4.382812 -1.195312 5 -1.046875 5.6875 -1.046875 C 6.25 -1.046875 6.769531 -1.15625 7.25 -1.375 C 7.726562 -1.601562 8.125 -1.953125 8.4375 -2.421875 L 9.375 -1.78125 C 9.007812 -1.164062 8.503906 -0.695312 7.859375 -0.375 C 7.210938 -0.0625 6.488281 0.09375 5.6875 0.09375 Z M 5.6875 0.09375 " />
            </g>
        </g>
    </g>
    <g fill="#545454" fill-opacity="1">
        <g transform="translate(29.285053, 226.670454)">
            <g>
                <path
                    d="M 1.78125 -9.4375 L 3.046875 -9.4375 L 3.046875 0 L 1.78125 0 Z M 2.421875 -11.5 C 2.148438 -11.5 1.925781 -11.585938 1.75 -11.765625 C 1.570312 -11.941406 1.484375 -12.15625 1.484375 -12.40625 C 1.484375 -12.644531 1.570312 -12.851562 1.75 -13.03125 C 1.925781 -13.21875 2.148438 -13.3125 2.421875 -13.3125 C 2.679688 -13.3125 2.898438 -13.222656 3.078125 -13.046875 C 3.253906 -12.878906 3.34375 -12.675781 3.34375 -12.4375 C 3.34375 -12.164062 3.253906 -11.941406 3.078125 -11.765625 C 2.898438 -11.585938 2.679688 -11.5 2.421875 -11.5 Z M 2.421875 -11.5 " />
            </g>
        </g>
    </g>
    <g fill="#545454" fill-opacity="1">
        <g transform="translate(34.110224, 226.670454)">
            <g>
                <path
                    d="M 9.984375 -4.328125 L 2.09375 -4.328125 C 2.164062 -3.347656 2.539062 -2.554688 3.21875 -1.953125 C 3.90625 -1.347656 4.769531 -1.046875 5.8125 -1.046875 C 6.394531 -1.046875 6.929688 -1.148438 7.421875 -1.359375 C 7.910156 -1.566406 8.335938 -1.875 8.703125 -2.28125 L 9.421875 -1.453125 C 9.003906 -0.953125 8.476562 -0.566406 7.84375 -0.296875 C 7.21875 -0.0351562 6.53125 0.09375 5.78125 0.09375 C 4.8125 0.09375 3.953125 -0.109375 3.203125 -0.515625 C 2.453125 -0.929688 1.867188 -1.503906 1.453125 -2.234375 C 1.035156 -2.972656 0.828125 -3.800781 0.828125 -4.71875 C 0.828125 -5.632812 1.023438 -6.457031 1.421875 -7.1875 C 1.828125 -7.914062 2.378906 -8.484375 3.078125 -8.890625 C 3.773438 -9.296875 4.5625 -9.5 5.4375 -9.5 C 6.3125 -9.5 7.09375 -9.296875 7.78125 -8.890625 C 8.476562 -8.484375 9.023438 -7.914062 9.421875 -7.1875 C 9.816406 -6.46875 10.015625 -5.644531 10.015625 -4.71875 Z M 5.4375 -8.40625 C 4.53125 -8.40625 3.765625 -8.113281 3.140625 -7.53125 C 2.523438 -6.957031 2.175781 -6.207031 2.09375 -5.28125 L 8.796875 -5.28125 C 8.703125 -6.207031 8.347656 -6.957031 7.734375 -7.53125 C 7.117188 -8.113281 6.351562 -8.40625 5.4375 -8.40625 Z M 5.4375 -8.40625 " />
            </g>
        </g>
    </g>
    <g fill="#545454" fill-opacity="1">
        <g transform="translate(44.944441, 226.670454)">
            <g>
                <path
                    d="M 6.578125 -9.5 C 7.765625 -9.5 8.707031 -9.15625 9.40625 -8.46875 C 10.101562 -7.78125 10.453125 -6.78125 10.453125 -5.46875 L 10.453125 0 L 9.1875 0 L 9.1875 -5.34375 C 9.1875 -6.320312 8.941406 -7.066406 8.453125 -7.578125 C 7.960938 -8.097656 7.257812 -8.359375 6.34375 -8.359375 C 5.332031 -8.359375 4.53125 -8.054688 3.9375 -7.453125 C 3.34375 -6.847656 3.046875 -6.015625 3.046875 -4.953125 L 3.046875 0 L 1.78125 0 L 1.78125 -9.4375 L 3 -9.4375 L 3 -7.6875 C 3.34375 -8.269531 3.820312 -8.71875 4.4375 -9.03125 C 5.050781 -9.34375 5.765625 -9.5 6.578125 -9.5 Z M 6.578125 -9.5 " />
            </g>
        </g>
    </g>
    <g fill="#545454" fill-opacity="1">
        <g transform="translate(57.088095, 226.670454)">
            <g>
                <path
                    d="M 5.6875 0.09375 C 4.75 0.09375 3.910156 -0.109375 3.171875 -0.515625 C 2.441406 -0.921875 1.867188 -1.492188 1.453125 -2.234375 C 1.035156 -2.972656 0.828125 -3.800781 0.828125 -4.71875 C 0.828125 -5.632812 1.035156 -6.457031 1.453125 -7.1875 C 1.867188 -7.914062 2.441406 -8.484375 3.171875 -8.890625 C 3.910156 -9.296875 4.75 -9.5 5.6875 -9.5 C 6.5 -9.5 7.222656 -9.34375 7.859375 -9.03125 C 8.503906 -8.71875 9.007812 -8.253906 9.375 -7.640625 L 8.4375 -7 C 8.125 -7.457031 7.726562 -7.800781 7.25 -8.03125 C 6.769531 -8.269531 6.25 -8.390625 5.6875 -8.390625 C 5 -8.390625 4.382812 -8.238281 3.84375 -7.9375 C 3.300781 -7.632812 2.875 -7.203125 2.5625 -6.640625 C 2.257812 -6.078125 2.109375 -5.4375 2.109375 -4.71875 C 2.109375 -3.988281 2.257812 -3.34375 2.5625 -2.78125 C 2.875 -2.226562 3.300781 -1.800781 3.84375 -1.5 C 4.382812 -1.195312 5 -1.046875 5.6875 -1.046875 C 6.25 -1.046875 6.769531 -1.15625 7.25 -1.375 C 7.726562 -1.601562 8.125 -1.953125 8.4375 -2.421875 L 9.375 -1.78125 C 9.007812 -1.164062 8.503906 -0.695312 7.859375 -0.375 C 7.210938 -0.0625 6.488281 0.09375 5.6875 0.09375 Z M 5.6875 0.09375 " />
            </g>
        </g>
    </g>
    <g fill="#545454" fill-opacity="1">
        <g transform="translate(67.186879, 226.670454)">
            <g>
                <path
                    d="M 9.984375 -4.328125 L 2.09375 -4.328125 C 2.164062 -3.347656 2.539062 -2.554688 3.21875 -1.953125 C 3.90625 -1.347656 4.769531 -1.046875 5.8125 -1.046875 C 6.394531 -1.046875 6.929688 -1.148438 7.421875 -1.359375 C 7.910156 -1.566406 8.335938 -1.875 8.703125 -2.28125 L 9.421875 -1.453125 C 9.003906 -0.953125 8.476562 -0.566406 7.84375 -0.296875 C 7.21875 -0.0351562 6.53125 0.09375 5.78125 0.09375 C 4.8125 0.09375 3.953125 -0.109375 3.203125 -0.515625 C 2.453125 -0.929688 1.867188 -1.503906 1.453125 -2.234375 C 1.035156 -2.972656 0.828125 -3.800781 0.828125 -4.71875 C 0.828125 -5.632812 1.023438 -6.457031 1.421875 -7.1875 C 1.828125 -7.914062 2.378906 -8.484375 3.078125 -8.890625 C 3.773438 -9.296875 4.5625 -9.5 5.4375 -9.5 C 6.3125 -9.5 7.09375 -9.296875 7.78125 -8.890625 C 8.476562 -8.484375 9.023438 -7.914062 9.421875 -7.1875 C 9.816406 -6.46875 10.015625 -5.644531 10.015625 -4.71875 Z M 5.4375 -8.40625 C 4.53125 -8.40625 3.765625 -8.113281 3.140625 -7.53125 C 2.523438 -6.957031 2.175781 -6.207031 2.09375 -5.28125 L 8.796875 -5.28125 C 8.703125 -6.207031 8.347656 -6.957031 7.734375 -7.53125 C 7.117188 -8.113281 6.351562 -8.40625 5.4375 -8.40625 Z M 5.4375 -8.40625 " />
            </g>
        </g>
    </g>
    <g fill="#545454" fill-opacity="1">
        <g transform="translate(78.030824, 226.670454)">
            <g />
        </g>
    </g>
</svg>