<?xml version="1.0" encoding="UTF-8"?>
<svg id="Layer_1" data-name="Layer 1" xmlns="http://www.w3.org/2000/svg" xmlns:xlink="http://www.w3.org/1999/xlink"
    viewBox="0 0 271 245">
    <defs>
        <style>
            .cls-1 {
                fill: url(#linear-gradient);
            }

            .cls-1,
            .cls-2,
            .cls-3 {
                stroke-width: 0px;
            }

            .cls-2 {
                fill: none;
            }

            .cls-4 {
                clip-path: url(#clippath-1);
            }

            .cls-3 {
                fill: #545454;
            }

            .cls-5 {
                clip-path: url(#clippath);
            }
        </style>
        <clipPath id="clippath">
            <rect class="cls-2" y="0" width="271" height="186.31" />
        </clipPath>
        <clipPath id="clippath-1">
            <path class="cls-2"
                d="m115.47,147.66h137.77c2.93-4.04,5.55-8.32,7.82-12.81.04-.09.08-.17.13-.26.95-1.9,1.83-3.83,2.66-5.8,1.72-4.13,3.16-8.41,4.28-12.81H97.18l-4.57,7.92-2.83,4.89h-10.24l-2.83-4.89-4.57-7.92h-18.3l-4.58,7.92-4.57,7.92,4.57,7.91,4.58,7.92h18.3l4.57-7.92,2.83-4.89h10.24l2.83,4.89,4.57,7.92h18.3Zm-20.95-90.13l2.83,4.89,4.57,7.92h166.21c-1.12-4.4-2.56-8.68-4.28-12.81-.82-1.97-1.71-3.9-2.66-5.8-.05-.09-.09-.17-.14-.26-2.26-4.49-4.88-8.77-7.81-12.81H101.92l-4.57,7.92-2.83,4.89h-10.24l-2.83-4.89-4.57-7.92h-18.3l-4.58,7.92-4.57,7.92,4.57,7.92,4.58,7.92h18.3l4.57-7.92,2.83-4.89h10.24ZM224.8,12.81C210.97,4.68,194.89,0,177.77,0h-34.66l-4.57,7.92-2.83,4.89h-10.24l-7.4-12.81h-18.3l-4.58,7.92-2.82,4.89-1.74,3.03,1.74,3.03,2.82,4.89,4.58,7.92h18.3l4.57-7.92,2.83-4.89h10.24l2.83,4.89,4.57,7.92h104.54c-4.16-4.71-8.79-9.01-13.82-12.81-2.89-2.19-5.9-4.21-9.04-6.05ZM36.62,93.16l-4.58-7.92-4.57-7.92H9.18l-4.58,7.92L.03,93.16l4.57,7.92,4.58,7.92h18.29l4.57-7.92,4.58-7.92Zm20.69,61.48H10.58l-4.58,7.92-4.57,7.92,4.57,7.92,4.58,7.92h46.72l4.57-7.92,2.83-4.89h10.24l2.83,4.89,4.57,7.92h95.42c17.12,0,33.2-4.68,47.02-12.81,3.14-1.85,6.15-3.87,9.04-6.06,5.03-3.8,9.65-8.09,13.81-12.81H82.35l-4.57,7.92-2.83,4.89h-10.24l-2.83-4.89-4.57-7.92Zm63.84-77.32h-44.16l-4.57,7.92-2.83,4.89-1.74,3.03,1.74,3.03,2.83,4.89,4.57,7.92h44.16l4.57-7.92,2.83-4.89h10.24l-1.75-3.03,4.58,7.92,4.57,7.92h123.43c.72-4.18,1.17-8.46,1.31-12.81.03-1.01.05-2.02.05-3.03s-.02-2.02-.05-3.03c-.14-4.35-.58-8.63-1.31-12.81h-123.43l-4.57,7.92-4.58,7.92,1.75-3.03h-10.24l-2.83-4.89-4.57-7.92Z" />
        </clipPath>
        <linearGradient id="linear-gradient" x1="9765.18" y1="-3108.45" x2="7994.05" y2="-5692.04"
            gradientTransform="translate(-734.65 -337.8) scale(.1 -.1)" gradientUnits="userSpaceOnUse">
            <stop offset="0" stop-color="#390a94" />
            <stop offset=".06" stop-color="#390a94" />
            <stop offset=".08" stop-color="#3a0a94" />
            <stop offset=".08" stop-color="#3b0b94" />
            <stop offset=".09" stop-color="#3c0c94" />
            <stop offset=".09" stop-color="#3c0d94" />
            <stop offset=".09" stop-color="#3d0e94" />
            <stop offset=".1" stop-color="#3e0e95" />
            <stop offset=".1" stop-color="#3f0f95" />
            <stop offset=".11" stop-color="#401095" />
            <stop offset=".11" stop-color="#411095" />
            <stop offset=".11" stop-color="#421195" />
            <stop offset=".12" stop-color="#421295" />
            <stop offset=".12" stop-color="#431395" />
            <stop offset=".12" stop-color="#441395" />
            <stop offset=".13" stop-color="#451496" />
            <stop offset=".13" stop-color="#461596" />
            <stop offset=".14" stop-color="#471696" />
            <stop offset=".14" stop-color="#481696" />
            <stop offset=".14" stop-color="#481796" />
            <stop offset=".15" stop-color="#491896" />
            <stop offset=".15" stop-color="#4a1896" />
            <stop offset=".16" stop-color="#4b1996" />
            <stop offset=".16" stop-color="#4c1a97" />
            <stop offset=".16" stop-color="#4d1b97" />
            <stop offset=".17" stop-color="#4d1b97" />
            <stop offset=".17" stop-color="#4e1c97" />
            <stop offset=".18" stop-color="#4f1d97" />
            <stop offset=".18" stop-color="#501e97" />
            <stop offset=".18" stop-color="#511e97" />
            <stop offset=".19" stop-color="#521f97" />
            <stop offset=".19" stop-color="#532098" />
            <stop offset=".2" stop-color="#532098" />
            <stop offset=".2" stop-color="#542198" />
            <stop offset=".2" stop-color="#552298" />
            <stop offset=".21" stop-color="#562398" />
            <stop offset=".21" stop-color="#572398" />
            <stop offset=".21" stop-color="#582498" />
            <stop offset=".22" stop-color="#582598" />
            <stop offset=".22" stop-color="#592698" />
            <stop offset=".23" stop-color="#5a2699" />
            <stop offset=".23" stop-color="#5b2799" />
            <stop offset=".23" stop-color="#5c2899" />
            <stop offset=".24" stop-color="#5d2899" />
            <stop offset=".24" stop-color="#5e2999" />
            <stop offset=".25" stop-color="#5e2a99" />
            <stop offset=".25" stop-color="#5f2b99" />
            <stop offset=".25" stop-color="#602b99" />
            <stop offset=".26" stop-color="#612c9a" />
            <stop offset=".26" stop-color="#622d9a" />
            <stop offset=".27" stop-color="#632e9a" />
            <stop offset=".27" stop-color="#632e9a" />
            <stop offset=".27" stop-color="#642f9a" />
            <stop offset=".28" stop-color="#65309a" />
            <stop offset=".28" stop-color="#66309a" />
            <stop offset=".29" stop-color="#67319a" />
            <stop offset=".29" stop-color="#68329b" />
            <stop offset=".29" stop-color="#69339b" />
            <stop offset=".3" stop-color="#69339b" />
            <stop offset=".3" stop-color="#6a349b" />
            <stop offset=".3" stop-color="#6b359b" />
            <stop offset=".31" stop-color="#6c369b" />
            <stop offset=".31" stop-color="#6d369b" />
            <stop offset=".32" stop-color="#6e379b" />
            <stop offset=".32" stop-color="#6e389b" />
            <stop offset=".32" stop-color="#6f389c" />
            <stop offset=".33" stop-color="#70399c" />
            <stop offset=".33" stop-color="#713a9c" />
            <stop offset=".34" stop-color="#723b9c" />
            <stop offset=".34" stop-color="#733b9c" />
            <stop offset=".34" stop-color="#743c9c" />
            <stop offset=".35" stop-color="#743d9c" />
            <stop offset=".35" stop-color="#753e9c" />
            <stop offset=".36" stop-color="#763e9d" />
            <stop offset=".36" stop-color="#773f9d" />
            <stop offset=".36" stop-color="#78409d" />
            <stop offset=".37" stop-color="#79409d" />
            <stop offset=".37" stop-color="#79419d" />
            <stop offset=".38" stop-color="#7a429d" />
            <stop offset=".38" stop-color="#7b439d" />
            <stop offset=".38" stop-color="#7c439d" />
            <stop offset=".39" stop-color="#7d449e" />
            <stop offset=".39" stop-color="#7e459e" />
            <stop offset=".39" stop-color="#7f459e" />
            <stop offset=".4" stop-color="#7f469e" />
            <stop offset=".4" stop-color="#80479e" />
            <stop offset=".41" stop-color="#81489e" />
            <stop offset=".41" stop-color="#82489e" />
            <stop offset=".41" stop-color="#83499e" />
            <stop offset=".42" stop-color="#844a9e" />
            <stop offset=".42" stop-color="#844b9f" />
            <stop offset=".43" stop-color="#854b9f" />
            <stop offset=".43" stop-color="#864c9f" />
            <stop offset=".43" stop-color="#874d9f" />
            <stop offset=".44" stop-color="#884d9f" />
            <stop offset=".44" stop-color="#894e9f" />
            <stop offset=".45" stop-color="#8a4f9f" />
            <stop offset=".45" stop-color="#8a509f" />
            <stop offset=".45" stop-color="#8b50a0" />
            <stop offset=".46" stop-color="#8c51a0" />
            <stop offset=".46" stop-color="#8d52a0" />
            <stop offset=".46" stop-color="#8e53a0" />
            <stop offset=".47" stop-color="#8f53a0" />
            <stop offset=".47" stop-color="#8f54a0" />
            <stop offset=".48" stop-color="#9055a0" />
            <stop offset=".48" stop-color="#9155a0" />
            <stop offset=".48" stop-color="#9256a1" />
            <stop offset=".49" stop-color="#9357a1" />
            <stop offset=".49" stop-color="#9458a1" />
            <stop offset=".5" stop-color="#9558a1" />
            <stop offset=".5" stop-color="#9559a1" />
            <stop offset=".5" stop-color="#965aa1" />
            <stop offset=".51" stop-color="#975ba1" />
            <stop offset=".51" stop-color="#985ba1" />
            <stop offset=".52" stop-color="#995ca2" />
            <stop offset=".52" stop-color="#9a5da2" />
            <stop offset=".52" stop-color="#9a5da2" />
            <stop offset=".53" stop-color="#9b5ea2" />
            <stop offset=".53" stop-color="#9c5fa2" />
            <stop offset=".54" stop-color="#9d60a2" />
            <stop offset=".54" stop-color="#9e60a2" />
            <stop offset=".54" stop-color="#9f61a2" />
            <stop offset=".55" stop-color="#a062a2" />
            <stop offset=".55" stop-color="#a063a3" />
            <stop offset=".55" stop-color="#a163a3" />
            <stop offset=".56" stop-color="#a264a3" />
            <stop offset=".56" stop-color="#a365a3" />
            <stop offset=".57" stop-color="#a465a3" />
            <stop offset=".57" stop-color="#a566a3" />
            <stop offset=".57" stop-color="#a667a3" />
            <stop offset=".58" stop-color="#a668a3" />
            <stop offset=".58" stop-color="#a768a4" />
            <stop offset=".59" stop-color="#a869a4" />
            <stop offset=".59" stop-color="#a96aa4" />
            <stop offset=".59" stop-color="#aa6ba4" />
            <stop offset=".6" stop-color="#ab6ba4" />
            <stop offset=".6" stop-color="#ab6ca4" />
            <stop offset=".61" stop-color="#ac6da4" />
            <stop offset=".61" stop-color="#ad6da4" />
            <stop offset=".61" stop-color="#ae6ea5" />
            <stop offset=".62" stop-color="#af6fa5" />
            <stop offset=".62" stop-color="#b070a5" />
            <stop offset=".62" stop-color="#b170a5" />
            <stop offset=".63" stop-color="#b171a5" />
            <stop offset=".63" stop-color="#b272a5" />
            <stop offset=".64" stop-color="#b373a5" />
            <stop offset=".64" stop-color="#b473a5" />
            <stop offset=".64" stop-color="#b574a5" />
            <stop offset=".65" stop-color="#b675a6" />
            <stop offset=".65" stop-color="#b675a6" />
            <stop offset=".66" stop-color="#b776a6" />
            <stop offset=".66" stop-color="#b877a6" />
            <stop offset=".66" stop-color="#b978a6" />
            <stop offset=".67" stop-color="#ba78a6" />
            <stop offset=".67" stop-color="#bb79a6" />
            <stop offset=".68" stop-color="#bc7aa6" />
            <stop offset=".68" stop-color="#bc7ba7" />
            <stop offset=".68" stop-color="#bd7ba7" />
            <stop offset=".69" stop-color="#be7ca7" />
            <stop offset=".69" stop-color="#bf7da7" />
            <stop offset=".7" stop-color="#c07da7" />
            <stop offset=".7" stop-color="#c17ea7" />
            <stop offset=".7" stop-color="#c17fa7" />
            <stop offset=".71" stop-color="#c280a7" />
            <stop offset=".71" stop-color="#c380a8" />
            <stop offset=".71" stop-color="#c481a8" />
            <stop offset=".72" stop-color="#c582a8" />
            <stop offset=".72" stop-color="#c683a8" />
            <stop offset=".73" stop-color="#c783a8" />
            <stop offset=".73" stop-color="#c784a8" />
            <stop offset=".73" stop-color="#c885a8" />
            <stop offset=".74" stop-color="#c985a8" />
            <stop offset=".74" stop-color="#ca86a8" />
            <stop offset=".75" stop-color="#cb87a9" />
            <stop offset=".75" stop-color="#cc88a9" />
            <stop offset=".75" stop-color="#cc88a9" />
            <stop offset=".76" stop-color="#cd89a9" />
            <stop offset=".76" stop-color="#ce8aa9" />
            <stop offset=".77" stop-color="#cf8aa9" />
            <stop offset=".77" stop-color="#d08ba9" />
            <stop offset=".77" stop-color="#d18ca9" />
            <stop offset=".78" stop-color="#d28daa" />
            <stop offset=".78" stop-color="#d28daa" />
            <stop offset=".79" stop-color="#d38eaa" />
            <stop offset=".79" stop-color="#d48faa" />
            <stop offset=".79" stop-color="#d590aa" />
            <stop offset=".8" stop-color="#d690aa" />
            <stop offset=".8" stop-color="#d791aa" />
            <stop offset=".8" stop-color="#d792aa" />
            <stop offset=".81" stop-color="#d892ab" />
            <stop offset=".81" stop-color="#d993ab" />
            <stop offset=".82" stop-color="#da94ab" />
            <stop offset=".82" stop-color="#db95ab" />
            <stop offset=".82" stop-color="#dc95ab" />
            <stop offset=".83" stop-color="#dd96ab" />
            <stop offset=".83" stop-color="#dd97ab" />
            <stop offset=".84" stop-color="#de98ab" />
            <stop offset=".84" stop-color="#df98ac" />
            <stop offset=".84" stop-color="#e099ac" />
            <stop offset=".85" stop-color="#e19aac" />
            <stop offset=".85" stop-color="#e29aac" />
            <stop offset=".86" stop-color="#e29bac" />
            <stop offset=".86" stop-color="#e39cac" />
            <stop offset=".86" stop-color="#e49dac" />
            <stop offset=".87" stop-color="#e59dac" />
            <stop offset=".87" stop-color="#e69eac" />
            <stop offset=".88" stop-color="#e79fad" />
            <stop offset=".88" stop-color="#e8a0ad" />
            <stop offset=".88" stop-color="#e8a0ad" />
            <stop offset=".89" stop-color="#e9a1ad" />
            <stop offset=".89" stop-color="#eaa2ad" />
            <stop offset=".89" stop-color="#eba2ad" />
            <stop offset=".9" stop-color="#eca3ad" />
            <stop offset=".9" stop-color="#eda4ad" />
            <stop offset=".91" stop-color="#eda5ae" />
            <stop offset=".91" stop-color="#eea5ae" />
            <stop offset=".91" stop-color="#efa6ae" />
            <stop offset=".92" stop-color="#f0a7ae" />
            <stop offset=".92" stop-color="#f1a8ae" />
            <stop offset=".93" stop-color="#f2a8ae" />
            <stop offset=".93" stop-color="#f3a9ae" />
            <stop offset=".93" stop-color="#f3aaae" />
            <stop offset=".94" stop-color="#f4aaaf" />
            <stop offset=".94" stop-color="#f5abaf" />
            <stop offset=".95" stop-color="#f6acaf" />
            <stop offset=".95" stop-color="#f7acaf" />
            <stop offset=".95" stop-color="#f7adaf" />
            <stop offset=".97" stop-color="#f7adaf" />
            <stop offset="1" stop-color="#f7adaf" />
        </linearGradient>
    </defs>
    <g class="cls-5">
        <g class="cls-4">
            <path class="cls-1" d="m.03,0v186.31h270.95V0H.03Z" />
        </g>
    </g>
    <path class="cls-3"
        d="m30.47,207.24v37.46h-4.65v-4.25c-1.07,1.49-2.43,2.62-4.08,3.4-1.66.78-3.47,1.17-5.46,1.17-2.58,0-4.91-.57-6.96-1.71-2.06-1.15-3.67-2.76-4.83-4.83-1.16-2.07-1.73-4.45-1.73-7.15s.57-5.07,1.73-7.13c1.17-2.05,2.78-3.65,4.83-4.79,2.05-1.14,4.38-1.71,6.96-1.71,1.92,0,3.68.36,5.29,1.08,1.63.72,2.97,1.79,4.04,3.21v-14.75h4.85Zm-13.77,33.52c1.68,0,3.21-.4,4.58-1.19s2.45-1.9,3.23-3.33c.78-1.43,1.17-3.07,1.17-4.92s-.39-3.48-1.17-4.92c-.78-1.43-1.85-2.53-3.23-3.31-1.38-.78-2.91-1.17-4.58-1.17s-3.27.39-4.63,1.17c-1.36.78-2.44,1.89-3.23,3.31-.79,1.43-1.19,3.07-1.19,4.92s.4,3.49,1.19,4.92c.79,1.43,1.86,2.54,3.23,3.33,1.36.79,2.9,1.19,4.63,1.19Z" />
    <path class="cls-3"
        d="m63.83,231.47c0,.38-.04.86-.1,1.46h-21.71c.3,2.36,1.34,4.26,3.1,5.69,1.78,1.43,3.98,2.15,6.6,2.15,3.19,0,5.76-1.07,7.71-3.23l2.69,3.13c-1.21,1.42-2.72,2.5-4.52,3.25-1.81.74-3.82,1.1-6.04,1.1-2.82,0-5.33-.58-7.52-1.75-2.18-1.17-3.87-2.79-5.06-4.88-1.2-2.08-1.79-4.44-1.79-7.06s.57-4.94,1.73-7.02c1.17-2.08,2.76-3.7,4.79-4.85,2.04-1.17,4.34-1.75,6.9-1.75s4.83.58,6.83,1.75c2.01,1.16,3.58,2.77,4.71,4.85s1.69,4.47,1.69,7.17Zm-13.23-9.69c-2.32,0-4.27.71-5.83,2.13-1.56,1.41-2.47,3.25-2.75,5.54h17.17c-.27-2.25-1.18-4.09-2.75-5.52-1.57-1.43-3.52-2.15-5.83-2.15Z" />
    <path class="cls-3"
        d="m81.55,245.09c-2.67,0-5.24-.41-7.71-1.23-2.47-.82-4.42-1.89-5.83-3.21l1.88-3.94c1.34,1.21,3.07,2.2,5.17,2.96,2.11.75,4.28,1.13,6.5,1.13,2.93,0,5.11-.49,6.56-1.48,1.44-1,2.17-2.32,2.17-3.96,0-1.21-.4-2.19-1.19-2.96-.79-.76-1.77-1.34-2.94-1.75-1.16-.4-2.79-.85-4.92-1.35-2.66-.64-4.8-1.28-6.44-1.92-1.63-.64-3.02-1.63-4.19-2.96-1.16-1.33-1.73-3.13-1.73-5.38,0-1.89.49-3.59,1.48-5.1.98-1.51,2.48-2.72,4.5-3.63,2.03-.9,4.54-1.35,7.54-1.35,2.08,0,4.13.27,6.15.81,2.03.53,3.76,1.3,5.21,2.31l-1.67,4.04c-1.47-.94-3.06-1.66-4.75-2.15-1.68-.5-3.33-.75-4.94-.75-2.86,0-5.01.53-6.44,1.58-1.43,1.04-2.15,2.39-2.15,4.02,0,1.22.4,2.22,1.21,2.98.8.75,1.8,1.33,3,1.75,1.19.42,2.82.86,4.88,1.33,2.67.64,4.8,1.28,6.42,1.92,1.61.64,2.99,1.62,4.15,2.94,1.17,1.31,1.75,3.07,1.75,5.29,0,1.85-.51,3.54-1.52,5.08-1,1.53-2.53,2.74-4.58,3.63-2.06.89-4.58,1.33-7.56,1.33Z" />
    <path class="cls-3"
        d="m113.54,245.01c-2.72,0-5.16-.59-7.29-1.77-2.14-1.18-3.81-2.8-5.02-4.88-1.21-2.07-1.81-4.42-1.81-7.04s.6-4.97,1.81-7.04c1.21-2.07,2.88-3.68,5.02-4.83,2.14-1.17,4.57-1.75,7.29-1.75,2.43,0,4.59.49,6.48,1.46,1.9.97,3.38,2.39,4.44,4.23l-3.69,2.38c-.85-1.28-1.9-2.23-3.15-2.88-1.24-.64-2.61-.96-4.13-.96-1.75,0-3.33.39-4.73,1.17-1.39.78-2.48,1.89-3.27,3.31-.79,1.43-1.19,3.07-1.19,4.92s.4,3.55,1.19,4.98c.79,1.43,1.88,2.54,3.27,3.31,1.4.77,2.98,1.15,4.73,1.15,1.51,0,2.89-.32,4.13-.96,1.25-.64,2.3-1.59,3.15-2.88l3.69,2.31c-1.06,1.86-2.54,3.29-4.44,4.29-1.89.99-4.05,1.48-6.48,1.48Z" />
    <path class="cls-3"
        d="m130.69,217.95h4.85v26.75h-4.85v-26.75Zm2.44-5.15c-.95,0-1.73-.3-2.35-.92-.61-.61-.92-1.35-.92-2.23s.3-1.61.92-2.23c.63-.63,1.41-.94,2.35-.94s1.73.3,2.35.9c.63.58.94,1.31.94,2.19s-.31,1.67-.94,2.29-1.41.94-2.35.94Z" />
    <path class="cls-3"
        d="m168.96,231.47c0,.38-.04.86-.1,1.46h-21.71c.3,2.36,1.34,4.26,3.1,5.69,1.78,1.43,3.98,2.15,6.6,2.15,3.19,0,5.76-1.07,7.71-3.23l2.69,3.13c-1.21,1.42-2.72,2.5-4.52,3.25-1.81.74-3.82,1.1-6.04,1.1-2.82,0-5.33-.58-7.52-1.75-2.18-1.17-3.87-2.79-5.06-4.88-1.2-2.08-1.79-4.44-1.79-7.06s.57-4.94,1.73-7.02c1.17-2.08,2.76-3.7,4.79-4.85,2.04-1.17,4.34-1.75,6.9-1.75s4.83.58,6.83,1.75c2.01,1.16,3.58,2.77,4.71,4.85s1.69,4.47,1.69,7.17Zm-13.23-9.69c-2.32,0-4.27.71-5.83,2.13-1.56,1.41-2.47,3.25-2.75,5.54h17.17c-.27-2.25-1.18-4.09-2.75-5.52-1.57-1.43-3.52-2.15-5.83-2.15Z" />
    <path class="cls-3"
        d="m180.31,222.43c.84-1.54,2.09-2.71,3.73-3.52,1.65-.8,3.66-1.21,6.02-1.21v4.69c-.27-.03-.64-.04-1.1-.04-2.63,0-4.69.79-6.19,2.35-1.5,1.56-2.25,3.78-2.25,6.67v13.33h-4.85v-26.75h4.65v4.48Z" />
</svg>