<svg viewBox="0 0 154 160" fill="none" xmlns="http://www.w3.org/2000/svg">
    <g id="Frame 848">
        <path id="Vector" d="M153.649 0H45.1782V134.129H153.649V0Z" fill="#E6E6E6" />
        <path id="Vector_2" d="M124.644 98.2998H73.8628V117.377H124.644V98.2998Z" fill="#4D308C" />
        <path id="Vector_3" opacity="0.09"
            d="M49.2884 44.5676C49.2884 44.5676 60.2072 46.207 58.2629 53.6717C56.9511 58.314 54.3871 62.5056 50.8515 65.7876V82.5623L66.8256 100.648L72.0944 89.9736L86.8942 96.836C86.8942 96.836 75.6018 123.828 78.3239 134.144H58.2629L40.0166 93.4582L42.0829 58.3839L49.2884 44.5676Z"
            fill="black" />
        <path id="Vector_4"
            d="M74.7471 96.1194C74.7471 96.1194 83.4394 97.3775 78.2469 106.466C73.0544 115.555 69.1657 144.217 53.7178 137.278L74.7471 96.1194Z"
            fill="#F4A28C" />
        <path id="Vector_5" opacity="0.09"
            d="M74.7471 96.1194C74.7471 96.1194 83.4394 97.3775 78.2469 106.466C73.0544 115.555 69.1657 144.217 53.7178 137.278L74.7471 96.1194Z"
            fill="black" />
        <path id="Vector_6" d="M41.1829 49.592L36.0972 67.5409L46.1925 69.6378L45.8417 55.73L41.1829 49.592Z"
            fill="#F4A28C" />
        <path id="Vector_7" opacity="0.31"
            d="M46.0474 58.7726C44.8225 58.298 43.7627 57.4766 42.9974 56.4089C42.9974 56.4089 42.7382 59.8172 46.0474 63.6068V58.7726Z"
            fill="#CE8172" />
        <path id="Vector_8"
            d="M51.6364 50.1106C51.6364 50.1106 51.1331 55.7835 49.5319 59.3367C49.3757 59.6809 49.1529 59.9909 48.8764 60.2487C48.5999 60.5066 48.2751 60.7072 47.9208 60.839C47.5664 60.9708 47.1895 61.0312 46.8117 61.0168C46.4339 61.0024 46.0627 60.9133 45.7195 60.7549C43.9429 59.9238 41.7851 58.2844 41.6859 55.2116L40.9006 50.0115C40.8491 48.9534 41.1273 47.9054 41.6969 47.0122C42.2664 46.119 43.0991 45.4246 44.0801 45.0248C47.6333 43.3168 52.1244 46.6718 51.6364 50.1106Z"
            fill="#F4A28C" />
        <path id="Vector_9"
            d="M40.9005 68.5403L46.2379 69.6383C46.2379 69.6383 68.1974 82.6005 67.4197 99.3752C66.642 116.15 55.929 135.784 55.929 135.784H18.5673C18.5673 135.784 -7.21237 75.3035 40.9005 68.5403Z"
            fill="#F2AEB4" />
        <path id="Vector_10" d="M78.9158 89.5275L68.5527 85.3784L61.048 104.122L71.4111 108.272L78.9158 89.5275Z"
            fill="#4D308C" />
        <path id="Vector_11" opacity="0.09"
            d="M35.1211 79.581C35.1211 79.581 46.9701 82.7148 47.1608 98.0941C47.3514 113.473 45.9942 123.599 58.2625 122.623L27.3971 135.753H18.5066C18.5066 135.753 13.009 123.203 12.1779 109.188C11.3468 95.1738 25.9942 77.4231 35.1211 79.581Z"
            fill="black" />
        <path id="Vector_12" d="M18.5066 135.753L16.9893 160L65.4605 158.635L55.8836 135.753H18.5066Z" fill="#24285B" />
        <path id="Vector_13"
            d="M44.8274 53.8547C44.8274 53.8547 45.1705 51.6892 43.5159 51.5672C41.8613 51.4452 41.3581 54.5714 43.5159 55.2576L44.8274 53.8547Z"
            fill="#F4A28C" />
        <path id="Vector_14"
            d="M25.7728 76.9502C25.7728 76.9502 35.281 75.0516 38.6512 85.2918C42.0214 95.532 38.7122 124.346 45.8567 126.855C53.0012 129.363 68.2204 104.179 68.2204 104.179C68.2204 104.179 68.0755 95.9818 73.634 93.641C79.1925 91.3002 75.6851 103.591 72.7572 106.519C69.8292 109.447 62.0747 142.798 39.3756 142.089C16.6764 141.38 7.35117 85.4443 25.7728 76.9502Z"
            fill="#F4A28C" />
        <path id="Vector_15"
            d="M51.1334 53.6714L52.3381 56.1037C52.4046 56.242 52.4353 56.3947 52.4273 56.5479C52.4193 56.7011 52.373 56.8498 52.2925 56.9804C52.212 57.111 52.1 57.2193 51.9667 57.2952C51.8335 57.3712 51.6832 57.4125 51.5299 57.4152H49.311L51.1334 53.6714Z"
            fill="#F4A28C" />
        <path id="Vector_16"
            d="M51.6745 42.7525C51.6745 42.7525 57.2178 49.2717 50.0428 50.6366C42.8678 52.0014 41.3886 53.29 42.0824 60.5489C42.7763 67.8077 45.6051 74.4947 36.0969 79.0544C26.5887 83.6141 34.7549 91.2542 33.047 100.168C31.339 109.081 22.9212 115.25 12.2159 109.173C1.51059 103.096 -5.1154 87.5104 6.37525 78.1699C17.8659 68.8295 32.2997 66.5878 32.2997 51.5439C32.2997 36.5001 44.2555 35.7452 51.6745 42.7525Z"
            fill="#24285B" />
        <path id="Vector_17"
            d="M98.7198 81.6549C112.338 81.6549 123.379 70.6148 123.379 56.9962C123.379 43.3775 112.338 32.3374 98.7198 32.3374C85.1011 32.3374 74.061 43.3775 74.061 56.9962C74.061 70.6148 85.1011 81.6549 98.7198 81.6549Z"
            fill="#04CA47" />
        <path id="Vector_18"
            d="M58.8345 15.8294C61.0032 15.8294 62.7613 14.0713 62.7613 11.9026C62.7613 9.73392 61.0032 7.97583 58.8345 7.97583C56.6658 7.97583 54.9077 9.73392 54.9077 11.9026C54.9077 14.0713 56.6658 15.8294 58.8345 15.8294Z"
            fill="#4D308C" />
        <path id="Vector_19"
            d="M69.9058 15.8294C72.0745 15.8294 73.8326 14.0713 73.8326 11.9026C73.8326 9.73392 72.0745 7.97583 69.9058 7.97583C67.7371 7.97583 65.979 9.73392 65.979 11.9026C65.979 14.0713 67.7371 15.8294 69.9058 15.8294Z"
            fill="#04CA47" />
        <path id="Vector_20"
            d="M80.4966 15.8294C82.6653 15.8294 84.4234 14.0713 84.4234 11.9026C84.4234 9.73392 82.6653 7.97583 80.4966 7.97583C78.3279 7.97583 76.5698 9.73392 76.5698 11.9026C76.5698 14.0713 78.3279 15.8294 80.4966 15.8294Z"
            fill="#24285B" />
        <path id="Vector_21" d="M88.2432 56.9961L95.8299 67.0685L108.098 47.7014" stroke="white" stroke-width="7"
            stroke-linecap="round" stroke-linejoin="round" />
    </g>
</svg>