<svg xmlns="http://www.w3.org/2000/svg" viewBox="0 0 16 17">
    <path
        d="M8.06683 12.3834C8.24461 12.3834 8.39461 12.3223 8.51683 12.2C8.63905 12.0778 8.70016 11.9278 8.70016 11.75C8.70016 11.5723 8.63905 11.4223 8.51683 11.3C8.39461 11.1778 8.24461 11.1167 8.06683 11.1167C7.88905 11.1167 7.73905 11.1778 7.61683 11.3C7.49461 11.4223 7.4335 11.5723 7.4335 11.75C7.4335 11.9278 7.49461 12.0778 7.61683 12.2C7.73905 12.3223 7.88905 12.3834 8.06683 12.3834ZM7.4835 9.95004H8.46683C8.46683 9.66115 8.50294 9.39726 8.57516 9.15837C8.64738 8.91948 8.87238 8.64448 9.25016 8.33337C9.59461 8.04448 9.83905 7.76115 9.9835 7.48337C10.1279 7.2056 10.2002 6.90004 10.2002 6.56671C10.2002 5.97782 10.0085 5.5056 9.62516 5.15004C9.24183 4.79448 8.7335 4.61671 8.10016 4.61671C7.55572 4.61671 7.07516 4.75282 6.6585 5.02504C6.24183 5.29726 5.93905 5.67226 5.75016 6.15004L6.6335 6.48337C6.75572 6.17226 6.93905 5.9306 7.1835 5.75837C7.42794 5.58615 7.71683 5.50004 8.05016 5.50004C8.42794 5.50004 8.7335 5.60282 8.96683 5.80837C9.20016 6.01393 9.31683 6.27782 9.31683 6.60004C9.31683 6.84448 9.24461 7.07504 9.10016 7.29171C8.95572 7.50837 8.74461 7.73337 8.46683 7.96671C8.1335 8.2556 7.88627 8.54171 7.72516 8.82504C7.56405 9.10837 7.4835 9.48337 7.4835 9.95004ZM8.00016 15.1667C7.08905 15.1667 6.22794 14.9917 5.41683 14.6417C4.60572 14.2917 3.89738 13.8139 3.29183 13.2084C2.68627 12.6028 2.2085 11.8945 1.8585 11.0834C1.5085 10.2723 1.3335 9.41115 1.3335 8.50004C1.3335 7.57782 1.5085 6.71115 1.8585 5.90004C2.2085 5.08893 2.68627 4.38337 3.29183 3.78337C3.89738 3.18337 4.60572 2.70837 5.41683 2.35837C6.22794 2.00837 7.08905 1.83337 8.00016 1.83337C8.92238 1.83337 9.78905 2.00837 10.6002 2.35837C11.4113 2.70837 12.1168 3.18337 12.7168 3.78337C13.3168 4.38337 13.7918 5.08893 14.1418 5.90004C14.4918 6.71115 14.6668 7.57782 14.6668 8.50004C14.6668 9.41115 14.4918 10.2723 14.1418 11.0834C13.7918 11.8945 13.3168 12.6028 12.7168 13.2084C12.1168 13.8139 11.4113 14.2917 10.6002 14.6417C9.78905 14.9917 8.92238 15.1667 8.00016 15.1667ZM8.00016 14.1667C9.57794 14.1667 10.9168 13.6139 12.0168 12.5084C13.1168 11.4028 13.6668 10.0667 13.6668 8.50004C13.6668 6.92226 13.1168 5.58337 12.0168 4.48337C10.9168 3.38337 9.57794 2.83337 8.00016 2.83337C6.4335 2.83337 5.09738 3.38337 3.99183 4.48337C2.88627 5.58337 2.3335 6.92226 2.3335 8.50004C2.3335 10.0667 2.88627 11.4028 3.99183 12.5084C5.09738 13.6139 6.4335 14.1667 8.00016 14.1667Z" />
</svg>