<svg xmlns="http://www.w3.org/2000/svg" viewBox="0 0 17 16" fill="none">
    <g clip-path="url(#clip0_1039_7836)">
        <path fill-rule="evenodd" clip-rule="evenodd"
            d="M8.83607 3.5C8.83607 3.36739 8.78339 3.24021 8.68963 3.14645C8.59586 3.05268 8.46868 3 8.33607 3H1.70007C1.30225 3 0.920718 3.15804 0.639413 3.43934C0.358108 3.72064 0.200073 4.10218 0.200073 4.5L0.200073 14.5C0.200073 14.8978 0.358108 15.2794 0.639413 15.5607C0.920718 15.842 1.30225 16 1.70007 16H11.7001C12.0979 16 12.4794 15.842 12.7607 15.5607C13.042 15.2794 13.2001 14.8978 13.2001 14.5V7.864C13.2001 7.73139 13.1474 7.60421 13.0536 7.51045C12.9599 7.41668 12.8327 7.364 12.7001 7.364C12.5675 7.364 12.4403 7.41668 12.3465 7.51045C12.2528 7.60421 12.2001 7.73139 12.2001 7.864V14.5C12.2001 14.6326 12.1474 14.7598 12.0536 14.8536C11.9599 14.9473 11.8327 15 11.7001 15H1.70007C1.56746 15 1.44029 14.9473 1.34652 14.8536C1.25275 14.7598 1.20007 14.6326 1.20007 14.5V4.5C1.20007 4.36739 1.25275 4.24021 1.34652 4.14645C1.44029 4.05268 1.56746 4 1.70007 4H8.33607C8.46868 4 8.59586 3.94732 8.68963 3.85355C8.78339 3.75979 8.83607 3.63261 8.83607 3.5Z"
            fill="#5E6992" />
        <path fill-rule="evenodd" clip-rule="evenodd"
            d="M16.2001 0.5C16.2001 0.367392 16.1474 0.240215 16.0536 0.146447C15.9599 0.0526784 15.8327 0 15.7001 0L10.7001 0C10.5675 0 10.4403 0.0526784 10.3465 0.146447C10.2528 0.240215 10.2001 0.367392 10.2001 0.5C10.2001 0.632608 10.2528 0.759785 10.3465 0.853553C10.4403 0.947322 10.5675 1 10.7001 1H14.4931L6.34609 9.146C6.29961 9.19249 6.26273 9.24768 6.23757 9.30842C6.21241 9.36916 6.19946 9.43426 6.19946 9.5C6.19946 9.56574 6.21241 9.63084 6.23757 9.69158C6.26273 9.75232 6.29961 9.80751 6.34609 9.854C6.39258 9.90049 6.44777 9.93736 6.50851 9.96252C6.56925 9.98768 6.63435 10.0006 6.70009 10.0006C6.76584 10.0006 6.83094 9.98768 6.89168 9.96252C6.95242 9.93736 7.00761 9.90049 7.05409 9.854L15.2001 1.707V5.5C15.2001 5.63261 15.2528 5.75979 15.3465 5.85355C15.4403 5.94732 15.5675 6 15.7001 6C15.8327 6 15.9599 5.94732 16.0536 5.85355C16.1474 5.75979 16.2001 5.63261 16.2001 5.5V0.5Z" />
    </g>
    <defs>
        <clipPath id="clip0_1039_7836">
            <rect width="16" height="16" fill="white" transform="translate(0.200073)" />
        </clipPath>
    </defs>
</svg>