<svg xmlns="http://www.w3.org/2000/svg" viewBox="0 0 128 128">
    <path
        d="M108.365 22.2725H43.6992C41.6209 22.2725 39.936 23.9573 39.936 26.0357V103.757C39.936 105.836 41.6209 107.52 43.6992 107.52H108.365C110.443 107.52 112.128 105.836 112.128 103.757V26.0357C112.128 23.9573 110.443 22.2725 108.365 22.2725Z"
        fill="#FFD44D" />
    <path
        d="M39.936 21.2485V29.6965L45.2506 34.2277C47.4385 36.0949 50.2206 37.1206 53.097 37.1205H99.1207C102.058 37.1203 104.896 36.0511 107.103 34.1125L112.128 29.6965V21.2485C112.128 21.0448 112.047 20.8494 111.903 20.7054C111.759 20.5614 111.564 20.4805 111.36 20.4805H40.704C40.5003 20.4805 40.305 20.5614 40.161 20.7054C40.0169 20.8494 39.936 21.0448 39.936 21.2485Z"
        fill="#F9BB0D" />
    <path
        d="M76.5439 43.7759C80.2199 43.7759 83.1999 40.7959 83.1999 37.1199C83.1999 33.4439 80.2199 30.4639 76.5439 30.4639C72.8679 30.4639 69.8879 33.4439 69.8879 37.1199C69.8879 40.7959 72.8679 43.7759 76.5439 43.7759Z"
        fill="#F0457D" />
    <path
        d="M76.5798 39.7007C77.9739 39.7007 79.104 38.5706 79.104 37.1765C79.104 35.7824 77.9739 34.6523 76.5798 34.6523C75.1858 34.6523 74.0557 35.7824 74.0557 37.1765C74.0557 38.5706 75.1858 39.7007 76.5798 39.7007Z"
        fill="#DB2868" />
    <path
        d="M64 87.2959L52.8282 107.52H43.6992C42.7012 107.52 41.744 107.123 41.0382 106.418C40.3325 105.712 39.936 104.755 39.936 103.757V91.1359L64 87.2959Z"
        fill="#F9BB0D" />
    <path
        d="M63.8004 86.9732L50.7623 78.6225C50.697 78.58 50.6214 78.5561 50.5435 78.5531C50.4657 78.55 50.3885 78.5681 50.32 78.6053C50.2516 78.6426 50.1945 78.6976 50.1547 78.7646C50.115 78.8316 50.0941 78.9081 50.0942 78.986V83.553H29.1841V91.1357H50.0942V95.6925C50.0949 95.7701 50.1163 95.8461 50.1563 95.9126C50.1962 95.9791 50.2532 96.0337 50.3214 96.0708C50.3895 96.1078 50.4663 96.126 50.5438 96.1234C50.6214 96.1208 50.6968 96.0976 50.7623 96.0561L63.8004 87.7028C63.8617 87.6637 63.9122 87.6098 63.9472 87.546C63.9821 87.4822 64.0005 87.4107 64.0005 87.338C64.0005 87.2653 63.9821 87.1937 63.9472 87.1299C63.9122 87.0662 63.8617 87.0123 63.8004 86.9732Z"
        fill="#0099F5" />
    <path
        d="M22.5407 59.1362H37.2915C37.5583 59.1362 37.8142 59.0302 38.0029 58.8415C38.1915 58.6528 38.2975 58.3969 38.2975 58.1301C38.2975 57.8633 38.1915 57.6074 38.0029 57.4187C37.8142 57.23 37.5583 57.124 37.2915 57.124H22.5407C22.2739 57.124 22.018 57.23 21.8293 57.4187C21.6407 57.6074 21.5347 57.8633 21.5347 58.1301C21.5347 58.3969 21.6407 58.6528 21.8293 58.8415C22.018 59.0302 22.2739 59.1362 22.5407 59.1362Z"
        fill="#24285B" />
    <path
        d="M17.5334 59.0874H18.2067C18.4735 59.0874 18.7294 58.9814 18.9181 58.7927C19.1068 58.604 19.2128 58.3481 19.2128 58.0813C19.2128 57.8144 19.1068 57.5585 18.9181 57.3699C18.7294 57.1812 18.4735 57.0752 18.2067 57.0752H17.5334C17.2666 57.0752 17.0107 57.1812 16.822 57.3699C16.6333 57.5585 16.5273 57.8144 16.5273 58.0813C16.5273 58.3481 16.6333 58.604 16.822 58.7927C17.0107 58.9814 17.2666 59.0874 17.5334 59.0874Z"
        fill="#24285B" />
    <path
        d="M16.6784 69.4174H31.4292C31.696 69.4174 31.9519 69.3114 32.1406 69.1228C32.3292 68.9341 32.4352 68.6782 32.4352 68.4114C32.4352 68.1445 32.3292 67.8886 32.1406 67.7C31.9519 67.5113 31.696 67.4053 31.4292 67.4053H16.6784C16.4116 67.4053 16.1557 67.5113 15.967 67.7C15.7784 67.8886 15.6724 68.1445 15.6724 68.4114C15.6724 68.6782 15.7784 68.9341 15.967 69.1228C16.1557 69.3114 16.4116 69.4174 16.6784 69.4174Z"
        fill="#24285B" />
    <path
        d="M30.6149 78.5919H31.2882C31.5459 78.5789 31.7888 78.4674 31.9666 78.2804C32.1444 78.0934 32.2435 77.8452 32.2435 77.5871C32.2435 77.3291 32.1444 77.0809 31.9666 76.8939C31.7888 76.7069 31.5459 76.5953 31.2882 76.5823H30.6149C30.4787 76.5755 30.3425 76.5963 30.2146 76.6437C30.0867 76.6911 29.9698 76.764 29.8709 76.858C29.7721 76.952 29.6934 77.0651 29.6396 77.1904C29.5858 77.3158 29.5581 77.4507 29.5581 77.5871C29.5581 77.7235 29.5858 77.8585 29.6396 77.9838C29.6934 78.1092 29.7721 78.2223 29.8709 78.3163C29.9698 78.4102 30.0867 78.4831 30.2146 78.5305C30.3425 78.5779 30.4787 78.5988 30.6149 78.5919Z"
        fill="#24285B" />
    <path
        d="M82.2348 92.7338H104.384C104.706 92.7338 104.965 92.2833 104.965 91.7278C104.965 91.1722 104.709 90.7217 104.384 90.7217H82.2348C81.9122 90.7217 81.6511 91.1722 81.6511 91.7278C81.6511 92.2833 81.9199 92.7338 82.2348 92.7338Z"
        fill="white" />
    <path
        d="M93.1635 101.675H104.059C104.469 101.675 104.801 101.225 104.801 100.669C104.801 100.114 104.469 99.6631 104.059 99.6631H93.1635C92.7539 99.6631 92.4211 100.114 92.4211 100.669C92.4211 101.225 92.7539 101.675 93.1635 101.675Z"
        fill="white" />
</svg>