<svg viewBox="0 0 126 24" fill="none" xmlns="http://www.w3.org/2000/svg">
    <path
        d="M110.005 12.1027C109.362 11.6786 108.653 11.3771 107.983 11.0002C107.548 10.7551 107.085 10.5383 106.707 10.2274C106.064 9.69965 106.197 8.66307 106.868 8.21071C107.832 7.56991 109.428 7.92794 109.598 9.23791C109.598 9.26612 109.626 9.28503 109.655 9.28503H111.11C111.148 9.28503 111.176 9.25674 111.167 9.21907C111.091 8.31434 110.741 7.56045 110.099 7.07983C109.485 6.61807 108.786 6.37305 108.039 6.37305C104.194 6.37305 103.844 10.4347 105.913 11.7164C106.149 11.8671 108.181 12.8849 108.899 13.3278C109.617 13.7707 109.844 14.5812 109.532 15.222C109.248 15.8063 108.512 16.2115 107.775 16.1644C106.971 16.1173 106.348 15.6838 106.13 15.0053C106.093 14.8828 106.074 14.6471 106.074 14.5435C106.074 14.5152 106.045 14.4869 106.017 14.4869H104.44C104.411 14.4869 104.383 14.5152 104.383 14.5435C104.383 15.6838 104.666 16.3151 105.441 16.8901C106.168 17.4366 106.962 17.6628 107.784 17.6628C109.938 17.6628 111.053 16.4471 111.28 15.1843C111.478 13.9498 111.11 12.8378 110.005 12.1027Z"
        fill="#161616" />
    <path
        d="M41.496 6.58008H40.7968H40.0315C40.0032 6.58008 39.9843 6.59892 39.9748 6.61777L38.6805 10.8773C38.6616 10.9339 38.586 10.9339 38.5671 10.8773L37.2727 6.61777C37.2632 6.5895 37.2443 6.58008 37.216 6.58008H36.4507H35.7515H34.8067C34.7784 6.58008 34.75 6.60835 34.75 6.63662V17.5117C34.75 17.5399 34.7784 17.5682 34.8067 17.5682H36.3845C36.4129 17.5682 36.4413 17.5399 36.4413 17.5117V9.247C36.4413 9.18104 36.5357 9.17166 36.5547 9.22817L37.8584 13.516L37.9529 13.8175C37.9624 13.8458 37.9813 13.8553 38.0096 13.8553H39.219C39.2473 13.8553 39.2662 13.8364 39.2757 13.8175L39.3701 13.516L40.674 9.22817C40.6929 9.1622 40.7874 9.18104 40.7874 9.247V17.5117C40.7874 17.5399 40.8157 17.5682 40.844 17.5682H42.4219C42.4502 17.5682 42.4786 17.5399 42.4786 17.5117V6.63662C42.4786 6.60835 42.4502 6.58008 42.4219 6.58008H41.496Z"
        fill="#161616" />
    <path
        d="M85.8452 6.58008C85.8169 6.58008 85.798 6.59892 85.7885 6.61777L84.4947 10.8773C84.4758 10.9339 84.4002 10.9339 84.3812 10.8773L83.0867 6.61777C83.0772 6.5895 83.0583 6.58008 83.03 6.58008H80.63C80.6016 6.58008 80.5732 6.60835 80.5732 6.63662V17.5117C80.5732 17.5399 80.6016 17.5682 80.63 17.5682H82.2082C82.2365 17.5682 82.2649 17.5399 82.2649 17.5117V9.247C82.2649 9.18104 82.3594 9.17166 82.3783 9.22817L83.6816 13.516L83.7762 13.8175C83.7856 13.8458 83.8045 13.8553 83.8329 13.8553H85.0423C85.0707 13.8553 85.0896 13.8364 85.0991 13.8175L85.1936 13.516L86.4976 9.22817C86.5165 9.1622 86.6111 9.18104 86.6111 9.247V17.5117C86.6111 17.5399 86.6394 17.5682 86.6678 17.5682H88.2452C88.2736 17.5682 88.302 17.5399 88.302 17.5117V6.63662C88.302 6.60835 88.2736 6.58008 88.2452 6.58008H85.8452Z"
        fill="#161616" />
    <path
        d="M65.4937 6.58008H62.5553H60.9775H58.0391C58.0108 6.58008 57.9824 6.60835 57.9824 6.63662V7.99362C57.9824 8.02191 58.0108 8.0502 58.0391 8.0502H60.9208V17.5117C60.9208 17.5399 60.9491 17.5682 60.9775 17.5682H62.5553C62.5837 17.5682 62.612 17.5399 62.612 17.5117V8.0502H65.4937C65.5221 8.0502 65.5503 8.02191 65.5503 7.99362V6.63662C65.5503 6.60835 65.5315 6.58008 65.4937 6.58008Z"
        fill="#161616" />
    <path
        d="M74.8003 17.5669H76.2359C76.2737 17.5669 76.3021 17.5292 76.2927 17.4915L73.3261 6.57871C73.3167 6.55044 73.2978 6.54102 73.2694 6.54102H72.7215H71.7578H71.2098C71.1815 6.54102 71.1625 6.55987 71.1531 6.57871L68.1864 17.4915C68.1769 17.5292 68.2053 17.5669 68.2431 17.5669H69.6792C69.7076 17.5669 69.7265 17.548 69.7359 17.5292L70.5957 14.3533C70.6051 14.3251 70.624 14.3157 70.6524 14.3157H73.8272C73.8556 14.3157 73.8745 14.3345 73.8839 14.3533L74.7436 17.5292C74.753 17.548 74.7814 17.5669 74.8003 17.5669ZM71.0303 12.7607L72.183 8.51056C72.2018 8.45406 72.2775 8.45406 72.2964 8.51056L73.449 12.7607C73.4585 12.7984 73.4301 12.8361 73.3923 12.8361H71.087C71.0492 12.8361 71.0209 12.7984 71.0303 12.7607Z"
        fill="#161616" />
    <path
        d="M99.2905 17.5669H100.726C100.764 17.5669 100.792 17.5292 100.783 17.4915L97.8163 6.57871C97.8068 6.55044 97.7879 6.54102 97.7596 6.54102H97.2119H96.2483H95.6999C95.6716 6.54102 95.6526 6.55987 95.6432 6.57871L92.6766 17.4915C92.6672 17.5292 92.6955 17.5669 92.7334 17.5669H94.1697C94.1981 17.5669 94.217 17.548 94.2265 17.5292L95.0861 14.3533C95.0955 14.3251 95.1145 14.3157 95.1428 14.3157H98.3174C98.3457 14.3157 98.3646 14.3345 98.3741 14.3533L99.2337 17.5292C99.2432 17.548 99.2621 17.5669 99.2905 17.5669ZM95.5203 12.7607L96.673 8.51056C96.6919 8.45406 96.7675 8.45406 96.7865 8.51056L97.9392 12.7607C97.9486 12.7984 97.9203 12.8361 97.8825 12.8361H95.577C95.5392 12.8361 95.5108 12.7984 95.5203 12.7607Z"
        fill="#161616" />
    <path
        d="M48.8846 15.9571V12.5834C48.8846 12.5551 48.9129 12.5269 48.9413 12.5269H53.1456C53.174 12.5269 53.2024 12.4986 53.2024 12.4703V11.1133C53.2024 11.085 53.174 11.0567 53.1456 11.0567H48.9413C48.9129 11.0567 48.8846 11.0285 48.8846 11.0002V8.11653C48.8846 8.08824 48.9129 8.05995 48.9413 8.05995H53.722C53.7504 8.05995 53.7787 8.03165 53.7787 8.00344V6.64639C53.7787 6.61812 53.7504 6.58984 53.722 6.58984H48.8846H47.2501C47.2217 6.58984 47.1934 6.61812 47.1934 6.64639V8.05995V11.0661V12.5363V16.0231V17.512C47.1934 17.5403 47.2217 17.5686 47.2501 17.5686H48.8846H53.9204C53.9488 17.5686 53.9771 17.5403 53.9771 17.512V16.0797C53.9771 16.0514 53.9488 16.0231 53.9204 16.0231H48.9318C48.9035 16.0137 48.8846 15.9948 48.8846 15.9571Z"
        fill="#161616" />
    <path
        d="M124.421 17.4743L118.96 11.8483C118.941 11.8295 118.941 11.7918 118.96 11.773L123.874 6.68408C123.912 6.64639 123.883 6.58984 123.836 6.58984H121.824C121.805 6.58984 121.795 6.59927 121.786 6.60869L117.619 10.9248C117.581 10.9625 117.525 10.9342 117.525 10.8871V6.64639C117.525 6.61812 117.496 6.58984 117.468 6.58984H115.89C115.861 6.58984 115.833 6.61812 115.833 6.64639V17.5215C115.833 17.5498 115.861 17.5781 115.89 17.5781H117.468C117.496 17.5781 117.525 17.5498 117.525 17.5215V12.7342C117.525 12.6871 117.591 12.6588 117.619 12.6965L122.343 17.5591C122.352 17.5686 122.371 17.5781 122.381 17.5781H124.393C124.431 17.5686 124.459 17.5026 124.421 17.4743Z"
        fill="#161616" />
    <path d="M23.97 0.726562L14.418 7.79442L16.1943 3.6291L23.97 0.726562Z" fill="#E17726" stroke="#E17726"
        stroke-width="0.25" stroke-linecap="round" stroke-linejoin="round" />
    <path d="M1.93652 0.726562L11.4035 7.86038L9.71235 3.62909L1.93652 0.726562Z" fill="#E27625" stroke="#E27625"
        stroke-width="0.25" stroke-linecap="round" stroke-linejoin="round" />
    <path d="M20.5308 17.1152L17.9893 20.9979L23.4314 22.4963L24.9903 17.2001L20.5308 17.1152Z" fill="#E27625"
        stroke="#E27625" stroke-width="0.25" stroke-linecap="round" stroke-linejoin="round" />
    <path d="M0.925781 17.2001L2.47526 22.4963L7.90796 20.9979L5.37584 17.1152L0.925781 17.2001Z" fill="#E27625"
        stroke="#E27625" stroke-width="0.25" stroke-linecap="round" stroke-linejoin="round" />
    <path d="M7.61519 10.5571L6.10352 12.8377L11.4889 13.0827L11.3094 7.28711L7.61519 10.5571Z" fill="#E27625"
        stroke="#E27625" stroke-width="0.25" stroke-linecap="round" stroke-linejoin="round" />
    <path d="M18.2907 10.5567L14.5398 7.2207L14.417 13.0823L19.8024 12.8373L18.2907 10.5567Z" fill="#E27625"
        stroke="#E27625" stroke-width="0.25" stroke-linecap="round" stroke-linejoin="round" />
    <path d="M7.9082 20.9984L11.1678 19.4246L8.36173 17.2383L7.9082 20.9984Z" fill="#E27625" stroke="#E27625"
        stroke-width="0.25" stroke-linecap="round" stroke-linejoin="round" />
    <path d="M14.7393 19.4246L17.9894 20.9984L17.5453 17.2383L14.7393 19.4246Z" fill="#E27625" stroke="#E27625"
        stroke-width="0.25" stroke-linecap="round" stroke-linejoin="round" />
    <path d="M17.9894 20.9976L14.7393 19.4238L15.0038 21.5347L14.9754 22.43L17.9894 20.9976Z" fill="#D5BFB2"
        stroke="#D5BFB2" stroke-width="0.25" stroke-linecap="round" stroke-linejoin="round" />
    <path d="M7.9082 20.9976L10.9316 22.43L10.9127 21.5347L11.1678 19.4238L7.9082 20.9976Z" fill="#D5BFB2"
        stroke="#D5BFB2" stroke-width="0.25" stroke-linecap="round" stroke-linejoin="round" />
    <path d="M10.9883 15.8438L8.28613 15.0522L10.1946 14.1758L10.9883 15.8438Z" fill="#233447" stroke="#233447"
        stroke-width="0.25" stroke-linecap="round" stroke-linejoin="round" />
    <path d="M14.918 15.8438L15.7116 14.1758L17.6296 15.0522L14.918 15.8438Z" fill="#233447" stroke="#233447"
        stroke-width="0.25" stroke-linecap="round" stroke-linejoin="round" />
    <path d="M7.90805 20.9979L8.38049 17.1152L5.37598 17.2001L7.90805 20.9979Z" fill="#CC6228" stroke="#CC6228"
        stroke-width="0.25" stroke-linecap="round" stroke-linejoin="round" />
    <path d="M17.5264 17.1152L17.9893 20.9979L20.5309 17.2001L17.5264 17.1152Z" fill="#CC6228" stroke="#CC6228"
        stroke-width="0.25" stroke-linecap="round" stroke-linejoin="round" />
    <path d="M19.8024 12.8359L14.417 13.081L14.9177 15.8422L15.7114 14.1741L17.6294 15.0506L19.8024 12.8359Z"
        fill="#CC6228" stroke="#CC6228" stroke-width="0.25" stroke-linecap="round" stroke-linejoin="round" />
    <path d="M8.28602 15.0506L10.1945 14.1741L10.9882 15.8422L11.4889 13.081L6.10352 12.8359L8.28602 15.0506Z"
        fill="#CC6228" stroke="#CC6228" stroke-width="0.25" stroke-linecap="round" stroke-linejoin="round" />
    <path d="M6.10352 12.8359L8.36163 17.2369L8.286 15.0506L6.10352 12.8359Z" fill="#E27525" stroke="#E27525"
        stroke-width="0.25" stroke-linecap="round" stroke-linejoin="round" />
    <path d="M17.6299 15.0506L17.5449 17.2369L19.803 12.8359L17.6299 15.0506Z" fill="#E27525" stroke="#E27525"
        stroke-width="0.25" stroke-linecap="round" stroke-linejoin="round" />
    <path d="M11.4891 13.082L10.9883 15.8433L11.6213 19.1038L11.763 14.8066L11.4891 13.082Z" fill="#E27525"
        stroke="#E27525" stroke-width="0.25" stroke-linecap="round" stroke-linejoin="round" />
    <path d="M14.4179 13.082L14.1533 14.7972L14.2856 19.1038L14.9186 15.8433L14.4179 13.082Z" fill="#E27525"
        stroke="#E27525" stroke-width="0.25" stroke-linecap="round" stroke-linejoin="round" />
    <path d="M14.9182 15.8424L14.2852 19.103L14.7387 19.4234L17.5448 17.2371L17.6298 15.0508L14.9182 15.8424Z"
        fill="#F5841F" stroke="#F5841F" stroke-width="0.25" stroke-linecap="round" stroke-linejoin="round" />
    <path d="M8.28613 15.0508L8.36177 17.2371L11.1678 19.4234L11.6213 19.103L10.9883 15.8424L8.28613 15.0508Z"
        fill="#F5841F" stroke="#F5841F" stroke-width="0.25" stroke-linecap="round" stroke-linejoin="round" />
    <path
        d="M14.9754 22.4305L15.0037 21.5352L14.7581 21.3279H11.1489L10.9127 21.5352L10.9316 22.4305L7.9082 20.998L8.96639 21.865L11.1111 23.3446H14.7864L16.9406 21.865L17.9893 20.998L14.9754 22.4305Z"
        fill="#C0AC9D" stroke="#C0AC9D" stroke-width="0.25" stroke-linecap="round" stroke-linejoin="round" />
    <path
        d="M14.7386 19.4239L14.2851 19.1035H11.6207L11.1672 19.4239L10.9121 21.5349L11.1483 21.3275H14.7575L15.0032 21.5349L14.7386 19.4239Z"
        fill="#161616" stroke="#161616" stroke-width="0.25" stroke-linecap="round" stroke-linejoin="round" />
    <path
        d="M24.3763 8.25616L25.1794 4.35473L23.97 0.726562L14.7393 7.55885L18.2917 10.5556L23.3086 12.0163L24.4141 10.7253L23.9323 10.3765L24.6975 9.67922L24.1118 9.22685L24.8771 8.64256L24.3763 8.25616Z"
        fill="#763E1A" stroke="#763E1A" stroke-width="0.25" stroke-linecap="round" stroke-linejoin="round" />
    <path
        d="M0.727539 4.35473L1.54008 8.25616L1.02043 8.64256L1.79518 9.22685L1.20939 9.67922L1.97469 10.3765L1.49283 10.7253L2.59827 12.0163L7.61525 10.5556L11.1677 7.55885L1.9369 0.726562L0.727539 4.35473Z"
        fill="#763E1A" stroke="#763E1A" stroke-width="0.25" stroke-linecap="round" stroke-linejoin="round" />
    <path d="M23.3083 12.0173L18.2913 10.5566L19.803 12.8372L17.5449 17.2381L20.5305 17.2004H24.99L23.3083 12.0173Z"
        fill="#F5841F" stroke="#F5841F" stroke-width="0.25" stroke-linecap="round" stroke-linejoin="round" />
    <path d="M7.61501 10.5566L2.59809 12.0173L0.925781 17.2004H5.37584L8.36141 17.2381L6.10335 12.8372L7.61501 10.5566Z"
        fill="#F5841F" stroke="#F5841F" stroke-width="0.25" stroke-linecap="round" stroke-linejoin="round" />
    <path
        d="M14.4171 13.081L14.7383 7.5586L16.1933 3.62891H9.71191L11.1669 7.5586L11.4881 13.081L11.611 14.815L11.6204 19.1028H14.2848L14.2942 14.815L14.4171 13.081Z"
        fill="#F5841F" stroke="#F5841F" stroke-width="0.25" stroke-linecap="round" stroke-linejoin="round" />
</svg>