<svg viewBox="0 0 226 176" fill="none" xmlns="http://www.w3.org/2000/svg">
    <g id="Frame 117" clip-path="url(#clip0_136_26399)">
        <path id="Vector" d="M114.386 0L95.499 27.8747H106.27V72.0618H123.344V27.8747H134.451L114.386 0Z"
            fill="#E6E6E6" />
        <path id="Vector_2" opacity="0.36"
            d="M169.533 48.6624L158.854 64.4326H164.943V89.4281H174.605V64.4326H180.885L169.533 48.6624Z"
            fill="#E6E6E6" />
        <path id="Vector_3" opacity="0.36"
            d="M59.6833 29.822L46.9465 48.6088H54.2061V78.4003H65.7189V48.6088H73.208L59.6833 29.822Z" fill="#E6E6E6" />
        <path id="Vector_4" opacity="0.45"
            d="M116.391 176C170.05 176 213.55 171.576 213.55 166.118C213.55 160.66 170.05 156.236 116.391 156.236C62.7313 156.236 19.2317 160.66 19.2317 166.118C19.2317 171.576 62.7313 176 116.391 176Z"
            fill="#E6E6E6" />
        <path id="Vector_5"
            d="M141.413 146.132V152.203C141.413 154.953 149.063 157.167 158.556 157.152C168.049 157.137 175.691 154.861 175.691 152.142V146.079L141.413 146.132Z"
            fill="#FFD200" />
        <path id="Vector_6"
            d="M141.42 153.448V159.512C141.42 162.261 149.07 164.476 158.563 164.461C168.057 164.445 175.699 162.17 175.691 159.451V153.387L141.42 153.448Z"
            fill="#FFD200" />
        <path id="Vector_7" opacity="0.08"
            d="M141.42 153.448V159.512C141.42 162.261 149.07 164.476 158.563 164.461C168.057 164.445 175.699 162.17 175.691 159.451V153.387L141.42 153.448Z"
            fill="black" />
        <path id="Vector_8"
            d="M158.751 158.133C168.13 158.117 175.729 155.895 175.724 153.17C175.72 150.445 168.112 148.25 158.733 148.266C149.354 148.283 141.755 150.505 141.76 153.229C141.764 155.954 149.371 158.15 158.751 158.133Z"
            fill="#FFD200" />
        <path id="Vector_9" opacity="0.08"
            d="M141.413 146.132V152.203C141.413 154.953 149.063 157.167 158.556 157.152C168.049 157.137 175.691 154.861 175.691 152.142V146.079L141.413 146.132Z"
            fill="black" />
        <path id="Vector_10"
            d="M142.645 138.885V144.948C142.645 147.698 150.294 149.912 159.795 149.897C169.296 149.882 176.931 147.644 176.923 144.895V138.785L142.645 138.885Z"
            fill="#FFD200" />
        <path id="Vector_11"
            d="M141.375 131.576V137.64C141.375 140.389 149.024 142.604 158.518 142.588C168.011 142.573 175.653 140.336 175.645 137.586V131.477L141.375 131.576Z"
            fill="#FFD200" />
        <path id="Vector_12"
            d="M158.738 150.893C168.117 150.877 175.716 148.655 175.712 145.93C175.707 143.206 168.1 141.01 158.721 141.027C149.342 141.043 141.742 143.265 141.747 145.99C141.752 148.714 149.359 150.91 158.738 150.893Z"
            fill="#FFD200" />
        <path id="Vector_13" opacity="0.08"
            d="M142.645 138.885V144.948C142.645 147.698 150.294 149.912 159.795 149.897C169.296 149.882 176.931 147.644 176.923 144.895V138.785L142.645 138.885Z"
            fill="black" />
        <path id="Vector_14"
            d="M159.957 143.705C169.336 143.689 176.935 141.467 176.931 138.742C176.926 136.017 169.319 133.822 159.94 133.838C150.561 133.854 142.961 136.076 142.966 138.801C142.971 141.526 150.578 143.721 159.957 143.705Z"
            fill="#FFD200" />
        <path id="Vector_15" opacity="0.08"
            d="M141.375 131.576V137.64C141.375 140.389 149.024 142.604 158.518 142.588C168.011 142.573 175.653 140.336 175.645 137.586V131.477L141.375 131.576Z"
            fill="black" />
        <path id="Vector_16"
            d="M158.552 136.468C168.02 136.451 175.691 134.229 175.686 131.504C175.682 128.78 168.003 126.584 158.535 126.601C149.067 126.617 141.396 128.84 141.4 131.564C141.405 134.289 149.084 136.484 158.552 136.468Z"
            fill="#FFD200" />
        <path id="Vector_17"
            d="M89.012 81.753C89.012 81.753 75.7398 102.777 71.2035 125.91C66.6672 149.042 72.5957 165.736 112.42 166.118C152.245 166.5 163.069 151.035 157.477 128.949C151.885 106.863 122.196 78.4768 122.196 78.4768L89.012 81.753Z"
            fill="#24285B" />
        <path id="Vector_18"
            d="M89.0124 81.753C89.0124 81.753 69.6892 67.4567 75.7402 58.6208C81.7911 49.7849 94.6044 53.0458 101.589 50.2202C108.573 47.3945 145.138 44.3703 122.197 78.4767L89.0124 81.753Z"
            fill="#24285B" />
        <path id="Vector_19" d="M87.3828 81.753C87.3828 81.753 107.876 77.8735 125.111 78.4768" stroke="#FFD200"
            stroke-width="3" stroke-linecap="round" stroke-linejoin="round" />
        <path id="Vector_20"
            d="M123.245 78.4158C123.245 78.4158 133.495 54.9018 145.834 67.2201C158.173 79.5384 124.063 78.4769 124.063 78.4769C124.063 78.4769 156.896 89.0769 140.128 101.166C123.359 113.255 123.245 78.4158 123.245 78.4158Z"
            stroke="#FFD200" stroke-width="3" stroke-linecap="round" stroke-linejoin="round" />
        <path id="Vector_21"
            d="M120.231 149.951C131.274 149.951 140.227 141.013 140.227 129.988C140.227 118.963 131.274 110.025 120.231 110.025C109.187 110.025 100.234 118.963 100.234 129.988C100.234 141.013 109.187 149.951 120.231 149.951Z"
            fill="#E753FF" />
        <path id="Vector_22"
            d="M119.374 118.189C120.017 118.089 120.246 118.288 120.338 118.952L120.545 120.319C123.168 120.319 124.836 121.366 126.259 123.435C126.695 124.054 126.603 124.436 125.899 124.886L124.622 125.688C124.025 126.085 123.696 125.994 123.237 125.375C122.848 124.724 122.259 124.215 121.558 123.924C120.857 123.632 120.081 123.573 119.344 123.756C116.964 124.107 115.978 124.963 116.215 126.551C116.368 127.582 117.416 128.078 118.418 128.14C119.103 128.183 119.79 128.183 120.476 128.14C121.753 128.015 123.041 128.074 124.301 128.315C124.929 128.424 125.532 128.644 126.083 128.964C126.654 129.412 127.13 129.969 127.483 130.602C127.836 131.236 128.06 131.933 128.141 132.653C128.584 135.708 126.856 138.06 123.329 139.121L123.543 140.572C123.635 141.214 123.474 141.466 122.832 141.558L121.302 141.787C120.659 141.878 120.407 141.687 120.307 141.023L120.101 139.603C118.831 139.712 117.558 139.442 116.442 138.828C115.327 138.213 114.42 137.281 113.836 136.151C113.758 136.035 113.707 135.903 113.688 135.765C113.669 135.627 113.681 135.486 113.725 135.353C113.768 135.221 113.842 135.1 113.939 135C114.036 134.9 114.156 134.823 114.287 134.776L115.588 134.073C116.245 133.722 116.582 133.844 116.987 134.493C117.837 135.967 119.206 136.563 121.111 136.28C123.681 135.899 124.844 134.906 124.599 133.226C124.56 132.847 124.396 132.491 124.133 132.215C123.87 131.939 123.523 131.757 123.145 131.698C122.209 131.514 121.249 131.473 120.3 131.576C119.006 131.689 117.703 131.601 116.437 131.316C115.815 131.196 115.219 130.966 114.677 130.637C114.103 130.217 113.623 129.682 113.268 129.067C112.912 128.451 112.689 127.769 112.612 127.063C112.16 124.054 113.767 121.763 117.27 120.762L117.072 119.395C116.972 118.754 117.163 118.502 117.837 118.402L119.374 118.189Z"
            fill="white" />
        <path id="Vector_23"
            d="M75.7398 58.2161C75.7398 58.2161 71.3183 65.2497 79.4652 66.8763C87.6122 68.503 94.9559 61.4771 101.359 63.6536C107.762 65.8301 126.542 70.3588 129.663 61.5305C132.784 52.7023 121.485 47.5244 113.713 48.0438C105.941 48.5631 78.5167 49.7773 75.7398 58.2161Z"
            fill="#E753FF" />
        <path id="Vector_24" d="M19.6139 61.4695L0 90.4133H11.1839V136.303H28.9159V90.4133H40.4517L19.6139 61.4695Z"
            fill="#E6E6E6" />
        <path id="Vector_25" d="M210 75.926L195.435 97.4163H203.742V131.484H216.908V97.4163H225.468L210 75.926Z"
            fill="#E6E6E6" />
        <path id="Vector_26"
            d="M51.8728 147.071V153.861C51.8728 156.915 60.4711 159.413 71.0659 159.397C81.6608 159.382 90.2438 156.87 90.2361 153.792V147.003L51.8728 147.071Z"
            fill="#FFD200" />
        <path id="Vector_27"
            d="M51.8728 155.212V162.002C51.8728 165.056 60.4711 167.561 71.0659 167.538C81.6608 167.515 90.2438 165.018 90.2361 161.94V155.151L51.8728 155.212Z"
            fill="#FFD200" />
        <path id="Vector_28" opacity="0.08"
            d="M51.8728 155.212V162.002C51.8728 165.056 60.4711 167.561 71.0659 167.538C81.6608 167.515 90.2438 165.018 90.2361 161.94V155.151L51.8728 155.212Z"
            fill="black" />
        <path id="Vector_29"
            d="M71.2954 160.47C81.7941 160.451 90.3006 157.965 90.2953 154.915C90.2899 151.866 81.7748 149.409 71.2761 149.427C60.7774 149.445 52.2709 151.932 52.2763 154.981C52.2816 158.031 60.7968 160.488 71.2954 160.47Z"
            fill="#FFD200" />
        <path id="Vector_30" opacity="0.08"
            d="M51.8728 147.071V153.861C51.8728 156.915 60.4711 159.413 71.0659 159.397C81.6608 159.382 90.2438 156.87 90.2361 153.792V147.003L51.8728 147.071Z"
            fill="black" />
        <path id="Vector_31"
            d="M53.2651 138.915V145.704C53.2651 148.759 61.8634 151.264 72.4583 151.241C83.0531 151.218 91.6361 148.721 91.6284 145.643V138.854L53.2651 138.915Z"
            fill="#FFD200" />
        <path id="Vector_32"
            d="M51.8728 130.736V137.525C51.8728 140.58 60.4711 143.085 71.0583 143.062C81.6455 143.039 90.2361 140.534 90.2361 137.464V130.667L51.8728 130.736Z"
            fill="#FFD200" />
        <path id="Vector_33"
            d="M71.2813 152.367C81.7799 152.349 90.2864 149.862 90.2811 146.812C90.2758 143.763 81.7606 141.306 71.2619 141.324C60.7633 141.342 52.2568 143.829 52.2621 146.879C52.2674 149.928 60.7826 152.385 71.2813 152.367Z"
            fill="#FFD200" />
        <path id="Vector_34" opacity="0.08"
            d="M53.2651 138.915V145.704C53.2651 148.759 61.8634 151.264 72.4583 151.241C83.0531 151.218 91.6361 148.721 91.6284 145.643V138.854L53.2651 138.915Z"
            fill="black" />
        <path id="Vector_35"
            d="M72.6443 144.323C83.143 144.305 91.6495 141.818 91.6441 138.768C91.6388 135.719 83.1237 133.262 72.625 133.28C62.1263 133.298 53.6198 135.785 53.6251 138.835C53.6305 141.884 62.1456 144.341 72.6443 144.323Z"
            fill="#FFD200" />
        <path id="Vector_36" opacity="0.08"
            d="M51.8728 130.736V137.525C51.8728 140.58 60.4711 143.085 71.0583 143.062C81.6455 143.039 90.2361 140.534 90.2361 137.464V130.667L51.8728 130.736Z"
            fill="black" />
        <path id="Vector_37" opacity="0.08"
            d="M52.615 168.806C60.4774 168.806 66.8511 162.443 66.8511 154.594C66.8511 146.745 60.4774 140.381 52.615 140.381C44.7526 140.381 38.3789 146.745 38.3789 154.594C38.3789 162.443 44.7526 168.806 52.615 168.806Z"
            fill="black" />
        <path id="Vector_38" opacity="0.08"
            d="M62.0928 140.359C62.0928 140.359 76.9945 144.903 74.6001 167.447C74.6001 167.447 64.885 167.767 60.2722 166.584C56.149 165.53 62.0928 140.359 62.0928 140.359Z"
            fill="black" />
        <path id="Vector_39"
            d="M71.0698 136.223C81.6656 136.205 90.2509 133.718 90.2455 130.668C90.2402 127.619 81.6463 125.162 71.0505 125.18C60.4546 125.199 51.8693 127.686 51.8746 130.735C51.88 133.784 60.4739 136.241 71.0698 136.223Z"
            fill="#FFD200" />
        <path id="Vector_40"
            d="M52.615 168.806C60.4774 168.806 66.8511 162.443 66.8511 154.594C66.8511 146.745 60.4774 140.381 52.615 140.381C44.7526 140.381 38.3789 146.745 38.3789 154.594C38.3789 162.443 44.7526 168.806 52.615 168.806Z"
            fill="#FFD200" />
        <path id="Vector_41" opacity="0.08"
            d="M52.615 168.806C60.4774 168.806 66.8511 162.443 66.8511 154.594C66.8511 146.745 60.4774 140.381 52.615 140.381C44.7526 140.381 38.3789 146.745 38.3789 154.594C38.3789 162.443 44.7526 168.806 52.615 168.806Z"
            fill="black" />
        <g id="Group" opacity="0.08">
            <path id="Vector_42"
                d="M51.9185 164.529C59.7809 164.529 66.1546 158.166 66.1546 150.317C66.1546 142.468 59.7809 136.105 51.9185 136.105C44.0561 136.105 37.6824 142.468 37.6824 150.317C37.6824 158.166 44.0561 164.529 51.9185 164.529Z"
                fill="black" />
        </g>
        <path id="Vector_43"
            d="M51.9185 164.529C59.7809 164.529 66.1546 158.166 66.1546 150.317C66.1546 142.468 59.7809 136.105 51.9185 136.105C44.0561 136.105 37.6824 142.468 37.6824 150.317C37.6824 158.166 44.0561 164.529 51.9185 164.529Z"
            fill="#FFD200" />
        <path id="Vector_44"
            d="M52.5079 142.848C52.9133 142.848 53.0357 142.986 53.0357 143.39V144.246C53.743 144.32 54.4167 144.585 54.9842 145.013C55.5517 145.441 55.9915 146.015 56.2562 146.674C56.4704 147.094 56.3786 147.323 55.912 147.53L55.0476 147.919C54.6498 148.11 54.4586 148.018 54.2291 147.598C54.0482 147.165 53.733 146.8 53.3297 146.559C52.9264 146.317 52.4561 146.21 51.9877 146.254C50.4578 146.254 49.8152 146.69 49.8152 147.69C49.8152 148.332 50.4119 148.736 51.0238 148.859C51.4402 148.948 51.8617 149.012 52.286 149.049C53.0688 149.093 53.8414 149.248 54.5809 149.508C54.958 149.625 55.3087 149.814 55.6137 150.065C55.9245 150.391 56.1671 150.776 56.3273 151.197C56.4875 151.618 56.5622 152.067 56.5469 152.517C56.5469 154.418 55.2618 155.709 53.0051 156.045V156.954C53.0051 157.358 52.8827 157.496 52.4773 157.496H51.5211C51.1156 157.496 50.9779 157.358 50.9779 156.954V156.06C50.1929 156.009 49.4407 155.726 48.8169 155.248C48.1931 154.769 47.7258 154.116 47.4744 153.372C47.4365 153.294 47.417 153.208 47.4172 153.121C47.4175 153.034 47.4376 152.948 47.4759 152.87C47.5142 152.793 47.5698 152.724 47.6384 152.671C47.7071 152.617 47.787 152.58 47.8721 152.562L48.7366 152.249C49.1726 152.097 49.3638 152.196 49.5551 152.639C49.7338 153.108 50.0619 153.506 50.4889 153.77C50.916 154.035 51.4184 154.153 51.9188 154.105C53.5329 154.105 54.3362 153.601 54.3362 152.578C54.3492 152.338 54.2806 152.102 54.1417 151.906C54.0028 151.711 53.8017 151.568 53.5712 151.501C53.0131 151.3 52.4274 151.187 51.8347 151.165C51.0304 151.12 50.238 150.95 49.4862 150.661C49.1174 150.53 48.7753 150.333 48.4765 150.08C48.1626 149.771 47.9162 149.401 47.7529 148.992C47.5897 148.583 47.5131 148.145 47.5279 147.705C47.5279 145.819 48.7213 144.559 50.9626 144.261V143.406C50.9626 143.001 51.1003 142.864 51.5058 142.864L52.5079 142.848Z"
            fill="white" />
    </g>
    <defs>
        <clipPath id="clip0_136_26399">
            <rect width="225.468" height="176" fill="white" />
        </clipPath>
    </defs>
</svg>