<svg viewBox="0 0 235 176" fill="none" xmlns="http://www.w3.org/2000/svg">
    <g id="marketing-6 1">
        <path id="Vector" opacity="0.24"
            d="M115.814 157.854C159.866 157.854 195.577 131.94 195.577 99.9738C195.577 68.0073 159.866 42.0933 115.814 42.0933C71.762 42.0933 36.0508 68.0073 36.0508 99.9738C36.0508 131.94 71.762 157.854 115.814 157.854Z"
            fill="#7CAFEA" />
        <path id="Vector_2"
            d="M165.798 44.9327L158.136 50.1013L116.729 29.1279L79.1236 103.382L66.5103 111.889L69.4729 122.437L121.499 148.79L168.755 55.481L165.798 44.9327Z"
            fill="#7CAFEA" />
        <path id="Vector_3" d="M165.796 44.9254L113.768 18.5754L66.5121 111.882L118.541 138.232L165.796 44.9254Z"
            fill="#C9C9C9" />
        <path id="Vector_4" d="M155.752 53.2017L112.689 31.3923L79.4315 97.06L122.495 118.869L155.752 53.2017Z"
            fill="white" />
        <path id="Vector_5" opacity="0.56"
            d="M97.0344 122.255C100.187 122.255 102.743 119.7 102.743 116.547C102.743 113.395 100.187 110.839 97.0344 110.839C93.8818 110.839 91.3262 113.395 91.3262 116.547C91.3262 119.7 93.8818 122.255 97.0344 122.255Z"
            fill="white" />
        <path id="Vector_6" opacity="0.12"
            d="M148.125 40.556L133.539 33.1687L132.462 35.2936L147.049 42.6809L148.125 40.556Z" fill="black" />
        <path id="Vector_7"
            d="M127.594 34.4549C129.065 34.4549 130.258 33.2624 130.258 31.7914C130.258 30.3204 129.065 29.1279 127.594 29.1279C126.123 29.1279 124.931 30.3204 124.931 31.7914C124.931 33.2624 126.123 34.4549 127.594 34.4549Z"
            fill="white" />
        <path id="Vector_8" opacity="0.05"
            d="M98.6479 59.1124L153.806 57.0415L135.813 92.8282L82.1802 91.6255L98.6479 59.1124Z" fill="black" />
        <path id="Vector_9" d="M168.725 57.9906L145.083 46.3215L136.151 64.4185L159.793 76.0876L168.725 57.9906Z"
            fill="#0C1934" />
        <path id="Vector_10" d="M159.86 60.0197L148.865 54.5928L145.019 62.3839L156.014 67.8108L159.86 60.0197Z"
            fill="#2B5CB7" />
        <path id="Vector_11" d="M151.782 58.1504L149.793 62.1808L155.208 62.2629L151.782 58.1504Z" fill="white" />
        <path id="Vector_12" d="M106.986 68.9631L80.6187 55.949L70.6581 76.1292L97.025 89.1433L106.986 68.9631Z"
            fill="#0C1934" />
        <path id="Vector_13"
            d="M87.5072 70.3589C87.5072 70.3589 91.2736 72.3653 93.6496 69.6667C93.7902 69.5078 93.9713 69.3901 94.1734 69.3259C94.3756 69.2618 94.5914 69.2537 94.7979 69.3024C95.0043 69.3512 95.1937 69.455 95.3458 69.6028C95.498 69.7506 95.6072 69.9369 95.6619 70.1418C95.7222 70.5099 95.7008 70.8866 95.5995 71.2455C95.4981 71.6043 95.3191 71.9366 95.0752 72.2186C93.3152 74.6826 94.5238 73.9435 95.6619 75.5451C96.8 77.1467 91.8016 80.5141 89.4608 79.1179C87.12 77.7216 88.3638 75.457 85.2251 74.9408L87.5072 70.3589Z"
            fill="white" />
        <path id="Vector_14" d="M88.994 70.0008L83.3071 67.1938L80.2743 73.3384L85.9612 76.1453L88.994 70.0008Z"
            fill="#2B5CB7" />
        <path id="Vector_15" d="M122.112 34.7394L97.2441 22.4653L87.8471 41.504L112.715 53.7781L122.112 34.7394Z"
            fill="#0C1934" />
        <path id="Vector_16" d="M112.089 36.8323L101.678 31.6936L97.869 39.4111L108.28 44.5498L112.089 36.8323Z"
            fill="white" />
        <path id="Vector_17" d="M101.675 31.6975L104.116 39.8756L112.089 36.8308L101.675 31.6975Z" fill="#F2AEB4" />
        <path id="Vector_18" d="M152.849 97.7341L127.292 85.1199L117.638 104.679L143.195 117.294L152.849 97.7341Z"
            fill="#0C1934" />
        <path id="Vector_19"
            d="M139.732 98.0085C139.172 97.7331 138.535 97.6545 137.925 97.7855C137.407 97.8965 136.917 98.1143 136.488 98.425C136.469 97.895 136.343 97.3742 136.118 96.8938C135.852 96.3287 135.401 95.8714 134.839 95.5973C134.453 95.4161 134.035 95.3148 133.609 95.2994C133.183 95.284 132.759 95.3549 132.361 95.5078C131.963 95.6607 131.6 95.8924 131.294 96.1891C130.988 96.4857 130.745 96.8412 130.58 97.2341C129.665 99.0879 130.527 101.088 131.83 104.116C132.053 104.632 132.305 105.219 132.563 105.835C132.595 105.914 132.656 105.979 132.733 106.016C132.816 106.049 132.908 106.049 132.991 106.016C133.637 105.84 134.253 105.688 134.792 105.553C137.99 104.743 140.108 104.21 141.017 102.356C141.225 101.987 141.356 101.581 141.404 101.161C141.452 100.741 141.415 100.316 141.295 99.9101C141.175 99.5046 140.975 99.1273 140.706 98.8007C140.438 98.474 140.107 98.2046 139.732 98.0085Z"
            fill="#F2AEB4" />
    </g>
</svg>