<svg viewBox="0 0 235 176" fill="none" xmlns="http://www.w3.org/2000/svg">
    <g id="completed-task-d 1">
        <path id="Vector"
            d="M74.9055 96.1488C74.9055 96.1488 73.4447 71.0102 86.1519 67.5312C98.8591 64.0523 115.843 99.5456 86.0522 112.071L74.9055 96.1488Z"
            fill="#F4A28C" />
        <path id="Vector_2" opacity="0.1"
            d="M74.9055 96.1488C74.9055 96.1488 73.4447 71.0102 86.1519 67.5312C98.8591 64.0523 115.843 99.5456 86.0522 112.071L74.9055 96.1488Z"
            fill="black" />
        <path id="Vector_3" d="M160.025 23.3977L83.5012 32.2112L94.066 123.94L170.589 115.127L160.025 23.3977Z"
            fill="#BABABA" />
        <path id="Vector_4" d="M157.324 21.0897L82.957 29.6548L93.5218 121.384L167.889 112.819L157.324 21.0897Z"
            fill="#CCCCCC" />
        <path id="Vector_5" opacity="0.3"
            d="M117.732 153.091C159.306 153.091 193.007 125.343 193.007 91.1151C193.007 56.887 159.306 29.1396 117.732 29.1396C76.1589 29.1396 42.457 56.887 42.457 91.1151C42.457 125.343 76.1589 153.091 117.732 153.091Z"
            fill="#E6E6E6" />
        <path id="Vector_6" d="M154.329 18.9469L79.9619 27.512L90.5267 119.241L164.894 110.676L154.329 18.9469Z"
            fill="#E6E6E6" />
        <path id="Vector_7" d="M113.97 31.2847L89.0083 34.1597L92.3363 63.0556L117.298 60.1806L113.97 31.2847Z"
            fill="white" />
        <path id="Vector_8"
            d="M91.7605 58.0096C91.7605 58.0096 92.529 51.6912 98.3546 49.28C104.18 46.8688 112.476 46.4053 116.717 55.1467L117.304 60.1861L92.3472 63.0608L91.7605 58.0096Z"
            fill="#CA86F8" />
        <path id="Vector_9" d="M101.458 40.2571L100.901 48.3707L105.958 50.7115L103.998 42.4571L101.458 40.2571Z"
            fill="#F4A28C" />
        <path id="Vector_10" opacity="0.31"
            d="M104.356 43.736C103.789 43.6457 103.261 43.3907 102.837 43.0027C103.111 44.1474 103.809 45.1454 104.791 45.7952L104.356 43.736Z"
            fill="#CE8172" />
        <path id="Vector_11"
            d="M105.013 39.3067C105.436 40.6195 105.68 41.9829 105.741 43.3606C105.734 43.5255 105.695 43.6875 105.625 43.837C105.555 43.9865 105.456 44.1206 105.333 44.2314C105.211 44.3423 105.068 44.4277 104.912 44.4826C104.757 44.5376 104.592 44.561 104.427 44.5515C103.897 44.5682 103.374 44.4321 102.919 44.1596C102.465 43.8871 102.098 43.4896 101.863 43.0145L100.678 41.0667C100.476 40.6518 100.408 40.1844 100.484 39.7292C100.56 39.2741 100.775 38.8537 101.1 38.5265C102.238 37.2299 104.609 37.8107 105.013 39.3067Z"
            fill="#F4A28C" />
        <path id="Vector_12"
            d="M105.406 40.7852L106.292 41.5654C106.346 41.6087 106.388 41.6655 106.413 41.7301C106.439 41.7948 106.446 41.8649 106.435 41.9334C106.425 42.0019 106.396 42.0664 106.352 42.1203C106.309 42.1741 106.251 42.2155 106.187 42.2401L105.301 42.6273L105.406 40.7852Z"
            fill="#F4A28C" />
        <path id="Vector_13"
            d="M101.047 43.6127L99.8329 40.4799C99.8329 40.4799 97.9263 40.3685 98.3487 39.0837C98.7711 37.7989 99.6159 38.497 99.4868 37.1183C99.3577 35.7397 100.467 35.2997 101.364 35.9978C102.262 36.6959 101.763 35.6399 102.755 35.3759C103.746 35.1119 104.063 35.5343 104.168 36.297C104.274 37.0597 105.641 36.0858 106.122 37.0127C106.603 37.9397 106.773 38.8549 104.274 39.3066C101.775 39.7583 103.84 41.5887 101.047 43.6127Z"
            fill="#CA86F8" />
        <path id="Vector_14"
            d="M102.907 41.9349C102.907 41.9349 102.678 41.008 101.992 41.2427C101.306 41.4773 101.64 42.8149 102.62 42.7269L102.907 41.9349Z"
            fill="#F4A28C" />
        <path id="Vector_15" opacity="0.08"
            d="M91.7605 58.0095C91.7605 58.0095 94.6 62.5444 100.56 59.3001C106.521 56.0559 113.191 54.3428 117.052 58.1268L117.286 60.1567L92.3296 63.0313L91.7605 58.0095Z"
            fill="black" />
        <path id="Vector_16" d="M138.167 29.3701L119.726 31.4939L120.22 35.7834L138.661 33.6596L138.167 29.3701Z"
            fill="#BABABA" />
        <path id="Vector_17" opacity="0.5"
            d="M139.126 37.7067L120.686 39.8306L121.18 44.1201L139.62 41.9963L139.126 37.7067Z" fill="#BABABA" />
        <path id="Vector_18" opacity="0.11"
            d="M117.919 65.5365L101.513 67.426L102.007 71.7155L118.413 69.826L117.919 65.5365Z" fill="#BABABA" />
        <path id="Vector_19" opacity="0.11"
            d="M119.37 78.1993L102.964 80.0889L103.458 84.3784L119.864 82.4888L119.37 78.1993Z" fill="#BABABA" />
        <path id="Vector_20" opacity="0.11"
            d="M149.515 61.8922L133.109 63.7817L133.603 68.0712L150.009 66.1817L149.515 61.8922Z" fill="#BABABA" />
        <path id="Vector_21" opacity="0.11"
            d="M150.972 74.5609L134.566 76.4504L135.06 80.74L151.466 78.8504L150.972 74.5609Z" fill="#BABABA" />
        <path id="Vector_22" opacity="0.36"
            d="M149.802 44.9257L121.646 48.1685L122.955 59.5275L151.11 56.2847L149.802 44.9257Z" fill="white" />
        <path id="Vector_23" opacity="0.36"
            d="M154.551 86.1604L95.8674 92.9192L97.7509 109.273L156.434 102.514L154.551 86.1604Z" fill="white" />
        <path id="Vector_24" d="M98.7682 66.9235L92.8643 67.6035L93.5442 73.5074L99.4481 72.8274L98.7682 66.9235Z"
            fill="#CA86F8" />
        <path id="Vector_25" d="M129.943 63.3332L124.04 64.0132L124.72 69.9171L130.623 69.2371L129.943 63.3332Z"
            fill="#CA86F8" />
        <path id="Vector_26" d="M100.225 79.5865L94.3208 80.2665L95.0008 86.1704L100.905 85.4904L100.225 79.5865Z"
            fill="#CA86F8" />
        <path id="Vector_27" d="M131.407 75.9953L125.503 76.6753L126.183 82.5792L132.087 81.8992L131.407 75.9953Z"
            fill="white" />
        <path id="Vector_28" d="M155.788 96.6158L138.112 98.6517L138.792 104.556L156.468 102.52L155.788 96.6158Z"
            fill="#CA86F8" />
        <path id="Vector_29" opacity="0.1"
            d="M97.3867 75.6331C97.3867 75.6331 102.901 79.2528 98.8357 87.0496C94.7701 94.8464 99.3403 100.842 100.332 103.218C101.323 105.594 102.62 122.948 102.62 122.948L93.632 124.015L88.9915 105.887L90.9333 87.6187L97.3867 75.6331Z"
            fill="black" />
        <path id="Vector_30"
            d="M140.389 20.5333L140.213 19.225C140.101 18.2304 140.387 17.2317 141.01 16.4478C141.632 15.6638 142.54 15.1584 143.534 15.0421C144.026 14.9848 144.525 15.0252 145.002 15.1608C145.478 15.2965 145.924 15.5247 146.312 15.8326C146.701 16.1404 147.025 16.5218 147.266 16.9549C147.507 17.388 147.66 17.8644 147.717 18.3567L149.195 31.2165C149.238 31.5798 149.208 31.948 149.108 32.2998C149.008 32.6517 148.84 32.9804 148.612 33.267C148.385 33.5537 148.104 33.7927 147.784 33.9704C147.464 34.148 147.112 34.2608 146.749 34.3023C146.015 34.3866 145.278 34.1762 144.7 33.7176C144.121 33.2589 143.748 32.5893 143.663 31.8559L142.865 24.9333"
            stroke="#CA86F8" stroke-width="2" stroke-miterlimit="10" />
        <path id="Vector_31"
            d="M82.4444 84.6031C82.4444 84.6031 89.4844 71.8842 93.9841 71.6143C97.6801 71.3973 99.5868 78.3493 93.5558 86.2282C92.329 87.8146 91.4569 89.6458 90.9984 91.5981C90.54 93.5504 90.5058 95.5783 90.8982 97.545C91.5729 100.842 91.5553 104.99 89.0678 108.797C83.8348 116.805 77.2465 112.904 75.6566 104.444C74.0668 95.9845 73.838 93.4266 82.4444 84.6031Z"
            fill="#F4A28C" />
        <path id="Vector_32" d="M97.4746 113.168L102.807 158.464L70.9749 160.946L72.0485 114.341L97.4746 113.168Z"
            fill="#CA86F8" />
        <path id="Vector_33" d="M74.0139 114.253V107.683H96.1547V113.168L74.0139 114.253Z" fill="#CA86F8" />
        <path id="Vector_34" d="M74.0139 114.253V107.683H96.1547V113.168L74.0139 114.253Z" fill="#CA86F8" />
        <path id="Vector_35" opacity="0.1"
            d="M87.3372 107.683L88.7393 159.562L102.808 158.464L97.4748 113.168H96.1548V107.683H87.3372Z"
            fill="black" />
    </g>
</svg>