<svg viewBox="0 0 235 176" fill="none" xmlns="http://www.w3.org/2000/svg">
    <g id="completed-task-d 1">
        <path id="Vector"
            d="M74.9055 96.1488C74.9055 96.1488 73.4447 71.0102 86.1519 67.5312C98.8591 64.0523 115.843 99.5456 86.0522 112.071L74.9055 96.1488Z"
            fill="#F4A28C" />
        <path id="Vector_2" opacity="0.1"
            d="M74.9055 96.1488C74.9055 96.1488 73.4447 71.0102 86.1519 67.5312C98.8591 64.0523 115.843 99.5456 86.0522 112.071L74.9055 96.1488Z"
            fill="black" />
        <path id="Vector_3" d="M160.025 23.3977L83.5015 32.2112L94.0662 123.94L170.59 115.127L160.025 23.3977Z"
            fill="#BABABA" />
        <path id="Vector_4" d="M157.324 21.0897L82.957 29.6548L93.5218 121.384L167.889 112.819L157.324 21.0897Z"
            fill="#CCCCCC" />
        <path id="Vector_5" opacity="0.3"
            d="M117.732 153.091C159.306 153.091 193.007 125.343 193.007 91.1152C193.007 56.8871 159.306 29.1398 117.732 29.1398C76.1589 29.1398 42.457 56.8871 42.457 91.1152C42.457 125.343 76.1589 153.091 117.732 153.091Z"
            fill="#E6E6E6" />
        <path id="Vector_6" d="M154.329 18.947L79.9619 27.5121L90.5267 119.241L164.894 110.676L154.329 18.947Z"
            fill="#E6E6E6" />
        <path id="Vector_7" d="M113.97 31.2846L89.0083 34.1595L92.3363 63.0555L117.298 60.1805L113.97 31.2846Z"
            fill="white" />
        <path id="Vector_8"
            d="M91.7607 58.0096C91.7607 58.0096 92.5293 51.6912 98.3549 49.28C104.18 46.8688 112.476 46.4053 116.718 55.1467L117.304 60.1861L92.3474 63.0608L91.7607 58.0096Z"
            fill="#0BD2E2" />
        <path id="Vector_9" d="M101.458 40.2571L100.901 48.3707L105.958 50.7115L103.998 42.4571L101.458 40.2571Z"
            fill="#F4A28C" />
        <path id="Vector_10" opacity="0.31"
            d="M104.356 43.736C103.789 43.6457 103.261 43.3907 102.837 43.0027C103.111 44.1474 103.809 45.1454 104.791 45.7952L104.356 43.736Z"
            fill="#CE8172" />
        <path id="Vector_11"
            d="M105.013 39.3067C105.436 40.6195 105.68 41.9829 105.741 43.3606C105.734 43.5255 105.694 43.6875 105.624 43.837C105.554 43.9865 105.455 44.1206 105.333 44.2314C105.211 44.3423 105.068 44.4277 104.912 44.4826C104.756 44.5376 104.591 44.561 104.427 44.5515C103.897 44.5682 103.373 44.4321 102.919 44.1596C102.464 43.8871 102.098 43.4896 101.863 43.0145L100.678 41.0667C100.476 40.6518 100.408 40.1844 100.484 39.7292C100.559 39.2741 100.775 38.8537 101.1 38.5265C102.238 37.2299 104.608 37.8107 105.013 39.3067Z"
            fill="#F4A28C" />
        <path id="Vector_12"
            d="M105.406 40.785L106.292 41.5653C106.346 41.6086 106.388 41.6654 106.413 41.73C106.439 41.7947 106.446 41.8648 106.435 41.9333C106.425 42.0018 106.396 42.0663 106.352 42.1201C106.309 42.174 106.251 42.2153 106.187 42.24L105.301 42.6272L105.406 40.785Z"
            fill="#F4A28C" />
        <path id="Vector_13"
            d="M101.047 43.6129L99.8329 40.4801C99.8329 40.4801 97.9263 40.3686 98.3487 39.0838C98.7711 37.799 99.6159 38.4971 99.4868 37.1185C99.3577 35.7398 100.467 35.2998 101.364 35.9979C102.262 36.6961 101.763 35.6401 102.755 35.3761C103.746 35.1121 104.063 35.5345 104.168 36.2971C104.274 37.0598 105.641 36.0859 106.122 37.0129C106.603 37.9398 106.773 38.855 104.274 39.3067C101.775 39.7585 103.84 41.5889 101.047 43.6129Z"
            fill="#2B5CB7" />
        <path id="Vector_14"
            d="M102.907 41.9349C102.907 41.9349 102.678 41.008 101.992 41.2427C101.305 41.4773 101.64 42.8149 102.62 42.7269L102.907 41.9349Z"
            fill="#F4A28C" />
        <path id="Vector_15" opacity="0.08"
            d="M91.7607 58.0096C91.7607 58.0096 94.6002 62.5445 100.561 59.3003C106.521 56.056 113.192 54.3429 117.052 58.1269L117.287 60.1568L92.3298 63.0315L91.7607 58.0096Z"
            fill="black" />
        <path id="Vector_16" d="M138.167 29.3701L119.727 31.4939L120.221 35.7834L138.661 33.6596L138.167 29.3701Z"
            fill="#BABABA" />
        <path id="Vector_17" opacity="0.5"
            d="M139.126 37.7067L120.686 39.8306L121.18 44.1201L139.62 41.9963L139.126 37.7067Z" fill="#BABABA" />
        <path id="Vector_18" opacity="0.11"
            d="M117.919 65.5365L101.513 67.426L102.007 71.7155L118.413 69.826L117.919 65.5365Z" fill="#BABABA" />
        <path id="Vector_19" opacity="0.11"
            d="M119.37 78.1993L102.964 80.0889L103.458 84.3784L119.864 82.4888L119.37 78.1993Z" fill="#BABABA" />
        <path id="Vector_20" opacity="0.11"
            d="M149.515 61.8922L133.108 63.7817L133.602 68.0712L150.009 66.1817L149.515 61.8922Z" fill="#BABABA" />
        <path id="Vector_21" opacity="0.11"
            d="M150.972 74.561L134.566 76.4506L135.06 80.7401L151.466 78.8505L150.972 74.561Z" fill="#BABABA" />
        <path id="Vector_22" opacity="0.36"
            d="M149.802 44.9255L121.646 48.1683L122.955 59.5274L151.11 56.2846L149.802 44.9255Z" fill="white" />
        <path id="Vector_23" opacity="0.36"
            d="M154.551 86.1604L95.8677 92.9192L97.7512 109.273L156.435 102.514L154.551 86.1604Z" fill="white" />
        <path id="Vector_24" d="M98.7682 66.9235L92.8643 67.6035L93.5442 73.5074L99.4481 72.8274L98.7682 66.9235Z"
            fill="#0BD2E2" />
        <path id="Vector_25" d="M129.943 63.3332L124.04 64.0132L124.72 69.9171L130.623 69.2371L129.943 63.3332Z"
            fill="#2B5CB7" />
        <path id="Vector_26" d="M100.225 79.5865L94.3208 80.2665L95.0008 86.1704L100.905 85.4904L100.225 79.5865Z"
            fill="#0BD2E2" />
        <path id="Vector_27" d="M131.406 75.9954L125.502 76.6754L126.182 82.5793L132.086 81.8994L131.406 75.9954Z"
            fill="white" />
        <path id="Vector_28" d="M155.789 96.6158L138.112 98.6517L138.792 104.556L156.469 102.52L155.789 96.6158Z"
            fill="#0BD2E2" />
        <path id="Vector_29" opacity="0.1"
            d="M97.3869 75.6331C97.3869 75.6331 102.902 79.2528 98.836 87.0496C94.7704 94.8464 99.3405 100.842 100.332 103.218C101.323 105.594 102.62 122.948 102.62 122.948L93.6322 124.015L88.9917 105.887L90.9336 87.6187L97.3869 75.6331Z"
            fill="black" />
        <path id="Vector_30"
            d="M140.389 20.5333L140.213 19.225C140.101 18.2304 140.387 17.2317 141.01 16.4478C141.632 15.6638 142.54 15.1584 143.534 15.0421C144.026 14.9848 144.525 15.0252 145.002 15.1608C145.478 15.2965 145.924 15.5247 146.312 15.8326C146.701 16.1404 147.025 16.5218 147.266 16.9549C147.507 17.388 147.66 17.8644 147.717 18.3567L149.195 31.2165C149.238 31.5798 149.208 31.948 149.108 32.2998C149.008 32.6517 148.84 32.9804 148.612 33.267C148.385 33.5537 148.104 33.7927 147.784 33.9704C147.464 34.148 147.112 34.2608 146.749 34.3023C146.015 34.3866 145.278 34.1762 144.7 33.7176C144.121 33.2589 143.748 32.5893 143.663 31.8559L142.865 24.9333"
            stroke="#0BD2E2" stroke-width="2" stroke-miterlimit="10" />
        <path id="Vector_31"
            d="M82.4444 84.6033C82.4444 84.6033 89.4844 71.8843 93.9841 71.6144C97.6801 71.3974 99.5868 78.3494 93.5558 86.2283C92.329 87.8147 91.4569 89.6459 90.9984 91.5982C90.54 93.5505 90.5058 95.5785 90.8982 97.5451C91.5729 100.842 91.5553 104.99 89.0678 108.797C83.8348 116.805 77.2465 112.904 75.6566 104.444C74.0668 95.9846 73.838 93.4267 82.4444 84.6033Z"
            fill="#F4A28C" />
        <path id="Vector_32" d="M97.4748 113.168L102.808 158.464L70.9751 160.946L72.0487 114.341L97.4748 113.168Z"
            fill="#0BD2E2" />
        <path id="Vector_33" d="M74.0137 114.253V107.683H96.1545V113.168L74.0137 114.253Z" fill="#0BD2E2" />
        <path id="Vector_34" d="M74.0137 114.253V107.683H96.1545V113.168L74.0137 114.253Z" fill="#0BD2E2" />
        <path id="Vector_35" opacity="0.1"
            d="M87.3369 107.683L88.739 159.562L102.807 158.464L97.4745 113.168H96.1545V107.683H87.3369Z" fill="black" />
    </g>
</svg>