<svg viewBox="0 0 19 12" fill="none" xmlns="http://www.w3.org/2000/svg">
    <path
        d="M2.30597 1.5H16.694L9.49997 9.7215L2.30597 1.5ZM1.17647 2.4885L8.37047 10.7085C8.51127 10.8696 8.6849 10.9987 8.87971 11.0872C9.07452 11.1757 9.28601 11.2215 9.49997 11.2215C9.71394 11.2215 9.92542 11.1757 10.1202 11.0872C10.3151 10.9987 10.4887 10.8696 10.6295 10.7085L17.8235 2.4885C18.6725 1.518 17.9825 5.51559e-07 16.694 5.51559e-07H2.30597C2.01761 -0.000246689 1.73528 0.0826318 1.49281 0.238711C1.25033 0.394791 1.05798 0.617455 0.938801 0.88004C0.819617 1.14262 0.778648 1.434 0.820801 1.71927C0.862954 2.00454 0.986441 2.27161 1.17647 2.4885Z" />
</svg>