<svg xmlns="http://www.w3.org/2000/svg" viewBox="0 0 176 176" fill="none">
    <path
        d="M153.163 24.7812H22.8381C19.4671 24.7812 16.7344 27.514 16.7344 30.8849V122.338C16.7344 125.709 19.4671 128.442 22.8381 128.442H153.163C156.533 128.442 159.266 125.709 159.266 122.338V30.8849C159.266 27.514 156.533 24.7812 153.163 24.7812Z"
        fill="#E2E2E2" />
    <path
        d="M22.8381 23.6055H153.163C154.781 23.6055 156.334 24.2485 157.478 25.3932C158.623 26.5379 159.266 28.0904 159.266 29.7092V106.656H16.7344V29.7092C16.7344 28.0904 17.3774 26.5379 18.5221 25.3932C19.6668 24.2485 21.2193 23.6055 22.8381 23.6055Z"
        fill="#24285B" />
    <path
        d="M88.1515 120.606C89.7533 120.606 91.0519 119.307 91.0519 117.705C91.0519 116.103 89.7533 114.805 88.1515 114.805C86.5496 114.805 85.251 116.103 85.251 117.705C85.251 119.307 86.5496 120.606 88.1515 120.606Z"
        fill="#24285B" />
    <path
        d="M89.8864 120.032C90.1042 119.495 90.1567 118.906 90.037 118.339C89.9173 117.772 89.6309 117.255 89.2147 116.852C88.7984 116.449 88.2713 116.18 87.701 116.08C87.1308 115.979 86.5434 116.051 86.0144 116.286C85.8154 116.376 85.6266 116.487 85.4512 116.617C85.6183 116.201 85.8798 115.829 86.215 115.53C86.5501 115.232 86.9499 115.015 87.383 114.897C87.816 114.779 88.2705 114.763 88.7107 114.85C89.151 114.938 89.565 115.126 89.9203 115.4C90.2757 115.674 90.5626 116.027 90.7586 116.431C90.9546 116.834 91.0544 117.278 91.0501 117.727C91.0458 118.176 90.9375 118.617 90.7337 119.017C90.53 119.417 90.2363 119.764 89.8758 120.032H89.8864Z"
        fill="#13183F" />
    <path d="M106.258 128.441H70.0371L67.0908 148.467H109.204L106.258 128.441Z" fill="#E2E2E2" />
    <path d="M68.9814 135.612H107.314L106.258 128.441H70.0374L68.9814 135.612Z" fill="#C3C7C9" />
    <path
        d="M111.637 147.879H64.6586C64.2134 147.879 63.8525 148.24 63.8525 148.685V149.428C63.8525 149.873 64.2134 150.234 64.6586 150.234H111.637C112.082 150.234 112.443 149.873 112.443 149.428V148.685C112.443 148.24 112.082 147.879 111.637 147.879Z"
        fill="#C3C7C9" />
    <path d="M153.377 29.4941H22.3271V101.056H153.377V29.4941Z" fill="#F2F2F2" />
    <path
        d="M91.6677 19.8178L132.046 87.4405C133.946 90.6085 131.979 94.9769 128.635 94.9769H47.8719C44.5279 94.9769 42.5602 90.6261 44.4645 87.4405L84.8495 19.8178C86.4969 17.0581 90.0169 17.0581 91.6677 19.8178Z"
        fill="#F0457D" />
    <path
        d="M132.046 87.4405L91.6676 19.8178C90.0168 17.0581 86.4968 17.0581 84.8494 19.8178L82.0158 24.5839L116.16 81.7416C118.061 84.9272 116.093 89.278 112.749 89.278H43.7992C43.338 92.0764 45.1508 94.9769 47.8788 94.9769H128.635C131.979 94.9769 133.946 90.6261 132.046 87.4405Z"
        fill="#DB2868" />
    <path
        d="M86.0109 80.6388C85.7569 80.3877 85.5552 80.0887 85.4175 79.7591C85.2799 79.4294 85.209 79.0758 85.209 78.7186C85.209 78.3614 85.2799 78.0078 85.4175 77.6782C85.5552 77.3486 85.7569 77.0495 86.0109 76.7984C86.274 76.5438 86.5857 76.3446 86.9274 76.2128C87.269 76.0809 87.6337 76.0191 87.9997 76.0311C88.3592 76.0196 88.7172 76.0828 89.051 76.2167C89.3848 76.3506 89.6873 76.5523 89.9392 76.809C90.3131 77.1904 90.5659 77.6738 90.666 78.1984C90.7661 78.7231 90.7089 79.2656 90.5017 79.7578C90.2945 80.2501 89.9465 80.6702 89.5013 80.9653C89.0562 81.2604 88.5338 81.4175 87.9997 81.4167C87.6329 81.4272 87.2678 81.3638 86.9261 81.2301C86.5844 81.0965 86.2732 80.8954 86.0109 80.6388ZM85.5885 51.6445H90.3546L89.552 71.8458H86.3453L85.5885 51.6445Z"
        fill="white" />
</svg>