<svg viewBox="0 0 707 566" fill="none" xmlns="http://www.w3.org/2000/svg">
    <path style="mix-blend-mode:multiply"
        d="M244.394 264.774L245.866 264.416L282.804 291.943C301.679 307.149 297.904 313.752 288.165 320.054C282.502 323.733 186.447 387.049 180.785 390.672L107.588 338.77C120.8 331.166 231.219 272.698 244.394 264.774Z"
        fill="url(#paint0_linear_560_21378)" />
    <path
        d="M120.158 342.826C127.122 342.826 132.767 340.182 132.767 336.921C132.767 333.66 127.122 331.016 120.158 331.016C113.195 331.016 107.55 333.66 107.55 336.921C107.55 340.182 113.195 342.826 120.158 342.826Z"
        fill="#484887" />
    <path d="M107.569 329.393V336.92H132.767V329.393" fill="#484887" />
    <path
        d="M120.158 335.299C127.122 335.299 132.767 332.655 132.767 329.394C132.767 326.132 127.122 323.488 120.158 323.488C113.195 323.488 107.55 326.132 107.55 329.394C107.55 332.655 113.195 335.299 120.158 335.299Z"
        fill="#6969BC" />
    <path
        d="M116.893 220.571V326.734C116.893 326.734 119.668 331.507 123.461 326.734V216.967C123.461 216.967 122.857 213.873 116.893 220.571Z"
        fill="#484887" />
    <path
        d="M243.657 277.85C250.621 277.85 256.266 275.206 256.266 271.944C256.266 268.683 250.621 266.039 243.657 266.039C236.694 266.039 231.049 268.683 231.049 271.944C231.049 275.206 236.694 277.85 243.657 277.85Z"
        fill="#484887" />
    <path d="M231.068 264.416V271.944H256.266V264.416" fill="#484887" />
    <path
        d="M243.657 270.322C250.621 270.322 256.266 267.678 256.266 264.417C256.266 261.156 250.621 258.512 243.657 258.512C236.694 258.512 231.049 261.156 231.049 264.417C231.049 267.678 236.694 270.322 243.657 270.322Z"
        fill="#6969BC" />
    <path
        d="M240.373 155.594V261.757C240.373 261.757 243.148 266.53 246.942 261.757V152.01C246.942 152.01 246.338 148.897 240.373 155.594Z"
        fill="#484887" />
    <path
        d="M100.849 131.104L252.566 45.2796C253.784 44.5901 255.161 44.2318 256.561 44.2404C257.96 44.249 259.333 44.6243 260.542 45.3287C261.751 46.0332 262.754 47.0422 263.451 48.2552C264.148 49.4681 264.515 50.8426 264.514 52.2414V145.443C264.516 146.856 264.144 148.245 263.434 149.468C262.725 150.691 261.704 151.704 260.475 152.405L108.739 238.229C107.521 238.918 106.144 239.277 104.745 239.268C103.345 239.26 101.973 238.884 100.764 238.18C99.5546 237.475 98.5515 236.466 97.8544 235.253C97.1574 234.04 96.7907 232.666 96.791 231.267V138.066C96.7907 136.65 97.1662 135.26 97.8792 134.037C98.5921 132.814 99.617 131.802 100.849 131.104Z"
        fill="#0BD2E2" />
    <path
        d="M107.776 241.211L221.215 177.064L249.528 161.027C253.567 158.744 258.437 156.726 262.155 153.896C267.817 149.519 266.628 143.142 266.628 136.708V60.053C266.628 54.11 268.233 45.3747 261.777 42.1296C256.568 39.5072 251.793 43.2805 247.414 45.752L222.348 59.9398L150.623 100.484C133.975 109.918 116.648 118.634 100.472 128.784C94.9602 132.275 94.6393 136.595 94.6393 142.538V225.136C94.6393 233.268 95.0545 245.625 107.229 241.362C109.796 240.456 108.682 236.362 106.096 237.268C95.734 240.89 98.8673 218.646 98.8673 215.194V144.576C98.8673 139.331 98.3954 135.727 102.963 132.312C107.531 128.897 113.779 126.199 118.95 123.275L147.395 107.182L214.628 69.1656L241.053 54.242C244.733 52.1667 250.641 47.035 254.869 46.4312C256.478 46.3815 258.063 46.8247 259.413 47.7015C260.763 48.5783 261.812 49.8468 262.419 51.3366C263.25 53.9968 262.419 58.5436 262.419 61.2982V132.991C262.419 138.236 264.156 146.557 259.739 150.462C256.474 153.367 251.189 155.292 247.432 157.424L221.272 172.215L105.7 237.532C105.29 237.844 105.007 238.293 104.903 238.798C104.799 239.302 104.881 239.827 105.134 240.276C105.387 240.724 105.794 241.066 106.28 241.238C106.766 241.41 107.297 241.4 107.776 241.211Z"
        fill="#2E3192" />
    <path
        d="M243.657 141.746C243.657 141.746 232.465 98.9001 212.778 110.088C193.091 121.276 202.359 166.028 188.467 165.254C174.575 164.481 158.758 135.992 146.791 141.746C134.824 147.501 135.221 199.441 120.158 207.534"
        fill="white" />
    <path
        d="M242.393 85.334L226.274 134.878L196.678 115.143L184.031 157.914L161.4 146.311L142.978 182.082L118.101 162.121"
        stroke="#42210B" stroke-width="0.75" stroke-miterlimit="10" />
    <path
        d="M120.267 160.921C120.631 157.963 119.408 155.378 117.536 155.148C115.663 154.917 113.85 157.128 113.485 160.086C113.121 163.044 114.344 165.628 116.216 165.859C118.089 166.089 119.902 163.878 120.267 160.921Z"
        fill="#89562C" />
    <path
        d="M245.776 85.7527C246.14 82.795 244.917 80.2104 243.045 79.98C241.172 79.7495 239.359 81.9603 238.994 84.918C238.63 87.8757 239.853 90.4603 241.725 90.6908C243.598 90.9213 245.411 88.7104 245.776 85.7527Z"
        fill="#89562C" />
    <path
        d="M437.372 223.042L439.014 340.921C439.014 340.921 453.566 345.864 467.326 340.921L464.608 229.287L472.63 366.429C476.539 368.056 480.731 368.893 484.965 368.893C489.199 368.893 493.391 368.056 497.3 366.429L494.733 212.948L431.483 184.648L437.372 223.042Z"
        fill="#484887" />
    <path
        d="M472.422 106.503C472.422 106.503 461.55 100.485 451.547 103.409C441.543 106.333 441.128 150.576 440.977 153.443C440.826 156.311 442.034 192.912 442.034 192.912L457.681 198.931L472.422 106.503Z"
        fill="white" />
    <path
        d="M427.141 178.29C417.458 179.026 399.622 150.631 399.622 150.631C409.588 145.405 409.984 133.953 409.984 133.953L434.352 156.367"
        fill="#DBDBDB" />
    <path
        d="M399.622 150.632C399.622 150.632 394.997 149.651 398.584 141.048C402.17 132.444 407.36 131.614 409.909 133.954C412.457 136.293 408.474 151.292 399.622 150.632Z"
        fill="#9E9E9E" />
    <path
        d="M446.186 334.733C446.186 334.733 444.978 351.034 442.147 353.43C439.316 355.826 428.104 364.429 426.179 365.825C424.253 367.221 426.084 371.881 432.709 371.881C439.334 371.881 451.981 364.127 451.981 364.127L461.418 360.656C461.418 360.656 462.721 344.883 460.72 335.148C458.719 325.413 446.186 334.733 446.186 334.733Z"
        fill="#4A2B0F" />
    <path
        d="M477.783 361.07C477.783 361.07 471.195 392.842 475.518 395.275C479.84 397.709 489.618 392.464 491.128 387.012C492.638 381.559 492.071 349.278 491.128 349.033"
        fill="#4A2B0F" />
    <path
        d="M457.7 102.559C457.7 102.559 442.411 98.2199 434.918 115.766C424.763 139.425 424.272 274.699 424.272 274.699C428.912 279.203 434.694 282.354 440.995 283.811C440.995 283.811 442.298 144.198 443.411 135.368C445.223 120.747 457.7 102.559 457.7 102.559Z"
        fill="#DBDBDB" />
    <path
        d="M446.016 103.635C446.016 103.635 437.39 113.899 438.032 113.899C438.674 113.899 441.146 116.974 441.146 116.974L436.258 121.691L442.505 187.724C442.505 187.724 437.9 139.784 457.738 102.692C457.738 102.692 449.225 101.673 446.016 103.635Z"
        fill="#EEF3F7" />
    <path
        d="M472.423 106.502C472.423 106.502 487.749 111.841 491.732 125.916C495.846 140.424 496.488 286.414 496.488 287.943C496.488 289.471 486.749 295.489 478.519 296.791C470.29 298.093 458.172 293.339 458.172 293.339L455.982 208.212C455.982 208.212 457.021 159.272 458.172 149.952C459.323 140.632 472.423 106.502 472.423 106.502Z"
        fill="#DBDBDB" />
    <path
        d="M479.425 224.268C478.96 200.131 478.746 175.995 478.783 151.858C478.783 151.523 478.65 151.201 478.413 150.964C478.176 150.727 477.854 150.594 477.519 150.594C477.183 150.594 476.862 150.727 476.625 150.964C476.387 151.201 476.254 151.523 476.254 151.858C476.179 176.221 476.399 200.578 476.915 224.928L479.425 224.268Z"
        fill="#9E9E9E" />
    <path
        d="M474.065 269.945C474.065 269.945 507.417 238.268 509.757 239.758C512.098 241.248 511.852 289.132 511.381 290.528C510.909 291.924 487.994 315.451 485.239 316.149C482.483 316.847 471.781 316.149 471.781 316.149L474.065 269.945Z"
        fill="#4A2B0F" />
    <path
        d="M484.276 264.889C484.276 264.889 480.331 243.626 491.826 239.627C503.321 235.627 500.225 252.041 500.225 252.041L504.227 247.324C504.227 247.324 503.283 230.986 491.222 235.325C479.161 239.664 477.368 255.588 479.368 267.398"
        fill="#4A2B0F" />
    <path
        d="M495.922 219.344C491.879 221.773 487.383 223.353 482.709 223.985C481.852 227.291 480.617 230.488 479.029 233.513C478.179 237.286 478.085 240.795 481.879 240.437C482.109 240.417 482.329 240.334 482.515 240.197C482.702 240.061 482.847 239.876 482.936 239.663C483.049 240.682 483.162 241.682 483.294 242.701C483.332 242.896 483.432 243.074 483.577 243.21C483.71 243.657 484.003 244.039 484.4 244.283C484.797 244.527 485.271 244.615 485.729 244.531C486.036 244.504 486.33 244.393 486.579 244.21C486.611 244.643 486.775 245.055 487.048 245.392C487.321 245.729 487.691 245.975 488.107 246.097C488.537 246.227 489 246.2 489.411 246.02C489.823 245.84 490.157 245.52 490.354 245.116C490.649 245.6 491.111 245.96 491.654 246.127C492.196 246.294 492.781 246.256 493.298 246.021C493.976 245.656 494.485 245.04 494.714 244.304C494.927 244.202 495.105 244.038 495.223 243.833C498.168 238.739 497.602 233.173 496.129 227.758C496.016 224.891 495.959 222.117 495.922 219.344Z"
        fill="#F0B387" />
    <path
        d="M472.423 106.012L478.519 109.578L476.216 122.426L468.666 123.426L471.101 130.595C471.101 130.595 463.079 148.254 461.664 151.254C460.248 154.254 456.586 183.573 456.586 183.573C456.586 183.573 457.474 151.82 458.474 147.726C459.474 143.632 465.099 118.086 472.423 106.012Z"
        fill="#EEF3F7" />
    <path
        d="M494.223 217.891C489.184 220.815 483.65 222.785 477.896 223.702C476.292 223.966 476.971 226.4 478.576 226.136C484.564 225.172 490.322 223.112 495.563 220.061C495.851 219.883 496.056 219.599 496.134 219.27C496.212 218.941 496.156 218.594 495.978 218.306C495.801 218.019 495.516 217.813 495.187 217.735C494.858 217.658 494.511 217.714 494.223 217.891Z"
        fill="#9E9E9E" />
    <path
        d="M455.963 108.069C455.963 108.069 457.549 113.031 461.513 112.899C465.476 112.767 468.459 110.314 470.025 105.768"
        fill="#D89261" />
    <path
        d="M449.546 87.8815C448.238 87.1241 447.168 86.0158 446.457 84.6821C445.747 83.3484 445.424 81.8425 445.526 80.3348C445.526 74.6748 454.378 70.3166 458.021 69.8072C462.721 69.1469 478.387 71.0902 479.35 82.7875C480.029 90.919 474.461 105.428 470.365 105.428"
        fill="#4A2B0F" />
    <path
        d="M471.101 97.4082C470.706 95.5848 470.215 93.7836 469.629 92.0124C469.428 91.4086 469.214 90.7797 468.987 90.1257C467.874 87.2391 466.175 88.1069 463.513 88.0881C461.495 88.1344 459.479 87.9316 457.511 87.4843C454.506 86.6804 451.633 85.4477 448.98 83.8242C448.583 90.088 448.319 108.502 458.549 110.087C464.759 111.049 468.157 108.596 470.044 105.653C470.459 102.993 470.78 100.2 471.101 97.4082Z"
        fill="#F0B387" />
    <path
        d="M468.855 96.6728C468.855 96.6728 471.328 90.409 473.196 93.522C475.291 96.9746 470.818 99.4084 470.818 99.4084"
        fill="#F0B387" />
    <path
        d="M452.371 99.1689C454.535 98.5085 455.649 95.8809 454.861 93.2998C454.072 90.7187 451.679 89.1616 449.516 89.822C447.352 90.4823 446.238 93.11 447.026 95.691C447.815 98.2721 450.208 99.8292 452.371 99.1689Z"
        stroke="#42210B" stroke-width="0.25" stroke-miterlimit="10" />
    <path
        d="M463.394 101.835C465.558 101.175 466.672 98.5469 465.884 95.9658C465.095 93.3847 462.702 91.8276 460.539 92.488C458.375 93.1483 457.261 95.776 458.049 98.357C458.838 100.938 461.231 102.495 463.394 101.835Z"
        stroke="#42210B" stroke-width="0.25" stroke-miterlimit="10" />
    <path d="M465.873 95.9759L474.008 90.4668" stroke="#42210B" stroke-width="0.25" stroke-miterlimit="10" />
    <path d="M455.322 95.7109C455.322 95.7109 457.209 95.7109 457.813 96.3901" stroke="#42210B" stroke-width="0.25"
        stroke-miterlimit="10" />
    <path opacity="0.32" d="M523.328 449.612L363.495 547.04L208.21 454.348L360.06 360.92"
        fill="url(#paint1_linear_560_21378)" />
    <path
        d="M524.593 392.427L528.557 390.239L346.337 285.906L227.802 353.109L229.407 354.034V442.707C229.407 442.942 229.5 443.168 229.667 443.334C229.833 443.5 230.059 443.594 230.294 443.594C230.529 443.594 230.755 443.5 230.921 443.334C231.088 443.168 231.181 442.942 231.181 442.707V355.034L406.492 457.404L406.907 457.178V521.042C406.907 521.277 407.001 521.502 407.167 521.669C407.333 521.835 407.559 521.928 407.794 521.928C408.03 521.928 408.255 521.835 408.422 521.669C408.588 521.502 408.682 521.277 408.682 521.042V456.197L523.347 393.069V449.518C523.347 449.753 523.441 449.979 523.607 450.145C523.773 450.311 523.999 450.405 524.234 450.405C524.47 450.405 524.695 450.311 524.862 450.145C525.028 449.979 525.121 449.753 525.121 449.518V393.163C525.119 393.001 525.067 392.844 524.973 392.712C524.878 392.581 524.746 392.481 524.593 392.427Z"
        fill="#DBDBDB" />
    <path
        d="M301.604 300.754C301.604 300.754 280.841 338.185 277.783 346.373C274.726 354.562 283.446 373.164 311.419 373.523C339.391 373.881 344.884 352.411 344.337 349.203C343.789 345.996 318.799 300.754 318.799 300.754"
        fill="#C0F3F8" />
    <path
        d="M300.603 281.982V312.867C300.603 312.867 279.709 344.374 281.445 350.374C283.182 356.374 290.883 366.977 312.211 367.128C335.994 367.297 339.977 349.374 339.977 347.865C339.977 346.355 320.045 312.603 320.045 312.603V281.982"
        fill="#C0F3F8" />
    <path
        d="M310.324 287.509C315.703 287.509 320.063 285.034 320.063 281.981C320.063 278.928 315.703 276.453 310.324 276.453C304.945 276.453 300.584 278.928 300.584 281.981C300.584 285.034 304.945 287.509 310.324 287.509Z"
        fill="#93D8DB" />
    <path
        d="M320.063 312.62V306.527C314.401 302.414 305.322 301.848 300.603 306.942V312.885C297.47 317.601 294.488 322.431 291.6 327.299C289.297 331.204 287.032 335.147 285.031 339.222C283.257 342.788 280.558 347.448 281.804 351.505C285.579 363.862 299.867 368.636 311.475 368.711C319.025 368.711 327.123 367.145 332.955 361.957C337.353 358.07 341.543 351.391 339.24 345.373C337.365 341.209 335.169 337.197 332.672 333.374C328.633 326.431 324.442 319.582 320.177 312.771L320.063 312.62Z"
        fill="url(#paint2_linear_560_21378)" />
    <path
        d="M310.324 311.678C315.703 311.678 320.063 309.448 320.063 306.698C320.063 303.947 315.703 301.717 310.324 301.717C304.945 301.717 300.584 303.947 300.584 306.698C300.584 309.448 304.945 311.678 310.324 311.678Z"
        fill="url(#paint3_linear_560_21378)" />
    <path
        d="M326.066 342.94C323.549 336.211 321.29 329.394 319.29 322.489C319.105 321.966 318.728 321.533 318.236 321.277C317.744 321.021 317.173 320.961 316.639 321.109C316.104 321.258 315.646 321.604 315.357 322.077C315.067 322.55 314.969 323.116 315.08 323.659C317.056 330.576 319.315 337.394 321.857 344.11C322.763 346.714 327.047 345.582 326.066 342.94Z"
        fill="white" />
    <path
        d="M326.538 349.26C325.957 349.26 325.4 349.49 324.989 349.901C324.579 350.311 324.348 350.868 324.348 351.448C324.348 352.029 324.579 352.585 324.989 352.996C325.4 353.406 325.957 353.637 326.538 353.637C327.118 353.637 327.675 353.406 328.086 352.996C328.496 352.585 328.727 352.029 328.727 351.448C328.727 350.868 328.496 350.311 328.086 349.901C327.675 349.49 327.118 349.26 326.538 349.26Z"
        fill="white" />
    <path style="mix-blend-mode:multiply"
        d="M645.997 319.055C618.194 335.261 598.319 346.147 555.548 370.561C587.918 390.22 613.003 408.294 616.646 410.445L712.758 354.052C705.302 350.128 680.614 336.167 645.997 319.055Z"
        fill="url(#paint4_linear_560_21378)" />
    <path d="M712.758 354.072L652.093 319.074L619.024 337.809L680.293 373.259L712.758 354.072Z" fill="#FFB164" />
    <path d="M649.017 340.072V347.072L678.084 363.448L694.053 354.015V347.883" fill="#DBDBDB" />
    <path d="M694.053 347.884L664.891 331.055L649.017 340.073L678.462 357.091L694.053 347.884Z" fill="#606060" />
    <path d="M652.83 195.855L619.119 179.309V338.09L652.83 319.054V195.855Z" fill="#E87F18" />
    <path d="M712.758 246.059L652.093 211.043L619.024 229.796L680.293 265.247L712.758 246.059Z" fill="#FFB164" />
    <path d="M671.95 228.079L690.58 217.287L696.582 220.551L677.952 232.494L671.95 228.079Z" fill="#19847E" />
    <path d="M677.688 230.984V254.586L696.582 244.059V220.551L677.688 230.984Z" fill="#04AAA8" />
    <path d="M677.688 230.986L671.95 228.08V251.418L677.688 254.588" fill="#2252A4" />
    <path d="M712.871 195.573L652.188 160.557L619.119 179.31L680.387 214.761L712.871 195.573Z" fill="#FFB164" />
    <path d="M712.871 299.716L652.188 264.699L619.119 283.453L680.387 318.903L712.871 299.716Z" fill="#FFB164" />
    <path d="M680.387 214.76L712.871 195.572L712.758 354.071L680.293 373.259L680.387 214.76Z" fill="#FF9C28" />
    <path d="M624.328 259.888L640.712 250.398L645.997 253.266L629.595 263.775L624.328 259.888Z" fill="#19847E" />
    <path d="M629.368 262.454V283.226L645.997 273.943V253.266L629.368 262.454Z" fill="#04AAA8" />
    <path d="M629.368 262.455L624.328 259.889V280.434L629.368 283.227" fill="#2252A4" />
    <path d="M630.52 261.058L649.13 250.285L655.133 253.549L636.503 265.492L630.52 261.058Z" fill="#19847E" />
    <path d="M636.239 263.982V287.584L655.132 277.057V253.549L636.239 263.982Z" fill="#04AAA8" />
    <path d="M636.239 263.983L630.52 261.059V284.416L636.239 287.585" fill="#2252A4" />
    <path
        d="M673.837 169.159C668.251 168.913 662.896 166.853 658.586 163.291V179.479C658.586 181.687 659.021 183.873 659.867 185.912C660.712 187.952 661.951 189.805 663.512 191.366C665.074 192.927 666.928 194.165 668.968 195.01C671.009 195.854 673.195 196.289 675.404 196.289C679.864 196.289 684.142 194.518 687.296 191.366C690.45 188.213 692.222 183.937 692.222 179.479V163.027C686.465 165.367 679.953 169.687 673.837 169.159Z"
        fill="#F2AEB4" />
    <path
        d="M675.385 172.101C684.673 172.101 692.203 168.114 692.203 163.196C692.203 158.278 684.673 154.291 675.385 154.291C666.097 154.291 658.568 158.278 658.568 163.196C658.568 168.114 666.097 172.101 675.385 172.101Z"
        fill="#5ED18D" />
    <path
        d="M675.385 164.706C675.385 164.706 663.947 163.026 660.927 144.537C660.927 144.537 670.667 149.914 675.385 164.706Z"
        fill="#5ED18D" />
    <path
        d="M677.065 162.347C677.065 162.347 663.947 138.821 677.065 123.029C681.066 135.83 681.066 149.547 677.065 162.347Z"
        fill="#5ED18D" />
    <path
        d="M675.385 147.557C675.385 147.557 663.947 145.878 660.927 127.389C660.927 127.408 670.667 132.785 675.385 147.557Z"
        fill="#5ED18D" />
    <path
        d="M676.763 155.103C676.763 155.103 673.837 143.915 689.787 133.953C689.787 133.953 688.598 145.047 676.763 155.103Z"
        fill="#5ED18D" />
    <path
        d="M675.385 172.101C684.673 172.101 692.203 168.114 692.203 163.196C692.203 158.278 684.673 154.291 675.385 154.291C666.097 154.291 658.568 158.278 658.568 163.196C658.568 168.114 666.097 172.101 675.385 172.101Z"
        fill="#146666" />
    <path
        d="M675.385 164.706C675.385 164.706 663.947 163.026 660.927 144.537C660.927 144.537 670.667 149.914 675.385 164.706Z"
        fill="#5ED18D" />
    <path
        d="M677.065 162.347C677.065 162.347 663.947 138.821 677.065 123.029C681.066 135.83 681.066 149.547 677.065 162.347Z"
        fill="#5ED18D" />
    <path
        d="M675.385 147.557C675.385 147.557 663.947 145.878 660.927 127.389C660.927 127.408 670.667 132.785 675.385 147.557Z"
        fill="#5ED18D" />
    <path
        d="M676.763 155.103C676.763 155.103 673.837 143.915 689.787 133.953C689.787 133.953 688.598 145.047 676.763 155.103Z"
        fill="#5ED18D" />
    <path opacity="0.32"
        d="M396.941 453.97L447.507 422.803L407.36 398.898L355.152 427.557C368.232 437.537 383.483 444.537 396.941 453.97Z"
        fill="url(#paint5_linear_560_21378)" />
    <path
        d="M402.925 322.81V333.828C402.508 335.842 401.503 337.687 400.037 339.129C397.791 341.016 388.712 344.94 388.844 353.921C388.995 361.996 388.674 416.822 388.674 416.822H454.737V353.921C454.737 353.921 452.736 344.488 446.092 339.978C444.538 339.161 443.119 338.111 441.883 336.865C439.995 334.413 440.939 331.451 441.241 327.262C441.271 325.417 441.195 323.571 441.014 321.734"
        fill="url(#paint6_linear_560_21378)" />
    <path d="M400.037 310.941V322.318H445.016V310.941" fill="#DBDBDB" />
    <path
        d="M422.517 332.204C434.943 332.204 445.016 327.778 445.016 322.318C445.016 316.858 434.943 312.432 422.517 312.432C410.091 312.432 400.018 316.858 400.018 322.318C400.018 327.778 410.091 332.204 422.517 332.204Z"
        fill="#DBDBDB" />
    <path
        d="M422.517 320.846C434.943 320.846 445.016 316.42 445.016 310.96C445.016 305.5 434.943 301.074 422.517 301.074C410.091 301.074 400.018 305.5 400.018 310.96C400.018 316.42 410.091 320.846 422.517 320.846Z"
        fill="#EDEDED" />
    <path
        d="M421.686 428.575C439.919 428.575 454.699 422.907 454.699 415.915C454.699 408.924 439.919 403.256 421.686 403.256C403.454 403.256 388.674 408.924 388.674 415.915C388.674 422.907 403.454 428.575 421.686 428.575Z"
        fill="url(#paint7_linear_560_21378)" />
    <path
        d="M454.699 356.58C453.849 356.75 428.066 366.013 403.868 359.806V403.2C403.868 403.2 432.049 413.444 454.699 399.426V356.58Z"
        fill="white" />
    <path
        d="M396.016 144.782C396.016 144.782 403.944 146.16 409.021 143.575C414.099 140.99 411.55 132.915 407.643 133.029C403.693 133.504 399.799 134.363 396.016 135.594"
        fill="#F0B387" />
    <path
        d="M387.542 139.727C387.542 139.727 372.442 164.631 370.252 170.725C368.063 176.819 374.499 190.629 395.243 190.893C415.986 191.157 420.101 175.215 419.78 172.819C419.459 170.423 401.018 139.01 401.018 139.01"
        fill="#C0F3F8" />
    <path
        d="M386.805 125.389V147.821C386.805 147.821 371.705 170.706 372.895 175.065C374.084 179.423 379.746 187.12 395.243 187.234C412.513 187.347 415.401 174.348 415.401 173.253C415.401 172.159 400.924 147.651 400.924 147.651V125.389"
        fill="#C0F3F8" />
    <path
        d="M393.883 129.406C397.782 129.406 400.943 127.607 400.943 125.388C400.943 123.168 397.782 121.369 393.883 121.369C389.985 121.369 386.824 123.168 386.824 125.388C386.824 127.607 389.985 129.406 393.883 129.406Z"
        fill="#93D8DB" />
    <path
        d="M400.943 147.632V143.217C396.866 140.236 390.241 139.821 386.805 143.519V147.839C384.54 151.273 382.351 154.763 380.275 158.31C378.595 161.14 376.972 163.97 375.499 166.97C374.216 169.574 372.253 172.932 373.159 175.894C375.915 184.875 386.277 188.327 394.695 188.384C400.207 188.384 406.02 187.233 410.286 183.479C413.476 180.649 416.534 175.8 414.854 171.442C413.49 168.417 411.894 165.502 410.078 162.725C407.153 157.688 404.095 152.707 400.999 147.764L400.943 147.632Z"
        fill="url(#paint8_linear_560_21378)" />
    <path
        d="M393.883 146.954C397.782 146.954 400.943 145.332 400.943 143.331C400.943 141.331 397.782 139.709 393.883 139.709C389.985 139.709 386.824 141.331 386.824 143.331C386.824 145.332 389.985 146.954 393.883 146.954Z"
        fill="#F2AEB4" />
    <path
        d="M405.303 169.649C403.453 164.718 401.811 159.738 400.377 154.706C400.264 154.301 399.995 153.957 399.629 153.75C399.262 153.543 398.829 153.49 398.423 153.603C398.018 153.715 397.673 153.984 397.466 154.351C397.259 154.717 397.206 155.15 397.319 155.555C398.753 160.587 400.396 165.536 402.245 170.404C402.963 172.385 406.02 171.573 405.303 169.649Z"
        fill="white" />
    <path
        d="M405.586 174.252C405.166 174.252 404.762 174.419 404.465 174.716C404.168 175.013 404 175.416 404 175.837C404 176.257 404.168 176.66 404.465 176.957C404.762 177.255 405.166 177.422 405.586 177.422C406.007 177.422 406.41 177.255 406.707 176.957C407.004 176.66 407.172 176.257 407.172 175.837C407.172 175.416 407.004 175.013 406.707 174.716C406.41 174.419 406.007 174.252 405.586 174.252Z"
        fill="white" />
    <path
        d="M388.202 126.18C388.202 126.18 384.71 126.387 384.295 127.915C384.176 128.346 384.192 128.803 384.34 129.225C384.489 129.646 384.763 130.012 385.125 130.274C385.125 130.274 381.728 131.613 382.257 133.557C382.482 134.543 382.824 135.5 383.276 136.405C383.276 136.405 380.293 138.085 380.916 139.518C381.539 140.952 388.466 144.744 390.354 143.292C392.241 141.839 390.354 138.783 390.354 138.783C390.354 138.783 393.128 136.16 392.713 135.009C392.298 133.858 390.561 132.991 390.561 132.991C390.561 132.991 393.544 131.104 392.751 129.406C391.958 127.708 388.202 126.18 388.202 126.18Z"
        fill="#F0B387" />
    <path
        d="M405.378 131.784C403.448 131.156 401.557 130.413 399.716 129.558C399.247 129.355 398.734 129.275 398.226 129.325C397.718 129.374 397.23 129.552 396.809 129.841C394.488 131.426 390.184 134.633 391.015 136.029C392.166 137.916 397.319 135.557 398.187 135.388C399.055 135.218 401.358 139.821 407.813 139.161C407.813 139.161 411.23 134.916 410.173 134.029C408.652 133.126 407.046 132.374 405.378 131.784Z"
        fill="#F0B387" />
    <defs>
        <linearGradient id="paint0_linear_560_21378" x1="166.006" y1="253.662" x2="206.71" y2="332.52"
            gradientUnits="userSpaceOnUse">
            <stop stop-color="#1800BF" />
            <stop offset="1" stop-color="white" />
        </linearGradient>
        <linearGradient id="paint1_linear_560_21378" x1="319.724" y1="507.042" x2="384.601" y2="429.397"
            gradientUnits="userSpaceOnUse">
            <stop stop-color="#4E62D4" stop-opacity="0" />
            <stop offset="0.99" stop-color="#4444A5" />
        </linearGradient>
        <linearGradient id="paint2_linear_560_21378" x1="281.486" y1="368.711" x2="346.496" y2="310.678"
            gradientUnits="userSpaceOnUse">
            <stop offset="0.0001" stop-color="#513296" />
            <stop offset="1" stop-color="#8636BE" />
        </linearGradient>
        <linearGradient id="paint3_linear_560_21378" x1="320.063" y1="302.444" x2="299.546" y2="306.939"
            gradientUnits="userSpaceOnUse">
            <stop stop-color="#0C1934" />
            <stop offset="1" stop-color="#1E0F4A" />
        </linearGradient>
        <linearGradient id="paint4_linear_560_21378" x1="663.947" y1="344.525" x2="592.786" y2="387.059"
            gradientUnits="userSpaceOnUse">
            <stop stop-color="#808080" />
            <stop offset="1" stop-color="white" />
        </linearGradient>
        <linearGradient id="paint5_linear_560_21378" x1="357.738" y1="462.932" x2="426.832" y2="403.019"
            gradientUnits="userSpaceOnUse">
            <stop stop-opacity="0" />
            <stop offset="0.99" stop-color="#1A1A1A" />
        </linearGradient>
        <linearGradient id="paint6_linear_560_21378" x1="388.674" y1="416.822" x2="477.786" y2="354.911"
            gradientUnits="userSpaceOnUse">
            <stop stop-color="#F3ADB5" />
            <stop offset="1" stop-color="#70478D" />
        </linearGradient>
        <linearGradient id="paint7_linear_560_21378" x1="388.674" y1="428.575" x2="405.603" y2="384.429"
            gradientUnits="userSpaceOnUse">
            <stop stop-color="#BF81AA" />
            <stop offset="1" stop-color="#70478D" />
        </linearGradient>
        <linearGradient id="paint8_linear_560_21378" x1="372.928" y1="188.384" x2="420.141" y2="146.255"
            gradientUnits="userSpaceOnUse">
            <stop offset="0.0001" stop-color="#7346D6" />
            <stop offset="1" stop-color="#70478D" />
        </linearGradient>
    </defs>
</svg>