<svg xmlns="http://www.w3.org/2000/svg" viewBox="0 0 236 176" fill="none">
    <path d="M173.657 24.4766H90.1982V127.677H173.657V24.4766Z" fill="#E6E6E6" />
    <path d="M151.341 100.109H112.269V114.788H151.341V100.109Z" fill="#FFD200" />
    <path opacity="0.09"
        d="M93.3604 58.7656C93.3604 58.7656 101.762 60.027 100.266 65.7704C99.2562 69.3422 97.2834 72.5674 94.5631 75.0926V87.9992L106.854 101.915L110.908 93.7016L122.295 98.9816C122.295 98.9816 113.606 119.75 115.701 127.687H100.266L86.2266 96.3827L87.8164 69.396L93.3604 58.7656Z"
        fill="black" />
    <path
        d="M112.949 98.4316C112.949 98.4316 119.637 99.3996 115.642 106.393C111.646 113.386 108.654 135.439 96.7686 130.1L112.949 98.4316Z"
        fill="#F4A28C" />
    <path opacity="0.09"
        d="M112.949 98.4316C112.949 98.4316 119.637 99.3996 115.642 106.393C111.646 113.386 108.654 135.439 96.7686 130.1L112.949 98.4316Z"
        fill="black" />
    <path d="M87.124 62.6328L83.2109 76.4429L90.9784 78.0563L90.7085 67.3555L87.124 62.6328Z" fill="#F4A28C" />
    <path opacity="0.31"
        d="M90.8669 69.6956C89.9245 69.3304 89.109 68.6984 88.5203 67.877C88.5203 67.877 88.3208 70.4994 90.8669 73.4151V69.6956Z"
        fill="#CE8172" />
    <path
        d="M95.1673 63.0323C95.1673 63.0323 94.7801 67.3971 93.5481 70.131C93.4279 70.3959 93.2565 70.6344 93.0437 70.8328C92.831 71.0312 92.5811 71.1855 92.3084 71.2869C92.0358 71.3883 91.7458 71.4348 91.4551 71.4237C91.1644 71.4126 90.8788 71.3441 90.6147 71.2222C89.2478 70.5827 87.5875 69.3214 87.5113 66.9571L86.907 62.9561C86.8674 62.142 87.0815 61.3356 87.5197 60.6484C87.9579 59.9611 88.5986 59.4268 89.3534 59.1193C92.0873 57.8051 95.5427 60.3865 95.1673 63.0323Z"
        fill="#F4A28C" />
    <path
        d="M86.9071 77.2109L91.0138 78.0557C91.0138 78.0557 107.91 88.0291 107.311 100.936C106.713 113.842 98.4703 128.949 98.4703 128.949H69.7237C69.7237 128.949 49.8885 82.4147 86.9071 77.2109Z"
        fill="#4D308C" />
    <path d="M116.156 93.3604L108.183 90.168L102.408 104.59L110.382 107.782L116.156 93.3604Z" fill="#FFD200" />
    <path opacity="0.09"
        d="M82.4601 85.7064C82.4601 85.7064 91.5769 88.1176 91.7236 99.9506C91.8703 111.784 90.826 119.575 100.265 118.824L76.5172 128.926H69.6767C69.6767 128.926 65.4468 119.27 64.8073 108.487C64.1679 97.7037 75.4377 84.0461 82.4601 85.7064Z"
        fill="black" />
    <path d="M69.6763 128.926L68.5088 147.582L105.803 146.532L98.4347 128.926H69.6763Z" fill="#24285B" />
    <path
        d="M89.9283 65.9111C89.9283 65.9111 90.1923 64.245 88.9192 64.1511C87.6461 64.0572 87.2589 66.4626 88.9192 66.9906L89.9283 65.9111Z"
        fill="#F4A28C" />
    <path
        d="M75.2679 83.6831C75.2679 83.6831 82.5836 82.2223 85.1767 90.1012C87.7698 97.9801 85.2236 120.15 90.7207 122.08C96.2178 124.011 107.928 104.633 107.928 104.633C107.928 104.633 107.816 98.3263 112.093 96.5252C116.37 94.7241 113.671 104.181 111.418 106.434C109.166 108.687 103.199 134.348 85.734 133.802C68.269 133.256 61.094 90.2185 75.2679 83.6831Z"
        fill="#F4A28C" />
    <path
        d="M94.7801 65.7715L95.707 67.643C95.7582 67.7493 95.7818 67.8668 95.7756 67.9847C95.7695 68.1026 95.7338 68.217 95.6719 68.3175C95.61 68.418 95.5238 68.5013 95.4213 68.5597C95.3187 68.6182 95.2031 68.6499 95.0851 68.652H93.3779L94.7801 65.7715Z"
        fill="#F4A28C" />
    <path
        d="M95.1967 57.371C95.1967 57.371 99.4618 62.387 93.9413 63.4371C88.4207 64.4873 87.2826 65.4787 87.8165 71.0638C88.3503 76.6489 90.5269 81.7939 83.2111 85.3022C75.8954 88.8105 82.1786 94.6889 80.8645 101.547C79.5503 108.405 73.0735 113.151 64.8367 108.476C56.5999 103.8 51.5018 91.8083 60.3429 84.6217C69.1839 77.435 80.2895 75.7102 80.2895 64.1353C80.2895 52.5603 89.4885 51.9795 95.1967 57.371Z"
        fill="#24285B" />
    <path
        d="M131.394 87.3011C141.872 87.3011 150.366 78.8067 150.366 68.3283C150.366 57.8499 141.872 49.3555 131.394 49.3555C120.915 49.3555 112.421 57.8499 112.421 68.3283C112.421 78.8067 120.915 87.3011 131.394 87.3011Z"
        fill="#53AA22" />
    <path
        d="M100.705 36.654C102.374 36.654 103.726 35.3013 103.726 33.6327C103.726 31.964 102.374 30.6113 100.705 30.6113C99.0363 30.6113 97.6836 31.964 97.6836 33.6327C97.6836 35.3013 99.0363 36.654 100.705 36.654Z"
        fill="#FFD200" />
    <path
        d="M109.223 36.654C110.892 36.654 112.245 35.3013 112.245 33.6327C112.245 31.964 110.892 30.6113 109.223 30.6113C107.555 30.6113 106.202 31.964 106.202 33.6327C106.202 35.3013 107.555 36.654 109.223 36.654Z"
        fill="#4D308C" />
    <path
        d="M117.373 36.654C119.042 36.654 120.394 35.3013 120.394 33.6327C120.394 31.964 119.042 30.6113 117.373 30.6113C115.704 30.6113 114.352 31.964 114.352 33.6327C114.352 35.3013 115.704 36.654 117.373 36.654Z"
        fill="#24285B" />
    <path d="M123.333 68.3292L129.17 76.0791L138.61 61.1777" stroke="white" stroke-width="7" stroke-linecap="round"
        stroke-linejoin="round" />
</svg>