<svg width="32" height="33" viewBox="0 0 32 33" fill="none" xmlns="http://www.w3.org/2000/svg">
<g id="emojione-v1:document" clip-path="url(#clip0_140_7644)">
<g id="Group">
<path id="Vector" d="M26.0551 29.66C26.0551 31.188 24.9106 32.4255 23.4971 32.4255H7.18957C5.77757 32.4255 4.63257 31.1875 4.63257 29.66V4.72354C4.63257 3.19404 5.77807 1.95654 7.18957 1.95654H23.4971C24.9106 1.95654 26.0551 3.19404 26.0551 4.72354V29.66Z" fill="#F4AE7F"/>
<path id="Vector_2" d="M15.4496 5.7545C15.4496 6.045 14.8706 6.28 14.1596 6.28H5.92406C5.21106 6.28 4.63306 6.045 4.63306 5.7545V1.0245C4.63306 0.735 5.21056 0.5 5.92406 0.5H14.1596C14.8706 0.5 15.4496 0.735 15.4496 1.0245V5.7545Z" fill="#F4AE7F"/>
</g>
<path id="Vector_3" d="M27.3311 28.5C27.3311 29.7965 26.1751 30.845 24.7476 30.845H8.26807C6.84257 30.845 5.68457 29.796 5.68457 28.5V7.36502C5.68457 6.06952 6.84257 5.02002 8.26807 5.02002H24.7476C26.1751 5.02002 27.3311 6.07002 27.3311 7.36502V28.5Z" fill="#D0D2D3"/>
<path id="Vector_4" d="M27.3311 26.8469C27.3311 28.1434 26.1751 29.1919 24.7476 29.1919H8.26807C6.84257 29.1919 5.68457 28.1429 5.68457 26.8469V5.71192C5.68457 4.41642 6.84257 3.36792 8.26807 3.36792H24.7476C26.1751 3.36792 27.3311 4.41692 27.3311 5.71192V26.8469Z" fill="white"/>
<path id="Vector_5" d="M21.55 4.64007C21.55 4.79607 20.781 4.92307 19.835 4.92307H8.88497C7.93697 4.92307 7.16797 4.79607 7.16797 4.64007V2.09257C7.16797 1.93507 7.93697 1.80957 8.88497 1.80957H19.835C20.781 1.80957 21.55 1.93507 21.55 2.09257V4.64007Z" fill="#D0D2D3"/>
<path id="Vector_6" d="M10.035 9.51504H24.316C25.277 9.51504 25.277 8.16504 24.316 8.16504H10.035C9.07752 8.16504 9.07752 9.51504 10.035 9.51504ZM10.035 12.2575H24.316C25.277 12.2575 25.277 10.9085 24.316 10.9085H10.035C9.07752 10.9085 9.07752 12.2575 10.035 12.2575ZM10.035 15.06H24.316C25.277 15.06 25.277 13.71 24.316 13.71H10.035C9.07752 13.71 9.07752 15.06 10.035 15.06ZM10.035 17.8H24.316C25.277 17.8 25.277 16.451 24.316 16.451H10.035C9.07752 16.451 9.07752 17.8 10.035 17.8ZM10.035 23.09H16.609C17.567 23.09 17.567 21.7405 16.609 21.7405H10.035C9.07752 21.74 9.07752 23.09 10.035 23.09Z" fill="#35494D"/>
</g>
<defs>
<clipPath id="clip0_140_7644">
<rect width="32" height="32" fill="white" transform="translate(0 0.5)"/>
</clipPath>
</defs>
</svg>
