<svg viewBox="0 0 300 224" fill="none" xmlns="http://www.w3.org/2000/svg">
    <path opacity="0.3"
        d="M59.1976 96.611C59.1976 96.611 22.7826 188.779 118.64 190.071C214.497 191.363 258.326 177.214 258.759 130.338C259.192 83.4622 224.666 39.6552 164.493 39.1699C104.319 38.6846 71.7789 56.3208 59.1976 96.611Z"
        fill="#E6BEFF" />
    <path d="M193.45 59.5395L136.926 48.0498L119.589 133.337L176.113 144.827L193.45 59.5395Z" fill="#C1C1C1" />
    <path d="M194.563 54.0693L138.039 42.5796L120.702 127.867L177.226 139.357L194.563 54.0693Z"
        fill="url(#paint0_linear_66_640)" />
    <path d="M189.025 59.6047L140.981 49.8389L128.46 111.441L176.503 121.207L189.025 59.6047Z" fill="white" />
    <path
        d="M126.592 92.5864C126.592 92.5864 112.45 97.2382 116.004 105.877C117.931 110.559 124.427 112.493 129.982 113.277C131.022 113.422 132.082 113.275 133.043 112.852C134.004 112.429 134.829 111.747 135.425 110.883C136.021 110.018 136.364 109.004 136.417 107.956C136.47 106.907 136.23 105.864 135.724 104.944C134.309 102.241 132.321 99.8784 129.9 98.0222L126.592 92.5864Z"
        fill="#F4A28C" />
    <path d="M163.835 205.206V162.504L206.537 158.689L214.168 205.206H163.835Z" fill="#70468C" />
    <path
        d="M155.906 140.732L166.508 155.665V162.288L203.842 158.951L201.953 140.754C201.953 140.754 206.522 119.101 200.803 104.952C198.263 98.4023 197.14 91.3886 197.51 84.3735C197.786 77.9149 188.55 76.4365 186.848 82.6861C186.146 85.3293 185.66 90.7053 185.713 96.1261C185.733 98.4096 185.254 100.67 184.309 102.749C182.069 107.789 178.216 117.682 180.501 123.223L176.133 144.854L155.906 140.732Z"
        fill="#F4A28C" />
    <path d="M168.629 39.1626H89.3105V98.5749H168.629V39.1626Z" fill="#0C1934" />
    <path opacity="0.42"
        d="M151.187 129.113C153.62 129.113 155.592 127.141 155.592 124.708C155.592 122.275 153.62 120.303 151.187 120.303C148.754 120.303 146.782 122.275 146.782 124.708C146.782 127.141 148.754 129.113 151.187 129.113Z"
        fill="white" />
    <path
        d="M166.307 50.8631C172.418 50.8631 177.372 45.9089 177.372 39.7975C177.372 33.6862 172.418 28.7319 166.307 28.7319C160.195 28.7319 155.241 33.6862 155.241 39.7975C155.241 45.9089 160.195 50.8631 166.307 50.8631Z"
        fill="#2B5CB7" />
    <path
        d="M163.873 35.1383C164.588 34.5831 165.478 34.3023 166.382 34.3469C167.007 34.3297 167.627 34.4548 168.196 34.7127C168.655 34.9291 169.041 35.2747 169.306 35.707C169.571 36.1394 169.705 36.6398 169.69 37.1469C169.708 37.6999 169.543 38.2435 169.219 38.6925C168.955 39.0944 168.571 39.4027 168.122 39.5735C168.65 39.7376 169.105 40.0775 169.413 40.5367C169.745 41.0433 169.91 41.6414 169.884 42.2466C169.892 42.7903 169.755 43.3263 169.488 43.7997C169.211 44.2662 168.8 44.6383 168.308 44.8674C167.576 45.185 166.776 45.3112 165.981 45.2342C165.187 45.1571 164.426 44.8793 163.769 44.4269C163.419 44.1257 163.141 43.7501 162.955 43.3277C162.769 42.9053 162.679 42.4466 162.693 41.9853H164.672C164.67 42.1988 164.712 42.4105 164.796 42.6071C164.879 42.8036 165.002 42.9809 165.157 43.1277C165.505 43.4266 165.954 43.5792 166.412 43.5533C166.62 43.5686 166.83 43.54 167.027 43.4693C167.223 43.3985 167.403 43.2872 167.554 43.1426C167.825 42.8541 167.97 42.4701 167.957 42.0749C167.98 41.8371 167.94 41.5977 167.844 41.3794C167.747 41.1611 167.596 40.9712 167.405 40.8279C166.882 40.5366 166.285 40.4042 165.687 40.4471H165.269V38.7746H165.68C167.054 38.7746 167.741 38.3191 167.741 37.3933C167.752 37.2148 167.725 37.0361 167.662 36.8689C167.598 36.7016 167.501 36.5495 167.375 36.4226C167.078 36.1711 166.695 36.0452 166.307 36.0717C166.116 36.0599 165.924 36.0868 165.743 36.151C165.562 36.2151 165.396 36.3151 165.254 36.445C165.004 36.695 164.851 37.0258 164.821 37.3783H162.835C162.836 36.9521 162.929 36.531 163.108 36.1442C163.287 35.7574 163.548 35.4142 163.873 35.1383Z"
        fill="white" />
    <path d="M153.061 51.8037H104.894V84.7242H153.061V51.8037Z" fill="white" />
    <path d="M104.894 51.8037L128.974 74.9354L153.061 51.8037H104.894Z" fill="#2B5CB7" />
    <path opacity="0.09" d="M115.474 103.787H160.976V98.5601H117.146C117.146 98.5601 115.071 100.92 115.474 103.787Z"
        fill="black" />
    <path opacity="0.09" d="M176.103 144.839L179.881 161.071L166.508 162.266V155.643L155.906 140.732L176.103 144.839Z"
        fill="black" />
    <defs>
        <linearGradient id="paint0_linear_66_640" x1="120.702" y1="127.867" x2="209.831" y2="91.7761"
            gradientUnits="userSpaceOnUse">
            <stop stop-color="#BF81AA" />
            <stop offset="1" stop-color="#70478D" />
        </linearGradient>
    </defs>
</svg>