<svg viewBox="0 0 24 25" fill="none" xmlns="http://www.w3.org/2000/svg">
    <g clip-path="url(#clip0_227_2900)">
        <path
            d="M21.75 5C21.9489 5 22.1397 5.07902 22.2803 5.21967C22.421 5.36032 22.5 5.55109 22.5 5.75V19.25C22.5 19.4489 22.421 19.6397 22.2803 19.7803C22.1397 19.921 21.9489 20 21.75 20H2.25C2.05109 20 1.86032 19.921 1.71967 19.7803C1.57902 19.6397 1.5 19.4489 1.5 19.25V5.75C1.5 5.55109 1.57902 5.36032 1.71967 5.21967C1.86032 5.07902 2.05109 5 2.25 5H21.75ZM2.25 3.5C1.65326 3.5 1.08097 3.73705 0.65901 4.15901C0.237053 4.58097 0 5.15326 0 5.75L0 19.25C0 19.8467 0.237053 20.419 0.65901 20.841C1.08097 21.2629 1.65326 21.5 2.25 21.5H21.75C22.3467 21.5 22.919 21.2629 23.341 20.841C23.7629 20.419 24 19.8467 24 19.25V5.75C24 5.15326 23.7629 4.58097 23.341 4.15901C22.919 3.73705 22.3467 3.5 21.75 3.5H2.25Z" />
        <path
            d="M4.5 8.75C4.5 8.55109 4.57902 8.36032 4.71967 8.21967C4.86032 8.07902 5.05109 8 5.25 8H18.75C18.9489 8 19.1397 8.07902 19.2803 8.21967C19.421 8.36032 19.5 8.55109 19.5 8.75C19.5 8.94891 19.421 9.13968 19.2803 9.28033C19.1397 9.42098 18.9489 9.5 18.75 9.5H5.25C5.05109 9.5 4.86032 9.42098 4.71967 9.28033C4.57902 9.13968 4.5 8.94891 4.5 8.75ZM4.5 12.5C4.5 12.3011 4.57902 12.1103 4.71967 11.9697C4.86032 11.829 5.05109 11.75 5.25 11.75H18.75C18.9489 11.75 19.1397 11.829 19.2803 11.9697C19.421 12.1103 19.5 12.3011 19.5 12.5C19.5 12.6989 19.421 12.8897 19.2803 13.0303C19.1397 13.171 18.9489 13.25 18.75 13.25H5.25C5.05109 13.25 4.86032 13.171 4.71967 13.0303C4.57902 12.8897 4.5 12.6989 4.5 12.5ZM4.5 16.25C4.5 16.0511 4.57902 15.8603 4.71967 15.7197C4.86032 15.579 5.05109 15.5 5.25 15.5H14.25C14.4489 15.5 14.6397 15.579 14.7803 15.7197C14.921 15.8603 15 16.0511 15 16.25C15 16.4489 14.921 16.6397 14.7803 16.7803C14.6397 16.921 14.4489 17 14.25 17H5.25C5.05109 17 4.86032 16.921 4.71967 16.7803C4.57902 16.6397 4.5 16.4489 4.5 16.25Z" />
    </g>
    <defs>
        <clipPath id="clip0_227_2900">
            <rect width="24" height="24" fill="white" transform="translate(0 0.5)" />
        </clipPath>
    </defs>
</svg>