<svg viewBox="0 0 24 25" fill="none" xmlns="http://www.w3.org/2000/svg">
    <g clip-path="url(#clip0_227_2881)">
        <path
            d="M6 2.75H4.5C3.70435 2.75 2.94129 3.06607 2.37868 3.62868C1.81607 4.19129 1.5 4.95435 1.5 5.75V21.5C1.5 22.2956 1.81607 23.0587 2.37868 23.6213C2.94129 24.1839 3.70435 24.5 4.5 24.5H19.5C20.2956 24.5 21.0587 24.1839 21.6213 23.6213C22.1839 23.0587 22.5 22.2956 22.5 21.5V5.75C22.5 4.95435 22.1839 4.19129 21.6213 3.62868C21.0587 3.06607 20.2956 2.75 19.5 2.75H18V4.25H19.5C19.8978 4.25 20.2794 4.40804 20.5607 4.68934C20.842 4.97064 21 5.35218 21 5.75V21.5C21 21.8978 20.842 22.2794 20.5607 22.5607C20.2794 22.842 19.8978 23 19.5 23H4.5C4.10218 23 3.72064 22.842 3.43934 22.5607C3.15804 22.2794 3 21.8978 3 21.5V5.75C3 5.35218 3.15804 4.97064 3.43934 4.68934C3.72064 4.40804 4.10218 4.25 4.5 4.25H6V2.75Z" />
        <path
            d="M14.25 2C14.4489 2 14.6397 2.07902 14.7803 2.21967C14.921 2.36032 15 2.55109 15 2.75V4.25C15 4.44891 14.921 4.63968 14.7803 4.78033C14.6397 4.92098 14.4489 5 14.25 5H9.75C9.55109 5 9.36032 4.92098 9.21967 4.78033C9.07902 4.63968 9 4.44891 9 4.25V2.75C9 2.55109 9.07902 2.36032 9.21967 2.21967C9.36032 2.07902 9.55109 2 9.75 2H14.25ZM9.75 0.5C9.15326 0.5 8.58097 0.737053 8.15901 1.15901C7.73705 1.58097 7.5 2.15326 7.5 2.75V4.25C7.5 4.84674 7.73705 5.41903 8.15901 5.84099C8.58097 6.26295 9.15326 6.5 9.75 6.5H14.25C14.8467 6.5 15.419 6.26295 15.841 5.84099C16.2629 5.41903 16.5 4.84674 16.5 4.25V2.75C16.5 2.15326 16.2629 1.58097 15.841 1.15901C15.419 0.737053 14.8467 0.5 14.25 0.5L9.75 0.5Z" />
    </g>
    <defs>
        <clipPath id="clip0_227_2881">
            <rect width="24" height="24" fill="white" transform="translate(0 0.5)" />
        </clipPath>
    </defs>
</svg>