<svg xmlns="http://www.w3.org/2000/svg" viewBox="0 0 24 25">
    <path
        d="M19.1042 6.4549C19.2066 6.35045 19.3288 6.26747 19.4636 6.21082C19.5984 6.15418 19.7432 6.125 19.8895 6.125C20.0357 6.125 20.1805 6.15418 20.3153 6.21082C20.4502 6.26747 20.5723 6.35045 20.6747 6.4549C21.1037 6.8884 21.1097 7.5889 20.6897 8.0299L11.8202 18.5149C11.7195 18.6255 11.5973 18.7144 11.4611 18.7761C11.3249 18.8378 11.1775 18.8711 11.0279 18.8739C10.8784 18.8767 10.7299 18.849 10.5914 18.7924C10.453 18.7358 10.3275 18.6516 10.2227 18.5449L4.82571 13.0759C4.61757 12.8636 4.50098 12.5782 4.50098 12.2809C4.50098 11.9836 4.61757 11.6982 4.82571 11.4859C4.92808 11.3814 5.05026 11.2985 5.1851 11.2418C5.31993 11.1852 5.46471 11.156 5.61096 11.156C5.75722 11.156 5.902 11.1852 6.03683 11.2418C6.17167 11.2985 6.29385 11.3814 6.39621 11.4859L10.9742 16.1254L19.0742 6.4879C19.0835 6.47631 19.0936 6.46529 19.1042 6.4549Z" />
</svg>