<svg viewBox="0 0 24 25" fill="none" xmlns="http://www.w3.org/2000/svg">
    <path
        d="M13.0605 2.74997C12.7792 2.46876 12.3977 2.31079 12 2.31079C11.6022 2.31079 11.2208 2.46876 10.9395 2.74997L0.968971 12.719C0.899239 12.7887 0.843925 12.8715 0.806186 12.9626C0.768447 13.0537 0.749023 13.1514 0.749023 13.25C0.749023 13.3486 0.768447 13.4462 0.806186 13.5373C0.843925 13.6285 0.899239 13.7112 0.968971 13.781C1.1098 13.9218 1.30081 14.0009 1.49997 14.0009C1.59859 14.0009 1.69624 13.9815 1.78735 13.9438C1.87846 13.906 1.96124 13.8507 2.03097 13.781L2.99997 12.8105V20.75C2.99997 21.3467 3.23702 21.919 3.65898 22.341C4.08094 22.7629 4.65323 23 5.24997 23H18.75C19.3467 23 19.919 22.7629 20.341 22.341C20.7629 21.919 21 21.3467 21 20.75V12.8105L21.969 13.781C22.1098 13.9218 22.3008 14.0009 22.5 14.0009C22.6991 14.0009 22.8901 13.9218 23.031 13.781C23.1718 13.6401 23.2509 13.4491 23.2509 13.25C23.2509 13.0508 23.1718 12.8598 23.031 12.719L19.5 9.18947V4.24997C19.5 4.05106 19.421 3.86029 19.2803 3.71964C19.1396 3.57899 18.9489 3.49997 18.75 3.49997H17.25C17.0511 3.49997 16.8603 3.57899 16.7196 3.71964C16.579 3.86029 16.5 4.05106 16.5 4.24997V6.18947L13.0605 2.74997ZM19.5 11.3105V20.75C19.5 20.9489 19.421 21.1396 19.2803 21.2803C19.1396 21.421 18.9489 21.5 18.75 21.5H5.24997C5.05106 21.5 4.86029 21.421 4.71964 21.2803C4.57899 21.1396 4.49997 20.9489 4.49997 20.75V11.3105L12 3.81047L19.5 11.3105Z" />
</svg>