<svg viewBox="0 0 25 24" fill="none" xmlns="http://www.w3.org/2000/svg">
    <g clip-path="url(#clip0_227_2912)">
        <path fill-rule="evenodd" clip-rule="evenodd"
            d="M15.5 18.75C15.5 18.9489 15.421 19.1397 15.2803 19.2803C15.1397 19.421 14.9489 19.5 14.75 19.5H2.75C2.55109 19.5 2.36032 19.421 2.21967 19.2803C2.07902 19.1397 2 18.9489 2 18.75V5.25C2 5.05109 2.07902 4.86032 2.21967 4.71967C2.36032 4.57902 2.55109 4.5 2.75 4.5H14.75C14.9489 4.5 15.1397 4.57902 15.2803 4.71967C15.421 4.86032 15.5 5.05109 15.5 5.25V8.25C15.5 8.44891 15.579 8.63968 15.7197 8.78033C15.8603 8.92098 16.0511 9 16.25 9C16.4489 9 16.6397 8.92098 16.7803 8.78033C16.921 8.63968 17 8.44891 17 8.25V5.25C17 4.65326 16.7629 4.08097 16.341 3.65901C15.919 3.23705 15.3467 3 14.75 3H2.75C2.15326 3 1.58097 3.23705 1.15901 3.65901C0.737053 4.08097 0.5 4.65326 0.5 5.25L0.5 18.75C0.5 19.3467 0.737053 19.919 1.15901 20.341C1.58097 20.7629 2.15326 21 2.75 21H14.75C15.3467 21 15.919 20.7629 16.341 20.341C16.7629 19.919 17 19.3467 17 18.75V15.75C17 15.5511 16.921 15.3603 16.7803 15.2197C16.6397 15.079 16.4489 15 16.25 15C16.0511 15 15.8603 15.079 15.7197 15.2197C15.579 15.3603 15.5 15.5511 15.5 15.75V18.75Z" />
        <path fill-rule="evenodd" clip-rule="evenodd"
            d="M24.281 12.531C24.3508 12.4613 24.4063 12.3785 24.4441 12.2874C24.4819 12.1963 24.5013 12.0986 24.5013 12C24.5013 11.9013 24.4819 11.8036 24.4441 11.7125C24.4063 11.6214 24.3508 11.5386 24.281 11.469L19.781 6.96897C19.6402 6.82814 19.4492 6.74902 19.25 6.74902C19.0508 6.74902 18.8598 6.82814 18.719 6.96897C18.5782 7.1098 18.4991 7.30081 18.4991 7.49997C18.4991 7.69913 18.5782 7.89014 18.719 8.03097L21.9395 11.25H8.75C8.55109 11.25 8.36032 11.329 8.21967 11.4696C8.07902 11.6103 8 11.8011 8 12C8 12.1989 8.07902 12.3896 8.21967 12.5303C8.36032 12.671 8.55109 12.75 8.75 12.75H21.9395L18.719 15.969C18.5782 16.1098 18.4991 16.3008 18.4991 16.5C18.4991 16.6991 18.5782 16.8901 18.719 17.031C18.8598 17.1718 19.0508 17.2509 19.25 17.2509C19.4492 17.2509 19.6402 17.1718 19.781 17.031L24.281 12.531Z" />
    </g>
    <defs>
        <clipPath id="clip0_227_2912">
            <rect width="24" height="24" fill="white" transform="translate(0.5)" />
        </clipPath>
    </defs>
</svg>