<svg viewBox="0 0 24 25" fill="none" xmlns="http://www.w3.org/2000/svg">
    <g clip-path="url(#clip0_227_2905)">
        <path
            d="M1.5 2.75C1.5 2.15326 1.73705 1.58097 2.15901 1.15901C2.58097 0.737053 3.15326 0.5 3.75 0.5L21.75 0.5C22.3467 0.5 22.919 0.737053 23.341 1.15901C23.7629 1.58097 24 2.15326 24 2.75V22.25C24 22.8467 23.7629 23.419 23.341 23.841C22.919 24.2629 22.3467 24.5 21.75 24.5H3.75C3.15326 24.5 2.58097 24.2629 2.15901 23.841C1.73705 23.419 1.5 22.8467 1.5 22.25V20H0.75C0.551088 20 0.360322 19.921 0.21967 19.7803C0.0790176 19.6397 0 19.4489 0 19.25C0 19.0511 0.0790176 18.8603 0.21967 18.7197C0.360322 18.579 0.551088 18.5 0.75 18.5H1.5V13.25H0.75C0.551088 13.25 0.360322 13.171 0.21967 13.0303C0.0790176 12.8897 0 12.6989 0 12.5C0 12.3011 0.0790176 12.1103 0.21967 11.9697C0.360322 11.829 0.551088 11.75 0.75 11.75H1.5V6.5H0.75C0.551088 6.5 0.360322 6.42098 0.21967 6.28033C0.0790176 6.13968 0 5.94891 0 5.75C0 5.55109 0.0790176 5.36032 0.21967 5.21967C0.360322 5.07902 0.551088 5 0.75 5H1.5V2.75ZM3.75 2C3.55109 2 3.36032 2.07902 3.21967 2.21967C3.07902 2.36032 3 2.55109 3 2.75V22.25C3 22.4489 3.07902 22.6397 3.21967 22.7803C3.36032 22.921 3.55109 23 3.75 23H21.75C21.9489 23 22.1397 22.921 22.2803 22.7803C22.421 22.6397 22.5 22.4489 22.5 22.25V2.75C22.5 2.55109 22.421 2.36032 22.2803 2.21967C22.1397 2.07902 21.9489 2 21.75 2H3.75Z" />
        <path
            d="M20.25 9.49993C20.4489 9.49993 20.6397 9.57894 20.7803 9.7196C20.921 9.86025 21 10.051 21 10.2499V14.7499C21 14.9488 20.921 15.1396 20.7803 15.2803C20.6397 15.4209 20.4489 15.4999 20.25 15.4999C20.0511 15.4999 19.8603 15.4209 19.7197 15.2803C19.579 15.1396 19.5 14.9488 19.5 14.7499V10.2499C19.5 10.051 19.579 9.86025 19.7197 9.7196C19.8603 9.57894 20.0511 9.49993 20.25 9.49993ZM7.24201 7.19593C7.31168 7.12608 7.39444 7.07067 7.48556 7.03286C7.57668 6.99505 7.67436 6.97559 7.77301 6.97559C7.87166 6.97559 7.96934 6.99505 8.06046 7.03286C8.15158 7.07067 8.23434 7.12608 8.30401 7.19593L9.93901 8.83093C10.7008 8.29028 11.6119 7.99985 12.546 7.99985C13.4802 7.99985 14.3912 8.29028 15.153 8.83093L16.788 7.19593C16.9288 7.0553 17.1198 6.97637 17.3188 6.97651C17.5178 6.97665 17.7086 7.05585 17.8493 7.19668C17.9899 7.33751 18.0688 7.52843 18.0687 7.72746C18.0685 7.92648 17.9893 8.1173 17.8485 8.25793L16.2135 9.89293C17.3235 11.4484 17.3235 13.5529 16.2135 15.1069L17.8485 16.7419C17.9893 16.8826 18.0685 17.0734 18.0687 17.2724C18.0688 17.4714 17.9899 17.6623 17.8493 17.8032C17.7086 17.944 17.5178 18.0232 17.3188 18.0233C17.1198 18.0235 16.9288 17.9446 16.788 17.8039L15.153 16.1689C14.3913 16.7098 13.4802 17.0003 12.546 17.0003C11.6118 17.0003 10.7007 16.7098 9.93901 16.1689L8.30401 17.8039C8.23428 17.8737 8.15149 17.929 8.06038 17.9667C7.96927 18.0044 7.87162 18.0239 7.77301 18.0239C7.67439 18.0239 7.57674 18.0044 7.48563 17.9667C7.39452 17.929 7.31174 17.8737 7.24201 17.8039C7.17228 17.7342 7.11696 17.6514 7.07922 17.5603C7.04148 17.4692 7.02206 17.3715 7.02206 17.2729C7.02206 17.1743 7.04148 17.0767 7.07922 16.9856C7.11696 16.8944 7.17228 16.8117 7.24201 16.7419L8.87701 15.1069C8.33636 14.3451 8.04594 13.4341 8.04594 12.4999C8.04594 11.5658 8.33636 10.6547 8.87701 9.89293L7.24201 8.25793C7.17216 8.18826 7.11675 8.10549 7.07894 8.01438C7.04113 7.92326 7.02167 7.82558 7.02167 7.72693C7.02167 7.62828 7.04113 7.53059 7.07894 7.43948C7.11675 7.34836 7.17216 7.2656 7.24201 7.19593ZM10.425 10.3789C10.1385 10.6557 9.90993 10.9867 9.7527 11.3527C9.59548 11.7187 9.51272 12.1124 9.50926 12.5107C9.5058 12.9091 9.5817 13.3041 9.73254 13.6728C9.88339 14.0415 10.1061 14.3764 10.3878 14.6581C10.6695 14.9398 11.0045 15.1625 11.3731 15.3134C11.7418 15.4642 12.1369 15.5401 12.5352 15.5367C12.9335 15.5332 13.3272 15.4505 13.6932 15.2932C14.0592 15.136 14.3903 14.9075 14.667 14.6209C15.2135 14.0551 15.5159 13.2973 15.509 12.5107C15.5022 11.7241 15.1867 10.9717 14.6305 10.4155C14.0742 9.85925 13.3218 9.54374 12.5352 9.5369C11.7486 9.53007 10.9908 9.83245 10.425 10.3789Z" />
    </g>
    <defs>
        <clipPath id="clip0_227_2905">
            <rect width="24" height="24" fill="white" transform="translate(0 0.5)" />
        </clipPath>
    </defs>
</svg>