<svg viewBox="0 0 24 25" fill="none" xmlns="http://www.w3.org/2000/svg">
    <path
        d="M11.25 2.027C9.30596 2.16631 7.43906 2.84397 5.8583 3.98409C4.27754 5.12422 3.04531 6.68183 2.29956 8.48253C1.5538 10.2832 1.32396 12.256 1.63576 14.1799C1.94756 16.1038 2.78869 17.903 4.065 19.376L11.25 12.1895V2.027ZM12.75 2.027V11.75H22.473C22.2923 9.23107 21.2098 6.86162 19.4241 5.07589C17.6384 3.29015 15.2689 2.20774 12.75 2.027ZM22.473 13.25H12.3105L5.1255 20.435C6.59853 21.7109 8.39757 22.5516 10.3213 22.8632C12.245 23.1747 14.2174 22.9448 16.0178 22.1991C17.8183 21.4534 19.3757 20.2213 20.5157 18.6408C21.6558 17.0603 22.3335 15.1938 22.473 13.25ZM0 12.5C0 9.3174 1.26428 6.26516 3.51472 4.01472C5.76516 1.76428 8.8174 0.5 12 0.5C15.1826 0.5 18.2348 1.76428 20.4853 4.01472C22.7357 6.26516 24 9.3174 24 12.5C24 15.6826 22.7357 18.7348 20.4853 20.9853C18.2348 23.2357 15.1826 24.5 12 24.5C8.8174 24.5 5.76516 23.2357 3.51472 20.9853C1.26428 18.7348 0 15.6826 0 12.5Z" />
</svg>