<svg viewBox="0 0 261 328" fill="none" xmlns="http://www.w3.org/2000/svg">
    <rect x="16" width="8" height="8" fill="#D9D9D9" />
    <rect x="56" width="8" height="8" fill="#D9D9D9" />
    <rect x="96" width="8" height="8" fill="#D9D9D9" />
    <rect x="136" width="8" height="8" fill="#D9D9D9" />
    <rect x="176" width="8" height="8" fill="#D9D9D9" />
    <rect x="216" width="8" height="8" fill="#D9D9D9" />
    <rect x="16" y="40" width="8" height="8" fill="#D9D9D9" />
    <rect x="56" y="40" width="8" height="8" fill="#D9D9D9" />
    <rect x="96" y="40" width="8" height="8" fill="#D9D9D9" />
    <rect x="136" y="40" width="8" height="8" fill="#D9D9D9" />
    <rect x="176" y="40" width="8" height="8" fill="#D9D9D9" />
    <rect x="216" y="40" width="8" height="8" fill="#D9D9D9" />
    <rect x="16" y="80" width="8" height="8" fill="#D9D9D9" />
    <rect x="56" y="80" width="8" height="8" fill="#D9D9D9" />
    <rect x="96" y="80" width="8" height="8" fill="#D9D9D9" />
    <rect x="136" y="80" width="8" height="8" fill="#D9D9D9" />
    <rect x="176" y="80" width="8" height="8" fill="#D9D9D9" />
    <rect x="216" y="80" width="8" height="8" fill="#D9D9D9" />
    <rect x="16" y="120" width="8" height="8" fill="#D9D9D9" />
    <rect x="56" y="120" width="8" height="8" fill="#D9D9D9" />
    <rect x="96" y="120" width="8" height="8" fill="#D9D9D9" />
    <rect x="136" y="120" width="8" height="8" fill="#D9D9D9" />
    <rect x="176" y="120" width="8" height="8" fill="#D9D9D9" />
    <rect x="216" y="120" width="8" height="8" fill="#D9D9D9" />
    <rect x="16" y="160" width="8" height="8" fill="#D9D9D9" />
    <rect x="56" y="160" width="8" height="8" fill="#D9D9D9" />
    <rect x="96" y="160" width="8" height="8" fill="#D9D9D9" />
    <rect x="136" y="160" width="8" height="8" fill="#D9D9D9" />
    <rect x="176" y="160" width="8" height="8" fill="#D9D9D9" />
    <rect x="216" y="160" width="8" height="8" fill="#D9D9D9" />
    <rect x="16" y="200" width="8" height="8" fill="#D9D9D9" />
    <rect x="56" y="200" width="8" height="8" fill="#D9D9D9" />
    <rect x="96" y="200" width="8" height="8" fill="#D9D9D9" />
    <rect x="136" y="200" width="8" height="8" fill="#D9D9D9" />
    <rect x="176" y="200" width="8" height="8" fill="#D9D9D9" />
    <rect x="216" y="200" width="8" height="8" fill="#D9D9D9" />
    <rect x="16" y="240" width="8" height="8" fill="#D9D9D9" />
    <rect x="56" y="240" width="8" height="8" fill="#D9D9D9" />
    <rect x="96" y="240" width="8" height="8" fill="#D9D9D9" />
    <rect x="136" y="240" width="8" height="8" fill="#D9D9D9" />
    <rect x="176" y="240" width="8" height="8" fill="#D9D9D9" />
    <rect x="216" y="240" width="8" height="8" fill="#D9D9D9" />
    <rect x="16" y="280" width="8" height="8" fill="#D9D9D9" />
    <rect x="56" y="280" width="8" height="8" fill="#D9D9D9" />
    <rect x="96" y="280" width="8" height="8" fill="#D9D9D9" />
    <rect x="136" y="280" width="8" height="8" fill="#D9D9D9" />
    <rect x="176" y="280" width="8" height="8" fill="#D9D9D9" />
    <rect x="216" y="280" width="8" height="8" fill="#D9D9D9" />
    <rect x="16" y="320" width="8" height="8" fill="#D9D9D9" />
    <rect x="56" y="320" width="8" height="8" fill="#D9D9D9" />
    <rect x="96" y="320" width="8" height="8" fill="#D9D9D9" />
    <rect x="136" y="320" width="8" height="8" fill="#D9D9D9" />
    <rect x="176" y="320" width="8" height="8" fill="#D9D9D9" />
    <rect x="216" y="320" width="8" height="8" fill="#D9D9D9" />
</svg>