<svg width="19" height="25" viewBox="0 0 19 25" fill="none" xmlns="http://www.w3.org/2000/svg">
    <path
        d="M7.434 3.11756C7.5315 1.71506 8.862 0.63056 10.296 0.98756L10.6875 1.08656C11.382 1.26056 11.9985 1.77056 12.2055 2.53406C12.5355 3.75806 13.005 6.30056 12.2985 9.29906C12.5194 9.26855 12.741 9.24304 12.963 9.22256C14.0325 9.12506 15.4665 9.11456 16.737 9.53756C17.514 9.79706 18.228 10.5591 18.537 11.4471C18.813 12.2451 18.777 13.1901 18.186 14.0466C18.273 14.2251 18.3405 14.4096 18.393 14.5911C18.5085 14.9961 18.5625 15.4416 18.5625 15.8751C18.5625 16.3086 18.5085 16.7541 18.393 17.1591C18.3345 17.3616 18.258 17.5686 18.153 17.7651C18.4065 18.3456 18.3135 18.9936 18.1485 19.4871C17.9796 19.9744 17.7323 20.4308 17.4165 20.8386C17.4975 21.0666 17.5305 21.3066 17.5305 21.5361C17.5305 21.9936 17.397 22.4736 17.151 22.9041C16.65 23.7831 15.6555 24.5001 14.25 24.5001H9C8.0925 24.5001 7.395 24.3786 6.801 24.1731C6.29024 23.9865 5.80216 23.743 5.346 23.4471L5.274 23.4021C4.518 22.9416 3.7755 22.4886 2.172 22.3191C1.023 22.1961 0 21.2691 0 20.0001V14.0001C0 12.7251 1.0275 11.8521 2.0355 11.5776C3.309 11.2296 4.3965 10.3971 5.2335 9.46256C6.0735 8.52206 6.6045 7.54256 6.792 7.00406C7.0905 6.14156 7.326 4.69556 7.434 3.11906V3.11756Z"
        fill="url(#paint0_linear_869_4897)" />
    <defs>
        <linearGradient id="paint0_linear_869_4897" x1="2.08241e-07" y1="24.5001" x2="22.9617" y2="6.28816"
            gradientUnits="userSpaceOnUse">
            <stop stop-color="#BF81AA" />
            <stop offset="1" stop-color="#70478D" />
        </linearGradient>
    </defs>
</svg>