<svg viewBox="0 0 19 25" fill="none" xmlns="http://www.w3.org/2000/svg">
    <path
        d="M10.296 0.569126C8.862 0.210626 7.53 1.29513 7.434 2.69913C7.326 4.27563 7.089 5.72313 6.792 6.58413C6.6045 7.12413 6.0735 8.10363 5.232 9.04263C4.3965 9.97713 3.309 10.8096 2.0355 11.1576C1.0275 11.4321 0 12.3051 0 13.5801V19.5816C0 20.8491 1.023 21.7776 2.172 21.8991C3.777 22.0701 4.518 22.5216 5.274 22.9836L5.346 23.0286C5.754 23.2761 6.213 23.5506 6.801 23.7546C7.3965 23.9586 8.0925 24.0801 9 24.0801H14.25C15.6555 24.0801 16.6485 23.3646 17.151 22.4841C17.3939 22.0686 17.5251 21.5974 17.532 21.1161C17.532 20.8881 17.4975 20.6481 17.4165 20.4201C17.718 20.0256 17.9865 19.5531 18.1485 19.0686C18.3135 18.5736 18.4065 17.9256 18.1545 17.3451C18.258 17.1501 18.3345 16.9416 18.393 16.7406C18.5085 16.3356 18.5625 15.8886 18.5625 15.4551C18.5625 15.0231 18.5085 14.5776 18.393 14.1711C18.3405 13.9843 18.2712 13.8025 18.186 13.6281C18.4487 13.2544 18.6176 12.8231 18.6787 12.3704C18.7398 11.9178 18.6912 11.4571 18.537 11.0271C18.228 10.1391 17.514 9.37713 16.737 9.11913C15.4665 8.69613 14.0325 8.70513 12.963 8.80263C12.741 8.82261 12.5194 8.84761 12.2985 8.87763C12.8189 6.64921 12.7869 4.3274 12.2055 2.11413C12.1043 1.75951 11.9103 1.43835 11.6434 1.18387C11.3765 0.929388 11.0465 0.750817 10.6875 0.666626L10.296 0.569126ZM14.25 22.5816H9C8.235 22.5816 7.7055 22.4781 7.29 22.3356C6.8685 22.1901 6.531 21.9936 6.126 21.7461L6.066 21.7101C5.2335 21.2016 4.269 20.6136 2.331 20.4081C1.8315 20.3541 1.5 19.9731 1.5 19.5831V13.5801C1.5 13.1991 1.839 12.7656 2.43 12.6051C4.0725 12.1551 5.3955 11.1111 6.351 10.0431C7.3035 8.97813 7.947 7.83063 8.208 7.07613C8.5725 6.02613 8.8185 4.42413 8.931 2.80113C8.9685 2.25813 9.471 1.91013 9.9315 2.02413L10.3245 2.12313C10.5645 2.18313 10.7115 2.33763 10.7565 2.50563C11.3691 4.83966 11.2935 7.30105 10.539 9.59313C10.4963 9.72061 10.4886 9.85722 10.5168 9.98868C10.545 10.1201 10.608 10.2416 10.6993 10.3403C10.7905 10.4391 10.9066 10.5115 11.0354 10.55C11.1642 10.5885 11.301 10.5916 11.4315 10.5591L11.436 10.5576L11.457 10.5531L11.544 10.5321C12.0569 10.4232 12.5758 10.3446 13.098 10.2966C14.0925 10.2066 15.2835 10.2156 16.263 10.5426C16.5255 10.6296 16.938 10.9926 17.118 11.5176C17.2785 11.9796 17.2485 12.5226 16.719 13.0506L16.1895 13.5801L16.719 14.1111C16.7835 14.1756 16.8765 14.3226 16.95 14.5836C17.022 14.8341 17.0625 15.1386 17.0625 15.4551C17.0625 15.7731 17.022 16.0761 16.95 16.3281C16.875 16.5891 16.7835 16.7361 16.719 16.8006L16.1895 17.3301L16.719 17.8611C16.7895 17.9316 16.8825 18.1266 16.7265 18.5931C16.5639 19.0455 16.3055 19.4574 15.969 19.8006L15.4395 20.3301L15.969 20.8611C15.978 20.8686 16.0305 20.9361 16.0305 21.1161C16.0238 21.3361 15.9614 21.5509 15.849 21.7401C15.6015 22.1721 15.0945 22.5816 14.25 22.5816Z"
        fill="#5F5F5F" />
</svg>