<svg xmlns="http://www.w3.org/2000/svg" viewBox="0 0 154 160" fill="none">
    <path d="M153.649 0H45.1782V134.129H153.649V0Z" fill="#E6E6E6" />
    <path d="M124.644 98.3008H73.8628V117.378H124.644V98.3008Z" fill="#4D308C" />
    <path opacity="0.09"
        d="M49.2884 44.5684C49.2884 44.5684 60.2072 46.2077 58.2629 53.6724C56.9511 58.3147 54.3871 62.5064 50.8515 65.7883V82.563L66.8256 100.649L72.0944 89.9744L86.8942 96.8367C86.8942 96.8367 75.6018 123.829 78.3239 134.145H58.2629L40.0166 93.4589L42.0829 58.3846L49.2884 44.5684Z"
        fill="black" />
    <path
        d="M74.7471 96.1191C74.7471 96.1191 83.4394 97.3772 78.2469 106.466C73.0544 115.555 69.1657 144.217 53.7178 137.278L74.7471 96.1191Z"
        fill="#F4A28C" />
    <path opacity="0.09"
        d="M74.7471 96.1191C74.7471 96.1191 83.4394 97.3772 78.2469 106.466C73.0544 115.555 69.1657 144.217 53.7178 137.278L74.7471 96.1191Z"
        fill="black" />
    <path d="M41.1829 49.5918L36.0972 67.5407L46.1925 69.6375L45.8417 55.7298L41.1829 49.5918Z" fill="#F4A28C" />
    <path opacity="0.31"
        d="M46.0474 58.7719C44.8225 58.2973 43.7627 57.4759 42.9974 56.4082C42.9974 56.4082 42.7382 59.8165 46.0474 63.6061V58.7719Z"
        fill="#CE8172" />
    <path
        d="M51.6364 50.1099C51.6364 50.1099 51.1331 55.7827 49.5319 59.3359C49.3757 59.6802 49.1529 59.9902 48.8764 60.248C48.5999 60.5058 48.2751 60.7064 47.9208 60.8383C47.5664 60.9701 47.1895 61.0305 46.8117 61.0161C46.4339 61.0016 46.0627 60.9126 45.7195 60.7541C43.9429 59.923 41.7851 58.2837 41.6859 55.2109L40.9006 50.0107C40.8491 48.9526 41.1273 47.9047 41.6969 47.0114C42.2664 46.1182 43.0991 45.4238 44.0801 45.0241C47.6333 43.3161 52.1244 46.671 51.6364 50.1099Z"
        fill="#F4A28C" />
    <path
        d="M40.9005 68.541L46.2379 69.639C46.2379 69.639 68.1974 82.6012 67.4197 99.3759C66.642 116.151 55.929 135.785 55.929 135.785H18.5673C18.5673 135.785 -7.21237 75.3043 40.9005 68.541Z"
        fill="#F2AEB4" />
    <path d="M78.9158 89.528L68.5527 85.3789L61.048 104.123L71.4111 108.272L78.9158 89.528Z" fill="#4D308C" />
    <path opacity="0.09"
        d="M35.1211 79.5817C35.1211 79.5817 46.9701 82.7155 47.1608 98.0949C47.3514 113.474 45.9942 123.6 58.2625 122.624L27.3971 135.754H18.5066C18.5066 135.754 13.009 123.203 12.1779 109.189C11.3468 95.1745 25.9942 77.4239 35.1211 79.5817Z"
        fill="black" />
    <path d="M18.5066 135.754L16.9893 160.001L65.4605 158.636L55.8836 135.754H18.5066Z" fill="#24285B" />
    <path
        d="M44.8274 53.8554C44.8274 53.8554 45.1705 51.6899 43.5159 51.5679C41.8613 51.4459 41.3581 54.5721 43.5159 55.2584L44.8274 53.8554Z"
        fill="#F4A28C" />
    <path
        d="M25.7728 76.9495C25.7728 76.9495 35.281 75.0509 38.6512 85.2911C42.0214 95.5312 38.7122 124.346 45.8567 126.854C53.0012 129.363 68.2204 104.178 68.2204 104.178C68.2204 104.178 68.0755 95.9811 73.634 93.6403C79.1925 91.2994 75.6851 103.591 72.7572 106.519C69.8292 109.447 62.0747 142.798 39.3756 142.089C16.6764 141.379 7.35117 85.4436 25.7728 76.9495Z"
        fill="#F4A28C" />
    <path
        d="M51.1334 53.6719L52.3381 56.1042C52.4046 56.2424 52.4353 56.3952 52.4273 56.5484C52.4193 56.7016 52.373 56.8503 52.2925 56.9809C52.212 57.1115 52.1 57.2197 51.9667 57.2957C51.8335 57.3717 51.6832 57.4129 51.5299 57.4157H49.311L51.1334 53.6719Z"
        fill="#F4A28C" />
    <path
        d="M51.6745 42.752C51.6745 42.752 57.2178 49.2712 50.0428 50.6361C42.8678 52.0009 41.3886 53.2895 42.0824 60.5484C42.7763 67.8073 45.6051 74.4943 36.0969 79.0539C26.5887 83.6136 34.7549 91.2537 33.047 100.167C31.339 109.081 22.9212 115.249 12.2159 109.172C1.51059 103.095 -5.1154 87.5099 6.37525 78.1694C17.8659 68.829 32.2997 66.5873 32.2997 51.5434C32.2997 36.4996 44.2555 35.7448 51.6745 42.752Z"
        fill="#24285B" />
    <path
        d="M98.7198 81.6554C112.338 81.6554 123.379 70.6153 123.379 56.9967C123.379 43.378 112.338 32.3379 98.7198 32.3379C85.1011 32.3379 74.061 43.378 74.061 56.9967C74.061 70.6153 85.1011 81.6554 98.7198 81.6554Z"
        fill="#04CA47" />
    <path
        d="M58.8345 15.8302C61.0032 15.8302 62.7613 14.0721 62.7613 11.9034C62.7613 9.73465 61.0032 7.97656 58.8345 7.97656C56.6658 7.97656 54.9077 9.73465 54.9077 11.9034C54.9077 14.0721 56.6658 15.8302 58.8345 15.8302Z"
        fill="#4D308C" />
    <path
        d="M69.9058 15.8302C72.0745 15.8302 73.8326 14.0721 73.8326 11.9034C73.8326 9.73465 72.0745 7.97656 69.9058 7.97656C67.7371 7.97656 65.979 9.73465 65.979 11.9034C65.979 14.0721 67.7371 15.8302 69.9058 15.8302Z"
        fill="#04CA47" />
    <path
        d="M80.4966 15.8302C82.6653 15.8302 84.4234 14.0721 84.4234 11.9034C84.4234 9.73465 82.6653 7.97656 80.4966 7.97656C78.3279 7.97656 76.5698 9.73465 76.5698 11.9034C76.5698 14.0721 78.3279 15.8302 80.4966 15.8302Z"
        fill="#24285B" />
    <path d="M88.2432 56.9959L95.8299 67.0683L108.098 47.7012" stroke="white" stroke-width="7" stroke-linecap="round"
        stroke-linejoin="round" />
</svg>