<svg viewBox="0 0 17 17" fill="none" xmlns="http://www.w3.org/2000/svg">
    <g clip-path="url(#clip0_326_906)">
        <path
            d="M0.333496 4.5C0.333496 3.96957 0.54421 3.46086 0.919283 3.08579C1.29436 2.71071 1.80306 2.5 2.3335 2.5H14.3335C14.8639 2.5 15.3726 2.71071 15.7477 3.08579C16.1228 3.46086 16.3335 3.96957 16.3335 4.5V12.5C16.3335 13.0304 16.1228 13.5391 15.7477 13.9142C15.3726 14.2893 14.8639 14.5 14.3335 14.5H2.3335C1.80306 14.5 1.29436 14.2893 0.919283 13.9142C0.54421 13.5391 0.333496 13.0304 0.333496 12.5V4.5ZM2.3335 3.5C2.06828 3.5 1.81393 3.60536 1.62639 3.79289C1.43885 3.98043 1.3335 4.23478 1.3335 4.5V4.717L8.3335 8.917L15.3335 4.717V4.5C15.3335 4.23478 15.2281 3.98043 15.0406 3.79289C14.8531 3.60536 14.5987 3.5 14.3335 3.5H2.3335ZM15.3335 5.883L10.6255 8.708L15.3335 11.605V5.883ZM15.2995 12.759L9.6595 9.288L8.3335 10.083L7.0075 9.288L1.3675 12.758C1.42432 12.9708 1.54981 13.1589 1.72449 13.2931C1.89916 13.4272 2.11324 13.5 2.3335 13.5H14.3335C14.5536 13.5 14.7676 13.4274 14.9423 13.2934C15.1169 13.1595 15.2425 12.9716 15.2995 12.759ZM1.3335 11.605L6.0415 8.708L1.3335 5.883V11.605Z"
            fill="#F4F4F4" />
    </g>
    <defs>
        <clipPath id="clip0_326_906">
            <rect width="16" height="16" fill="white" transform="translate(0.333496 0.5)" />
        </clipPath>
    </defs>
</svg>