<svg width="17" height="17" viewBox="0 0 17 17" fill="none" xmlns="http://www.w3.org/2000/svg">
<g clip-path="url(#clip0_326_887)">
<path d="M12.4995 9.44C11.9755 10.502 11.2655 11.56 10.5395 12.51C9.85079 13.4056 9.1144 14.2635 8.3335 15.08C7.55258 14.2635 6.81618 13.4056 6.1275 12.51C5.4015 11.56 4.6915 10.502 4.1675 9.44C3.6375 8.367 3.3335 7.362 3.3335 6.5C3.3335 5.17392 3.86028 3.90215 4.79796 2.96447C5.73564 2.02678 7.00741 1.5 8.3335 1.5C9.65958 1.5 10.9313 2.02678 11.869 2.96447C12.8067 3.90215 13.3335 5.17392 13.3335 6.5C13.3335 7.362 13.0285 8.367 12.4995 9.44ZM8.3335 16.5C8.3335 16.5 14.3335 10.814 14.3335 6.5C14.3335 4.9087 13.7014 3.38258 12.5761 2.25736C11.4509 1.13214 9.9248 0.5 8.3335 0.5C6.7422 0.5 5.21607 1.13214 4.09086 2.25736C2.96564 3.38258 2.3335 4.9087 2.3335 6.5C2.3335 10.814 8.3335 16.5 8.3335 16.5Z" fill="#F4F4F4"/>
<path d="M8.3335 8.5C7.80306 8.5 7.29436 8.28929 6.91928 7.91421C6.54421 7.53914 6.3335 7.03043 6.3335 6.5C6.3335 5.96957 6.54421 5.46086 6.91928 5.08579C7.29436 4.71071 7.80306 4.5 8.3335 4.5C8.86393 4.5 9.37264 4.71071 9.74771 5.08579C10.1228 5.46086 10.3335 5.96957 10.3335 6.5C10.3335 7.03043 10.1228 7.53914 9.74771 7.91421C9.37264 8.28929 8.86393 8.5 8.3335 8.5ZM8.3335 9.5C9.12915 9.5 9.89221 9.18393 10.4548 8.62132C11.0174 8.05871 11.3335 7.29565 11.3335 6.5C11.3335 5.70435 11.0174 4.94129 10.4548 4.37868C9.89221 3.81607 9.12915 3.5 8.3335 3.5C7.53785 3.5 6.77479 3.81607 6.21218 4.37868C5.64957 4.94129 5.3335 5.70435 5.3335 6.5C5.3335 7.29565 5.64957 8.05871 6.21218 8.62132C6.77479 9.18393 7.53785 9.5 8.3335 9.5Z" fill="#F4F4F4"/>
</g>
<defs>
<clipPath id="clip0_326_887">
<rect width="16" height="16" fill="white" transform="translate(0.333496 0.5)"/>
</clipPath>
</defs>
</svg>
