<svg viewBox="0 0 17 17" fill="none" xmlns="http://www.w3.org/2000/svg">
    <g clip-path="url(#clip0_326_895)">
        <path
            d="M3.98748 1.82805C3.92845 1.75211 3.85393 1.6896 3.76888 1.64468C3.68383 1.59975 3.5902 1.57343 3.4942 1.56747C3.3982 1.56151 3.30203 1.57605 3.21207 1.61012C3.12212 1.64418 3.04045 1.69699 2.97248 1.76505L1.93848 2.80005C1.45548 3.28405 1.27748 3.96905 1.48848 4.57005C2.36422 7.05764 3.78877 9.31615 5.65648 11.1781C7.5184 13.0457 9.77691 14.4703 12.2645 15.3461C12.8655 15.5571 13.5505 15.3791 14.0345 14.8961L15.0685 13.8621C15.1365 13.7941 15.1893 13.7124 15.2234 13.6225C15.2575 13.5325 15.272 13.4363 15.2661 13.3403C15.2601 13.2443 15.2338 13.1507 15.1889 13.0656C15.1439 12.9806 15.0814 12.9061 15.0055 12.8471L12.6985 11.0531C12.6173 10.9901 12.523 10.9465 12.4225 10.9253C12.322 10.9042 12.2181 10.9061 12.1185 10.9311L9.92848 11.4781C9.63616 11.5511 9.3299 11.5472 9.03952 11.4668C8.74915 11.3864 8.48454 11.2321 8.27148 11.0191L5.81548 8.56205C5.60225 8.34909 5.4478 8.08453 5.36719 7.79415C5.28658 7.50377 5.28254 7.19746 5.35548 6.90505L5.90348 4.71505C5.92839 4.61545 5.93035 4.51149 5.90921 4.41101C5.88808 4.31054 5.8444 4.21618 5.78148 4.13505L3.98748 1.82805ZM2.21748 1.01105C2.39247 0.836 2.60271 0.700181 2.83422 0.612612C3.06573 0.525043 3.31322 0.487728 3.56026 0.503144C3.8073 0.51856 4.04823 0.586355 4.26706 0.702028C4.48589 0.8177 4.6776 0.978602 4.82948 1.17405L6.62348 3.48005C6.95248 3.90305 7.06848 4.45405 6.93848 4.97405L6.39148 7.16405C6.3632 7.27748 6.36473 7.3963 6.39591 7.50896C6.4271 7.62163 6.48689 7.72431 6.56948 7.80705L9.02648 10.2641C9.10932 10.3468 9.21217 10.4067 9.32503 10.4379C9.43789 10.4691 9.5569 10.4705 9.67048 10.4421L11.8595 9.89505C12.1161 9.83089 12.3839 9.82591 12.6428 9.88048C12.9016 9.93505 13.1446 10.0477 13.3535 10.2101L15.6595 12.0041C16.4885 12.649 16.5645 13.8741 15.8225 14.6151L14.7885 15.6491C14.0485 16.3891 12.9425 16.7141 11.9115 16.3511C9.27266 15.4226 6.87675 13.9119 4.90148 11.9311C2.92077 9.95607 1.41009 7.56051 0.481479 4.92205C0.119479 3.89205 0.444479 2.78505 1.18448 2.04505L2.21848 1.01105H2.21748Z"
            fill="#F4F4F4" />
    </g>
    <defs>
        <clipPath id="clip0_326_895">
            <rect width="16" height="16" fill="white" transform="translate(0.333496 0.5)" />
        </clipPath>
    </defs>
</svg>