<svg xmlns="http://www.w3.org/2000/svg" viewBox="0 0 17 17" fill="none">
    <g clip-path="url(#clip0_340_811)">
        <path
            d="M13.9345 2.82605C13.201 2.08573 12.3274 1.49879 11.3648 1.09945C10.4022 0.700115 9.36967 0.496356 8.3275 0.500049C3.9605 0.500049 0.401496 4.05805 0.397496 8.42605C0.397496 9.82505 0.763496 11.186 1.4545 12.391L0.333496 16.5L4.5375 15.398C5.7005 16.031 7.00343 16.3627 8.3275 16.363H8.3315C12.6995 16.363 16.2575 12.805 16.2615 8.43305C16.2625 7.39109 16.0573 6.35924 15.6578 5.39693C15.2582 4.43462 14.6732 3.56088 13.9345 2.82605ZM8.3275 15.021C7.14649 15.0214 5.9872 14.7036 4.9715 14.101L4.7315 13.957L2.2375 14.611L2.9035 12.1781L2.7475 11.927C2.0873 10.8774 1.73814 9.66208 1.7405 8.42205C1.7405 4.79605 4.6975 1.83805 8.3315 1.83805C9.19724 1.8365 10.0547 2.00632 10.8545 2.33774C11.6543 2.66916 12.3806 3.15561 12.9915 3.76905C13.6045 4.3801 14.0905 5.10647 14.4214 5.90628C14.7523 6.70609 14.9216 7.56349 14.9195 8.42905C14.9155 12.068 11.9585 15.021 8.3275 15.021ZM11.9425 10.087C11.7455 9.98805 10.7725 9.50905 10.5895 9.44105C10.4075 9.37605 10.2745 9.34205 10.1445 9.54005C10.0115 9.73705 9.6315 10.186 9.5175 10.315C9.4035 10.448 9.2855 10.463 9.0875 10.365C8.8905 10.265 8.2515 10.057 7.4955 9.38005C6.9055 8.85505 6.5105 8.20505 6.3925 8.00805C6.2785 7.81005 6.3815 7.70405 6.4805 7.60505C6.5675 7.51705 6.6775 7.37305 6.7765 7.25905C6.8765 7.14505 6.9095 7.06105 6.9745 6.92905C7.0395 6.79505 7.0085 6.68105 6.9595 6.58205C6.9095 6.48305 6.5145 5.50605 6.3475 5.11205C6.1875 4.72305 6.0245 4.77705 5.9025 4.77205C5.7885 4.76505 5.6555 4.76505 5.5225 4.76505C5.42206 4.76755 5.32322 4.79078 5.23219 4.83328C5.14116 4.87579 5.05989 4.93665 4.9935 5.01205C4.8115 5.21005 4.3025 5.68905 4.3025 6.66605C4.3025 7.64305 5.0125 8.58205 5.1125 8.71505C5.2105 8.84805 6.5065 10.847 8.4955 11.707C8.9655 11.912 9.3355 12.033 9.6245 12.125C10.0995 12.2771 10.5285 12.254 10.8705 12.205C11.2505 12.147 12.0415 11.725 12.2085 11.262C12.3725 10.798 12.3725 10.4021 12.3225 10.319C12.2735 10.2351 12.1405 10.186 11.9425 10.087Z"
            fill="#F4F4F4" />
    </g>
    <defs>
        <clipPath id="clip0_340_811">
            <rect width="16" height="16" fill="white" transform="translate(0.333496 0.5)" />
        </clipPath>
    </defs>
</svg>