<svg viewBox="0 0 257 160" fill="none" xmlns="http://www.w3.org/2000/svg">
    <circle cx="145.5" cy="81.5" r="41" stroke="#898989" />
    <circle cx="145.5" cy="81.5" r="60" stroke="#898989" />
    <circle cx="146" cy="82" r="77.5" stroke="#898989" />
    <path
        d="M67.1764 22.7909C69.4115 17.6734 72.747 13.1114 76.9456 9.42945C81.1442 5.74755 86.1027 3.03629 91.4683 1.48859C96.8339 -0.0591095 102.475 -0.405202 107.989 0.474941C113.504 1.35508 118.756 3.43982 123.374 6.58082C127.991 9.72182 131.859 13.8419 134.703 18.6478C137.547 23.4537 139.297 28.8274 139.828 34.3864C140.359 39.9454 139.658 45.5532 137.776 50.8106C135.893 56.068 132.875 60.8459 128.936 64.8043L102 38L67.1764 22.7909Z"
        fill="#8A61E3" />
    <path
        d="M137.305 23.9436C139.616 29.7495 140.46 36.0358 139.762 42.2458C139.064 48.4558 136.845 54.3978 133.302 59.5454C129.759 64.693 125.001 68.8873 119.449 71.7569C113.898 74.6264 107.725 76.0826 101.476 75.9964C95.2274 75.9102 89.0966 74.2843 83.6265 71.2628C78.1564 68.2413 73.5159 63.9173 70.116 58.674C66.7162 53.4306 64.6619 47.4297 64.1352 41.2028C63.6085 34.9759 64.6256 28.7152 67.0964 22.9753L102 38L137.305 23.9436Z"
        fill="#6FE7F8" />
    <path
        d="M135.609 20.267C139.85 28.3055 141.07 37.598 139.047 46.4588C137.023 55.3196 131.891 63.1618 124.581 68.5628L102 38L135.609 20.267Z"
        fill="#F2AEB4" />
    <circle cx="4" cy="94" r="4" fill="white" />
    <circle cx="20" cy="94" r="4" fill="white" />
    <circle cx="36" cy="94" r="4" fill="white" />
    <circle cx="52" cy="94" r="4" fill="white" />
    <circle cx="4" cy="110" r="4" fill="white" />
    <circle cx="20" cy="110" r="4" fill="white" />
    <circle cx="36" cy="110" r="4" fill="white" />
    <circle cx="52" cy="110" r="4" fill="white" />
    <circle cx="4" cy="126" r="4" fill="white" />
    <circle cx="20" cy="126" r="4" fill="white" />
    <circle cx="36" cy="126" r="4" fill="white" />
    <circle cx="52" cy="126" r="4" fill="white" />
    <circle cx="4" cy="142" r="4" fill="white" />
    <circle cx="20" cy="142" r="4" fill="white" />
    <circle cx="36" cy="142" r="4" fill="white" />
    <circle cx="52" cy="142" r="4" fill="white" />
    <path
        d="M242.323 146.989C242.323 150.761 239.498 153.816 236.008 153.816H195.749C192.263 153.816 189.436 150.76 189.436 146.989V85.4267C189.436 81.6508 192.264 78.5957 195.749 78.5957H236.008C239.498 78.5957 242.323 81.6508 242.323 85.4267V146.989Z"
        fill="#F4AE7F" />
    <path
        d="M216.141 87.972C216.141 88.6892 214.712 89.2694 212.956 89.2694H192.625C190.865 89.2694 189.438 88.6892 189.438 87.972V76.2949C189.438 75.5802 190.863 75 192.625 75H212.956C214.712 75 216.141 75.5802 216.141 76.2949V87.972Z"
        fill="#F4AE7F" />
    <path
        d="M245.473 144.124C245.473 147.325 242.62 149.914 239.095 149.914H198.412C194.892 149.914 192.034 147.324 192.034 144.124V91.9474C192.034 88.7492 194.892 86.1582 198.412 86.1582H239.095C242.62 86.1582 245.473 88.7504 245.473 91.9474V144.124Z"
        fill="#D0D2D3" />
    <path
        d="M245.473 140.044C245.473 143.245 242.62 145.833 239.095 145.833H198.412C194.892 145.833 192.034 143.243 192.034 140.044V87.8668C192.034 84.6686 194.892 82.0801 198.412 82.0801H239.095C242.62 82.0801 245.473 84.6698 245.473 87.8668V140.044Z"
        fill="white" />
    <path
        d="M231.202 85.2202C231.202 85.6053 229.303 85.9189 226.968 85.9189H199.935C197.594 85.9189 195.696 85.6053 195.696 85.2202V78.9311C195.696 78.5422 197.594 78.2324 199.935 78.2324H226.968C229.303 78.2324 231.202 78.5422 231.202 78.9311V85.2202Z"
        fill="#D0D2D3" />
    <path
        d="M202.774 97.2566H238.03C240.403 97.2566 240.403 93.9238 238.03 93.9238H202.774C200.41 93.9238 200.41 97.2566 202.774 97.2566ZM202.774 104.027H238.03C240.403 104.027 240.403 100.697 238.03 100.697H202.774C200.41 100.697 200.41 104.027 202.774 104.027ZM202.774 110.946H238.03C240.403 110.946 240.403 107.613 238.03 107.613H202.774C200.41 107.613 200.41 110.946 202.774 110.946ZM202.774 117.71H238.03C240.403 117.71 240.403 114.38 238.03 114.38H202.774C200.41 114.38 200.41 117.71 202.774 117.71ZM202.774 130.77H219.003C221.369 130.77 221.369 127.438 219.003 127.438H202.774C200.41 127.437 200.41 130.77 202.774 130.77Z"
        fill="#35494D" />
</svg>