<svg viewBox="0 0 32 32" fill="none" xmlns="http://www.w3.org/2000/svg">
    <path
        d="M12.708 11H8C6.4087 11 4.88258 11.6321 3.75736 12.7574C2.63214 13.8826 2 15.4087 2 17C2 18.5913 2.63214 20.1174 3.75736 21.2426C4.88258 22.3679 6.4087 23 8 23H14C14.9601 23.0005 15.9064 22.7706 16.7593 22.3295C17.6121 21.8885 18.3467 21.2492 18.9012 20.4654C19.4558 19.6816 19.8141 18.7761 19.9461 17.8251C20.0782 16.8741 19.98 15.9052 19.66 15H18C17.828 15 17.66 15.02 17.5 15.062C17.8373 15.671 18.0098 16.3575 18.0005 17.0536C17.9911 17.7497 17.8003 18.4314 17.4468 19.0311C17.0933 19.6309 16.5894 20.128 15.9848 20.4733C15.3803 20.8186 14.6962 21.0001 14 21H8C6.93913 21 5.92172 20.5786 5.17157 19.8284C4.42143 19.0783 4 18.0609 4 17C4 15.9391 4.42143 14.9217 5.17157 14.1716C5.92172 13.4214 6.93913 13 8 13H11.07C11.506 12.248 12.058 11.572 12.708 11Z"
        fill="#5F5F5F" />
    <path
        d="M18.0002 11C17.0401 10.9995 16.0938 11.2294 15.241 11.6705C14.3881 12.1115 13.6535 12.7508 13.099 13.5346C12.5445 14.3184 12.1861 15.2239 12.0541 16.1749C11.922 17.1259 12.0202 18.0948 12.3402 19H14.5362C14.1851 18.3919 14.0003 17.7022 14.0003 17C14.0003 16.2979 14.1851 15.6081 14.5362 15C14.8873 14.392 15.3922 13.887 16.0003 13.5359C16.6083 13.1849 17.2981 13 18.0002 13H24.0002C25.0611 13 26.0785 13.4214 26.8286 14.1716C27.5788 14.9217 28.0002 15.9391 28.0002 17C28.0002 18.0609 27.5788 19.0783 26.8286 19.8284C26.0785 20.5786 25.0611 21 24.0002 21H20.9302C20.4951 21.7508 19.9412 22.4262 19.2902 23H24.0002C24.7881 23 25.5684 22.8448 26.2963 22.5433C27.0243 22.2418 27.6857 21.7998 28.2429 21.2426C28.8 20.6855 29.242 20.0241 29.5435 19.2961C29.845 18.5681 30.0002 17.7879 30.0002 17C30.0002 16.2121 29.845 15.4319 29.5435 14.7039C29.242 13.9759 28.8 13.3145 28.2429 12.7574C27.6857 12.2002 27.0243 11.7583 26.2963 11.4567C25.5684 11.1552 24.7881 11 24.0002 11H18.0002Z"
        fill="#5F5F5F" />
</svg>