<svg viewBox="0 0 32 32" fill="none" xmlns="http://www.w3.org/2000/svg">
    <path
        d="M16 0C7.16337 0 0 7.16337 0 16C0 24.8366 7.16337 32 16 32C24.8366 32 32 24.8366 32 16C32 7.16337 24.8366 0 16 0Z"
        fill="#40B3E0" />
    <path
        d="M23.7852 9.20363L20.9274 23.612C20.9274 23.612 20.5278 24.6112 19.4287 24.1316L12.8339 19.0756L10.4359 17.9166L6.39917 16.5576C6.39917 16.5576 5.77967 16.3379 5.71967 15.8583C5.6598 15.3786 6.41917 15.1189 6.41917 15.1189L22.4662 8.82388C22.4662 8.82388 23.7852 8.24438 23.7852 9.20363Z"
        fill="white" />
    <path
        d="M12.3272 23.451C12.3272 23.451 12.1347 23.433 11.8948 22.6735C11.655 21.9141 10.436 17.9173 10.436 17.9173L20.1282 11.7623C20.1282 11.7623 20.6878 11.4226 20.6678 11.7623C20.6678 11.7623 20.7677 11.8222 20.4679 12.102C20.1682 12.3818 12.854 18.9565 12.854 18.9565"
        fill="#D2E5F1" />
    <path d="M15.3626 21.0148L12.7541 23.3931C12.7541 23.3931 12.5503 23.5478 12.3271 23.4508L12.8266 19.0332"
        fill="#B5CFE4" />
</svg>