<svg viewBox="0 0 32 32" fill="none" xmlns="http://www.w3.org/2000/svg">
    <path
        d="M0 32L2.26116 23.7851C0.870852 21.3815 0.129864 18.6508 0.137503 15.8593C0.137503 7.11196 7.28765 0 16.0726 0C20.3351 0 24.338 1.65058 27.3402 4.64749C30.3499 7.6444 32.0076 11.6301 32 15.8669C32 24.6142 24.8498 31.7262 16.0649 31.7262H16.0573C13.3913 31.7262 10.7711 31.0568 8.44115 29.7942L0 32ZM8.83838 26.9189L9.31964 27.208C11.3516 28.4098 13.6815 29.0411 16.0573 29.0487H16.0649C23.3602 29.0487 29.3034 23.1386 29.3034 15.8669C29.3034 12.3451 27.9284 9.03637 25.4304 6.54148C22.9324 4.04659 19.6018 2.67744 16.0649 2.67744C8.76199 2.67744 2.81881 8.58759 2.81881 15.8593C2.81881 18.3466 3.51396 20.773 4.84316 22.8724L5.15636 23.3744L3.81952 28.2348L8.83838 26.9189Z"
        fill="black" fill-opacity="0.24" />
    <path
        d="M0.722656 31.1522L2.8803 23.3172C1.55252 21.0261 0.850908 18.4195 0.850908 15.7602C0.850908 7.42196 7.67088 0.638672 16.0374 0.638672C20.1038 0.638672 23.9136 2.21618 26.7804 5.07072C29.6472 7.92526 31.2239 11.7263 31.2239 15.7677C31.2239 24.106 24.404 30.8893 16.0374 30.8893H16.0299C13.4875 30.8893 10.9903 30.2508 8.77234 29.0489L0.722656 31.1522Z"
        fill="url(#paint0_linear_650_15901)" />
    <path
        d="M0.172363 31.7004L2.40545 23.5875C1.0324 21.2137 0.300615 18.517 0.308159 15.7601C0.308159 7.12133 7.36955 0.0976562 16.0454 0.0976562C20.2551 0.0976562 24.2083 1.72775 27.1731 4.68746C30.1456 7.64717 31.7826 11.5834 31.7751 15.7676C31.7751 24.4063 24.7137 31.43 16.0379 31.43H16.0303C13.3974 31.43 10.8097 30.7689 8.50873 29.522L0.172363 31.7004ZM8.90103 26.6824L9.37631 26.9679C11.3831 28.1548 13.6841 28.7783 16.0303 28.7858H16.0379C23.2426 28.7858 29.112 22.949 29.112 15.7676C29.112 12.2896 27.754 9.02185 25.2871 6.55793C22.8201 4.09401 19.5308 2.74186 16.0379 2.74186C8.82559 2.74186 2.95618 8.57865 2.95618 15.7601C2.95618 18.2165 3.6427 20.6128 4.9554 22.6861L5.26471 23.1819L3.94447 27.982L8.90103 26.6824Z"
        fill="white" />
    <path
        d="M12.1071 9.20312C11.8129 8.54958 11.5036 8.53455 11.2245 8.52704C10.9981 8.51953 10.7341 8.51953 10.47 8.51953C10.206 8.51953 9.78351 8.61719 9.42139 9.00781C9.05927 9.39843 8.04834 10.3449 8.04834 12.2755C8.04834 14.1986 9.45911 16.0615 9.65526 16.3244C9.85141 16.5874 12.3787 20.6664 16.3696 22.2363C19.6891 23.5434 20.3681 23.2805 21.0848 23.2129C21.809 23.1453 23.4084 22.2664 23.7403 21.3499C24.0647 20.4335 24.0647 19.6522 23.9666 19.487C23.8686 19.3217 23.6045 19.2241 23.2122 19.0287C22.8199 18.8334 20.8886 17.8869 20.5265 17.7517C20.1644 17.6165 19.9003 17.5564 19.6438 17.947C19.3798 18.3376 18.6253 19.2165 18.399 19.4795C18.1727 19.7424 17.9388 19.7724 17.5465 19.5771C17.1542 19.3818 15.8868 18.9687 14.3855 17.6315C13.2161 16.5949 12.424 15.3103 12.1977 14.9197C11.9713 14.5291 12.175 14.3188 12.3712 14.1234C12.5447 13.9507 12.7635 13.6652 12.9596 13.4399C13.1558 13.2145 13.2237 13.0492 13.3519 12.7863C13.4802 12.5234 13.4198 12.298 13.3218 12.1027C13.2237 11.9074 12.4542 9.97685 12.1071 9.20312Z"
        fill="white" />
    <defs>
        <linearGradient id="paint0_linear_650_15901" x1="15.9728" y1="31.1501" x2="15.9728" y2="0.636966"
            gradientUnits="userSpaceOnUse">
            <stop stop-color="#20B038" />
            <stop offset="1" stop-color="#60D66A" />
        </linearGradient>
    </defs>
</svg>