<svg viewBox="0 0 32 32" fill="none" xmlns="http://www.w3.org/2000/svg">
    <g id="Icons/plus-circle 2">
        <path id="Vector"
            d="M14 4C14 4.53043 13.7893 5.03914 13.4142 5.41421C13.0391 5.78929 12.5304 6 12 6C11.4696 6 10.9609 5.78929 10.5858 5.41421C10.2107 5.03914 10 4.53043 10 4C10 3.46957 10.2107 2.96086 10.5858 2.58579C10.9609 2.21071 11.4696 2 12 2C12.5304 2 13.0391 2.21071 13.4142 2.58579C13.7893 2.96086 14 3.46957 14 4ZM20 4C20 4.53043 19.7893 5.03914 19.4142 5.41421C19.0391 5.78929 18.5304 6 18 6C17.4696 6 16.9609 5.78929 16.5858 5.41421C16.2107 5.03914 16 4.53043 16 4C16 3.46957 16.2107 2.96086 16.5858 2.58579C16.9609 2.21071 17.4696 2 18 2C18.5304 2 19.0391 2.21071 19.4142 2.58579C19.7893 2.96086 20 3.46957 20 4ZM14 10C14 10.5304 13.7893 11.0391 13.4142 11.4142C13.0391 11.7893 12.5304 12 12 12C11.4696 12 10.9609 11.7893 10.5858 11.4142C10.2107 11.0391 10 10.5304 10 10C10 9.46957 10.2107 8.96086 10.5858 8.58579C10.9609 8.21071 11.4696 8 12 8C12.5304 8 13.0391 8.21071 13.4142 8.58579C13.7893 8.96086 14 9.46957 14 10ZM20 10C20 10.5304 19.7893 11.0391 19.4142 11.4142C19.0391 11.7893 18.5304 12 18 12C17.4696 12 16.9609 11.7893 16.5858 11.4142C16.2107 11.0391 16 10.5304 16 10C16 9.46957 16.2107 8.96086 16.5858 8.58579C16.9609 8.21071 17.4696 8 18 8C18.5304 8 19.0391 8.21071 19.4142 8.58579C19.7893 8.96086 20 9.46957 20 10ZM14 16C14 16.5304 13.7893 17.0391 13.4142 17.4142C13.0391 17.7893 12.5304 18 12 18C11.4696 18 10.9609 17.7893 10.5858 17.4142C10.2107 17.0391 10 16.5304 10 16C10 15.4696 10.2107 14.9609 10.5858 14.5858C10.9609 14.2107 11.4696 14 12 14C12.5304 14 13.0391 14.2107 13.4142 14.5858C13.7893 14.9609 14 15.4696 14 16ZM20 16C20 16.5304 19.7893 17.0391 19.4142 17.4142C19.0391 17.7893 18.5304 18 18 18C17.4696 18 16.9609 17.7893 16.5858 17.4142C16.2107 17.0391 16 16.5304 16 16C16 15.4696 16.2107 14.9609 16.5858 14.5858C16.9609 14.2107 17.4696 14 18 14C18.5304 14 19.0391 14.2107 19.4142 14.5858C19.7893 14.9609 20 15.4696 20 16ZM14 22C14 22.5304 13.7893 23.0391 13.4142 23.4142C13.0391 23.7893 12.5304 24 12 24C11.4696 24 10.9609 23.7893 10.5858 23.4142C10.2107 23.0391 10 22.5304 10 22C10 21.4696 10.2107 20.9609 10.5858 20.5858C10.9609 20.2107 11.4696 20 12 20C12.5304 20 13.0391 20.2107 13.4142 20.5858C13.7893 20.9609 14 21.4696 14 22ZM20 22C20 22.5304 19.7893 23.0391 19.4142 23.4142C19.0391 23.7893 18.5304 24 18 24C17.4696 24 16.9609 23.7893 16.5858 23.4142C16.2107 23.0391 16 22.5304 16 22C16 21.4696 16.2107 20.9609 16.5858 20.5858C16.9609 20.2107 17.4696 20 18 20C18.5304 20 19.0391 20.2107 19.4142 20.5858C19.7893 20.9609 20 21.4696 20 22ZM14 28C14 28.5304 13.7893 29.0391 13.4142 29.4142C13.0391 29.7893 12.5304 30 12 30C11.4696 30 10.9609 29.7893 10.5858 29.4142C10.2107 29.0391 10 28.5304 10 28C10 27.4696 10.2107 26.9609 10.5858 26.5858C10.9609 26.2107 11.4696 26 12 26C12.5304 26 13.0391 26.2107 13.4142 26.5858C13.7893 26.9609 14 27.4696 14 28ZM20 28C20 28.5304 19.7893 29.0391 19.4142 29.4142C19.0391 29.7893 18.5304 30 18 30C17.4696 30 16.9609 29.7893 16.5858 29.4142C16.2107 29.0391 16 28.5304 16 28C16 27.4696 16.2107 26.9609 16.5858 26.5858C16.9609 26.2107 17.4696 26 18 26C18.5304 26 19.0391 26.2107 19.4142 26.5858C19.7893 26.9609 20 27.4696 20 28Z"
            fill="#A9A9A9" />
    </g>
</svg>